<?xml version="1.0" standalone="no"?>
<!DOCTYPE svg PUBLIC "-//W3C//DTD SVG 1.1//EN" "http://www.w3.org/Graphics/SVG/1.1/DTD/svg11.dtd" >
<svg xmlns="http://www.w3.org/2000/svg" xmlns:xlink="http://www.w3.org/1999/xlink" version="1.1">
<metadata>
Created by FontForge 20170910 at Thu Jan 31 13:26:39 2013
 By Jimmy Wärting
Spacing/Kerning by Igino Marini: www.ikern.com
</metadata>
<defs>
<font id="KlinicSlab-MediumItalic" horiz-adv-x="542" >
  <font-face 
    font-family="Klinic Slab Medium"
    font-weight="400"
    font-style="italic"
    font-stretch="normal"
    units-per-em="1000"
    panose-1="0 0 0 0 0 0 0 0 0 0"
    ascent="750"
    descent="-250"
    x-height="428"
    cap-height="609"
    bbox="-114 -285 1104 953"
    underline-thickness="50"
    underline-position="-100"
    unicode-range="U+0020-FB06"
  />
<missing-glyph horiz-adv-x="425" 
d="M0 0l107 609h425l-107 -609h-425zM66 42h306l-113 226zM465 567h-306l113 -227zM475 520l-184 -216l108 -216zM58 88l184 216l-108 216z" />
    <glyph glyph-name="f_f_b" unicode="ffb" horiz-adv-x="1126" 
d="M-40 -210c-24 0 -48 3 -65 7l12 67c12 -3 31 -6 48 -6c35 0 67 11 78 71l75 429h-84l13 70h83l22 119c22 123 111 161 207 161c53 0 106 -13 160 -29c37 28 87 39 142 39c36 0 71 -5 101 -11h88l-60 -333c37 39 85 65 141 65c94 0 166 -68 166 -195
c0 -152 -103 -255 -224 -255c-71 0 -116 36 -140 88l-14 -77h-80l113 640c-26 5 -56 10 -85 10c-69 0 -119 -22 -132 -94l-22 -128h118l-13 -70h-117l-73 -411c-18 -104 -75 -142 -158 -142c-24 0 -48 3 -66 7l12 67c13 -4 32 -6 48 -6c35 0 67 11 78 71l73 414h-211
l-75 -426c-19 -103 -76 -142 -159 -142zM849 55c88 0 150 83 150 187c0 83 -39 131 -105 131c-89 0 -150 -88 -150 -189c0 -78 36 -129 105 -129zM355 640c-64 0 -116 -25 -128 -96l-21 -116h211l24 131c4 25 11 45 20 63c-32 10 -70 18 -106 18z" />
    <glyph glyph-name="f_f_h" unicode="ffh" horiz-adv-x="1135" 
d="M260 -195c-24 0 -48 3 -66 7l12 67c13 -4 32 -6 48 -6c35 0 67 11 78 71l73 414h-211l-75 -426c-19 -103 -76 -142 -159 -142c-24 0 -48 3 -65 7l12 67c12 -3 31 -6 48 -6c35 0 67 11 78 71l75 429h-84l13 70h83l22 119c22 123 111 161 207 161c53 0 106 -13 160 -29
c37 28 87 39 142 39c36 0 71 -5 101 -11h88l-60 -343c43 36 103 75 166 75c76 0 123 -54 107 -145l-34 -192c-6 -32 5 -46 34 -46c17 0 37 6 51 11l-11 -66c-19 -6 -44 -11 -70 -11c-81 0 -99 55 -88 117l32 182c9 47 -2 81 -48 81c-53 0 -111 -44 -153 -82l-51 -288h-86
l113 640c-26 5 -56 10 -85 10c-69 0 -119 -22 -132 -94l-22 -128h118l-13 -70h-117l-73 -411c-18 -104 -75 -142 -158 -142zM206 428h211l24 131c4 25 11 45 20 63c-32 10 -70 18 -106 18c-64 0 -116 -25 -128 -96z" />
    <glyph glyph-name="f_f_i" unicode="ffi" horiz-adv-x="852" 
d="M-40 -210c-24 0 -48 3 -65 7l12 67c12 -3 31 -6 48 -6c35 0 67 11 78 71l75 429h-84l13 70h83l22 119c22 123 111 161 207 161c53 0 106 -13 160 -29c37 28 87 39 142 39c58 0 108 -12 151 -23l-18 -63c-35 8 -82 18 -127 18c-69 0 -119 -22 -132 -94l-22 -128h288
l-58 -326c-6 -31 5 -46 34 -46c17 0 37 6 51 11l-11 -66c-19 -6 -44 -11 -70 -11c-79 0 -100 52 -89 117l45 251h-202l-73 -411c-18 -104 -75 -142 -158 -142c-24 0 -48 3 -66 7l12 67c13 -4 32 -6 48 -6c35 0 67 11 78 71l73 414h-211l-75 -426
c-19 -103 -76 -142 -159 -142zM355 640c-64 0 -116 -25 -128 -96l-21 -116h211l24 131c4 25 11 45 20 63c-32 10 -70 18 -106 18z" />
    <glyph glyph-name="f_f_j" unicode="ffj" horiz-adv-x="825" 
d="M-40 -210c-24 0 -48 3 -65 7l12 67c12 -3 31 -6 48 -6c35 0 67 11 78 71l75 429h-84l13 70h83l22 119c22 123 111 161 207 161c53 0 106 -13 160 -29c37 28 87 39 142 39c58 0 108 -12 151 -23l-18 -63c-35 8 -82 18 -127 18c-69 0 -119 -22 -132 -94l-22 -128h288
l-82 -466c-19 -104 -77 -143 -154 -143c-26 0 -45 5 -63 10l12 66c14 -5 28 -8 44 -8c32 0 64 11 75 71l69 400h-201l-73 -411c-18 -104 -75 -142 -158 -142c-24 0 -48 3 -66 7l12 67c13 -4 32 -6 48 -6c35 0 67 11 78 71l73 414h-211l-75 -426c-19 -103 -76 -142 -159 -142
zM355 640c-64 0 -116 -25 -128 -96l-21 -116h211l24 131c4 25 11 45 20 63c-32 10 -70 18 -106 18z" />
    <glyph glyph-name="f_f_k" unicode="ffk" horiz-adv-x="1100" 
d="M-40 -210c-24 0 -48 3 -65 7l12 67c12 -3 31 -6 48 -6c35 0 67 11 78 71l75 429h-84l13 70h83l22 119c22 123 111 161 207 161c53 0 106 -13 160 -29c37 28 87 39 142 39c36 0 71 -5 101 -11h88l-59 -333c43 37 94 65 151 65c67 0 116 -39 116 -105
c0 -83 -81 -134 -162 -153l49 -82c12 -19 27 -43 58 -43c21 0 45 12 61 21l-12 -69c-20 -11 -41 -19 -67 -19c-50 0 -83 26 -112 75l-69 122l6 33c70 6 164 43 164 107c0 28 -19 45 -53 45c-51 0 -104 -37 -143 -69l-53 -302h-86l113 640c-26 5 -56 10 -85 10
c-69 0 -119 -22 -132 -94l-22 -128h118l-13 -70h-117l-73 -411c-18 -104 -75 -142 -158 -142c-24 0 -48 3 -66 7l12 67c13 -4 32 -6 48 -6c35 0 67 11 78 71l73 414h-211l-75 -426c-19 -103 -76 -142 -159 -142zM355 640c-64 0 -116 -25 -128 -96l-21 -116h211l24 131
c4 25 11 45 20 63c-32 10 -70 18 -106 18z" />
    <glyph glyph-name="f_f_l" unicode="ffl" horiz-adv-x="854" 
d="M-40 -210c-24 0 -48 3 -65 7l12 67c12 -3 31 -6 48 -6c35 0 67 11 78 71l75 429h-84l13 70h83l22 119c22 123 111 161 207 161c53 0 106 -13 160 -29c37 28 87 39 142 39c36 0 71 -5 101 -11h88l-107 -605c-6 -32 5 -46 33 -46c18 0 38 6 52 11l-11 -66
c-19 -6 -44 -11 -69 -11c-82 0 -101 54 -90 117l94 533c-26 5 -56 10 -85 10c-69 0 -119 -22 -132 -94l-22 -128h118l-13 -70h-117l-73 -411c-18 -104 -75 -142 -158 -142c-24 0 -48 3 -66 7l12 67c13 -4 32 -6 48 -6c35 0 67 11 78 71l73 414h-211l-75 -426
c-19 -103 -76 -142 -159 -142zM355 640c-64 0 -116 -25 -128 -96l-21 -116h211l24 131c4 25 11 45 20 63c-32 10 -70 18 -106 18z" />
    <glyph glyph-name="f_f_t" unicode="fft" horiz-adv-x="915" 
d="M260 -195c-24 0 -48 3 -66 7l12 67c13 -4 32 -6 48 -6c35 0 67 11 78 71l73 414h-211l-75 -426c-19 -103 -76 -142 -159 -142c-24 0 -48 3 -65 7l12 67c12 -3 31 -6 48 -6c35 0 67 11 78 71l75 429h-84l13 70h83l22 119c22 123 111 161 207 161c50 0 100 -12 150 -26
c29 24 69 36 118 36c28 0 54 -4 77 -8l-12 -65c-15 2 -34 5 -52 5c-56 0 -92 -21 -103 -84l-24 -138h202l19 110h86l-20 -110h125l-13 -68h-123l-43 -246c-7 -42 13 -58 51 -58c37 0 67 14 87 21l-12 -65c-25 -12 -62 -23 -103 -23c-75 0 -124 43 -108 130l42 241h-202
l-73 -413c-18 -104 -75 -142 -158 -142zM227 544l-21 -116h211l25 140c3 21 9 39 16 55c-32 9 -68 17 -103 17c-64 0 -116 -25 -128 -96z" />
    <glyph glyph-name="f_b" unicode="fb" horiz-adv-x="830" 
d="M566 -11c-71 0 -116 36 -140 88l-14 -77h-79l112 640c-26 5 -56 10 -85 10c-69 0 -119 -22 -131 -94l-23 -128h118l-13 -70h-117l-75 -426c-19 -103 -76 -142 -159 -142c-24 0 -48 3 -65 7l12 67c12 -3 31 -6 48 -6c35 0 67 11 78 71l75 429h-84l13 70h83l24 131
c22 123 108 159 210 159c36 0 71 -5 102 -11h87l-60 -333c37 39 85 65 141 65c94 0 166 -68 166 -195c0 -152 -103 -255 -224 -255zM552 55c88 0 150 83 150 187c0 83 -39 131 -105 131c-89 0 -150 -88 -150 -189c0 -78 36 -129 105 -129z" />
    <glyph glyph-name="f_f" unicode="ff" horiz-adv-x="600" 
d="M-40 -210c-24 0 -48 3 -65 7l12 67c12 -3 31 -6 48 -6c35 0 67 11 78 71l75 429h-84l13 70h83l22 119c22 123 111 161 207 161c50 0 100 -12 150 -26c29 24 69 36 118 36c28 0 54 -4 77 -8l-12 -65c-15 2 -34 5 -52 5c-56 0 -92 -21 -103 -84l-24 -138h118l-13 -70h-117
l-73 -411c-18 -104 -75 -142 -158 -142c-24 0 -48 3 -66 7l12 67c13 -4 32 -6 48 -6c35 0 67 11 78 71l73 414h-211l-75 -426c-19 -103 -76 -142 -159 -142zM355 640c-64 0 -116 -25 -128 -96l-21 -116h211l25 140c3 21 9 39 16 55c-32 9 -68 17 -103 17z" />
    <glyph glyph-name="f_h" unicode="fh" horiz-adv-x="838" 
d="M333 0l112 640c-26 5 -56 10 -85 10c-69 0 -119 -22 -131 -94l-23 -128h118l-13 -70h-117l-75 -426c-19 -103 -76 -142 -159 -142c-24 0 -48 3 -65 7l12 67c12 -3 31 -6 48 -6c35 0 67 11 78 71l75 429h-84l13 70h83l24 131c22 123 108 159 210 159c36 0 71 -5 102 -11
h87l-60 -343c44 36 103 75 166 75c76 0 123 -54 107 -145l-34 -192c-6 -32 5 -46 34 -46c17 0 37 6 51 11l-11 -66c-19 -6 -44 -11 -70 -11c-81 0 -99 55 -88 117l32 182c9 47 -2 81 -48 81c-52 0 -111 -44 -153 -82l-51 -288h-85z" />
    <glyph glyph-name="fi" unicode="fi" horiz-adv-x="555" 
d="M-40 -210c-24 0 -48 3 -65 7l12 67c12 -3 31 -6 48 -6c35 0 67 11 78 71l75 429h-84l13 70h83l24 131c22 123 108 159 210 159c58 0 108 -12 152 -23l-19 -63c-35 8 -82 18 -127 18c-69 0 -119 -22 -132 -94l-22 -128h288l-58 -326c-6 -31 5 -46 34 -46c17 0 37 6 51 11
l-11 -66c-19 -6 -44 -11 -70 -11c-79 0 -100 52 -89 117l45 251h-202l-75 -426c-19 -103 -76 -142 -159 -142z" />
    <glyph glyph-name="f_j" unicode="fj" horiz-adv-x="528" 
d="M-40 -210c-24 0 -48 3 -65 7l12 67c12 -3 31 -6 48 -6c35 0 67 11 78 71l75 429h-84l13 70h83l24 131c22 123 108 159 210 159c58 0 108 -12 152 -23l-19 -63c-35 8 -82 18 -127 18c-69 0 -119 -22 -132 -94l-22 -128h288l-85 -481c-18 -104 -77 -142 -154 -142
c-25 0 -45 4 -62 9l12 66c13 -4 27 -7 43 -7c32 0 64 11 75 71l72 414h-201l-75 -426c-19 -103 -76 -142 -159 -142z" />
    <glyph glyph-name="f_k" unicode="fk" horiz-adv-x="803" 
d="M333 0l112 640c-26 5 -56 10 -85 10c-69 0 -119 -22 -131 -94l-23 -128h118l-13 -70h-117l-75 -426c-19 -103 -76 -142 -159 -142c-24 0 -48 3 -65 7l12 67c12 -3 31 -6 48 -6c35 0 67 11 78 71l75 429h-84l13 70h83l24 131c22 123 108 159 210 159c36 0 71 -5 102 -11
h87l-59 -333c43 37 95 65 151 65c67 0 116 -39 116 -105c0 -83 -80 -134 -161 -153l48 -82c12 -19 27 -43 58 -43c21 0 45 12 61 21l-12 -69c-20 -11 -41 -19 -67 -19c-50 0 -83 26 -111 75l-70 122l6 33c70 6 165 43 165 107c0 28 -19 45 -54 45c-51 0 -104 -37 -142 -69
l-54 -302h-85z" />
    <glyph glyph-name="fl" unicode="fl" horiz-adv-x="557" 
d="M441 -10c-82 0 -101 54 -90 117l94 533c-26 5 -56 10 -85 10c-69 0 -119 -22 -131 -94l-23 -128h118l-13 -70h-117l-75 -426c-19 -103 -76 -142 -159 -142c-24 0 -48 3 -65 7l12 67c12 -3 31 -6 48 -6c35 0 67 11 78 71l75 429h-84l13 70h83l24 131
c22 123 108 159 210 159c36 0 71 -5 102 -11h87l-107 -605c-6 -32 5 -46 33 -46c18 0 38 6 52 11l-11 -66c-19 -6 -44 -11 -69 -11z" />
    <glyph glyph-name="f_t" unicode="ft" horiz-adv-x="619" 
d="M-40 -210c-24 0 -48 3 -65 7l12 67c12 -3 31 -6 48 -6c35 0 67 11 78 71l75 429h-84l13 70h83l25 140c19 107 79 150 175 150c29 0 54 -4 77 -8l-12 -65c-15 2 -34 5 -52 5c-56 0 -91 -21 -102 -84l-25 -138h202l19 110h87l-20 -110h124l-13 -68h-123l-43 -246
c-7 -42 13 -58 52 -58c36 0 66 14 86 21l-12 -65c-25 -12 -62 -23 -103 -23c-75 0 -124 43 -108 130l42 241h-202l-75 -428c-19 -103 -76 -142 -159 -142z" />
    <glyph glyph-name="t_t" unicode="tt" horiz-adv-x="628" 
d="M472 -11c-75 0 -124 43 -109 130l42 241h-219l-43 -246c-7 -42 13 -58 51 -58c37 0 67 14 87 21l-12 -65c-25 -12 -62 -23 -103 -23c-75 0 -124 43 -108 130l42 241h-73l12 68h73l19 110h86l-20 -110h220l20 110h86l-20 -110h124l-12 -68h-123l-44 -246
c-7 -42 13 -58 52 -58c37 0 66 14 86 21l-11 -65c-26 -12 -62 -23 -103 -23z" />
    <glyph glyph-name=".notdef" horiz-adv-x="425" 
d="M0 0l107 609h425l-107 -609h-425zM66 42h306l-113 226zM465 567h-306l113 -227zM475 520l-184 -216l108 -216zM58 88l184 216l-108 216z" />
    <glyph glyph-name="A" unicode="A" horiz-adv-x="681" 
d="M-45 0l13 71h78l269 467h-87l12 71h218l121 -538h79l-13 -71h-256l12 71h90l-26 117h-260l-66 -117h90l-13 -71h-261zM245 259h206l-56 265z" />
    <glyph glyph-name="B" unicode="B" horiz-adv-x="610" 
d="M-6 0l12 71h89l83 467h-90l13 71h280c125 0 202 -56 202 -147c0 -70 -48 -130 -140 -154c71 -17 113 -61 113 -127c0 -103 -99 -181 -253 -181h-309zM182 70h124c98 0 163 42 163 113c0 61 -48 92 -132 92h-119zM230 343h104c102 0 162 45 162 112c0 57 -45 84 -121 84
h-111z" />
    <glyph glyph-name="C" unicode="C" horiz-adv-x="611" 
d="M332 -12c-165 0 -287 97 -287 277c0 191 140 356 363 356c81 0 158 -21 217 -48l-26 -157h-82l20 112c-34 11 -83 21 -128 21c-166 0 -274 -128 -274 -282c0 -144 94 -204 206 -204c76 0 153 27 216 63l-14 -86c-46 -24 -123 -52 -211 -52z" />
    <glyph glyph-name="D" unicode="D" horiz-adv-x="684" 
d="M-6 0l12 71h89l83 467h-90l13 71h274c173 0 280 -88 280 -262c0 -196 -136 -347 -374 -347h-287zM184 71h101c176 0 279 116 279 274c0 125 -64 193 -197 193h-101z" />
    <glyph glyph-name="E" unicode="E" horiz-adv-x="578" 
d="M-6 0l12 71h89l83 467h-90l13 71h490l-30 -171h-82l18 100h-231l-34 -196h248l-12 -71h-249l-35 -200h233l18 103h82l-30 -174h-493z" />
    <glyph glyph-name="F" unicode="F" horiz-adv-x="547" 
d="M-6 0l12 71h89l83 467h-90l13 71h483l-31 -181h-82l19 109h-224l-37 -208h232l-13 -73h-231l-33 -185h99l-12 -71h-277z" />
    <glyph glyph-name="G" unicode="G" horiz-adv-x="692" 
d="M346 -12c-184 0 -300 102 -300 277c0 201 152 356 375 356c92 0 181 -26 236 -51l-25 -147h-83l17 100c-35 11 -87 24 -142 24c-169 0 -289 -118 -289 -278c0 -125 73 -206 220 -206c57 0 104 12 146 27l29 164h-142l12 70h281l-12 -70h-56l-38 -217
c-46 -21 -132 -49 -229 -49z" />
    <glyph glyph-name="H" unicode="H" horiz-adv-x="755" 
d="M-6 0l12 71h89l83 467h-90l13 71h267l-12 -71h-90l-34 -195h323l34 195h-90l12 71h268l-12 -71h-90l-82 -467h89l-12 -71h-268l13 71h90l35 198h-323l-35 -198h90l-13 -71h-267z" />
    <glyph glyph-name="I" unicode="I" horiz-adv-x="344" 
d="M-6 0l12 71h89l83 467h-90l13 71h267l-13 -71h-89l-82 -467h89l-12 -71h-267z" />
    <glyph glyph-name="J" unicode="J" horiz-adv-x="316" 
d="M-30 -173l-25 57c66 26 117 71 126 125l94 529h-83l12 71h254l-12 -71h-83l-95 -535c-20 -109 -104 -153 -188 -176z" />
    <glyph glyph-name="K" unicode="K" horiz-adv-x="672" 
d="M469 0l-206 302l1 6l259 231h-77l11 70h257l-13 -71h-70l-264 -239l157 -228h104l-13 -71h-146zM-6 0l12 71h89l83 467h-90l13 71h265l-12 -71h-88l-82 -467h96l-13 -71h-273z" />
    <glyph glyph-name="L" unicode="L" horiz-adv-x="546" 
d="M-6 0l12 71h89l83 467h-90l13 71h280l-13 -71h-102l-82 -467h232l20 109h82l-32 -180h-492z" />
    <glyph glyph-name="M" unicode="M" horiz-adv-x="903" 
d="M-12 0l13 71h85l100 467h-86l12 71h220l100 -458l257 458h226l-13 -71h-85l-65 -467h85l-13 -71h-251l13 71h85l63 456l-283 -493h-71l-114 493l-97 -456h85l-12 -71h-254z" />
    <glyph glyph-name="N" unicode="N" horiz-adv-x="744" 
d="M-6 0l12 71h89l83 467h-90l13 71h175l247 -473l71 402h-89l12 71h262l-12 -71h-89l-95 -538h-79l-252 481l-73 -410h90l-13 -71h-262z" />
    <glyph glyph-name="O" unicode="O" horiz-adv-x="708" 
d="M323 -12c-172 0 -277 108 -277 275c0 195 144 358 355 358c172 0 279 -108 279 -275c0 -195 -144 -358 -357 -358zM325 62c147 0 264 119 264 281c0 129 -74 204 -190 204c-147 0 -263 -121 -263 -282c0 -129 73 -203 189 -203z" />
    <glyph glyph-name="P" unicode="P" horiz-adv-x="582" 
d="M-6 0l12 71h89l83 467h-90l13 71h266c132 0 219 -59 219 -174c0 -117 -98 -212 -273 -212h-102l-27 -152h108l-12 -71h-286zM223 294h98c123 0 175 69 175 140c0 61 -40 104 -133 104h-97z" />
    <glyph glyph-name="Q" unicode="Q" horiz-adv-x="708" 
d="M465 -145l-170 134c-156 11 -249 117 -249 274c0 195 144 358 355 358c172 0 279 -108 279 -275s-107 -311 -270 -347l114 -76zM325 62c147 0 264 119 264 281c0 129 -74 204 -190 204c-147 0 -263 -121 -263 -282c0 -129 73 -203 189 -203z" />
    <glyph glyph-name="R" unicode="R" horiz-adv-x="633" 
d="M-6 0l12 71h89l83 467h-90l13 71h277c134 0 217 -63 217 -171c0 -99 -70 -168 -174 -191l72 -176h86l-12 -71h-137l-96 233h-122l-28 -162h89l-12 -71h-267zM225 302h105c125 0 175 65 175 135c0 61 -38 101 -133 101h-106z" />
    <glyph glyph-name="S" unicode="S" horiz-adv-x="519" 
d="M226 -12c-76 0 -159 15 -216 34l25 142h80l-16 -87c36 -10 80 -18 125 -18c102 0 153 41 153 101c0 142 -293 88 -293 283c0 96 70 178 227 178c69 0 143 -16 195 -33l-24 -139h-81l15 87c-29 8 -68 14 -103 14c-103 0 -141 -50 -141 -98c0 -130 292 -76 292 -286
c0 -112 -82 -178 -238 -178z" />
    <glyph glyph-name="T" unicode="T" horiz-adv-x="580" 
d="M104 0l13 71h96l82 467h-146l-17 -101h-80l30 172h540l-30 -172h-80l17 101h-145l-83 -467h97l-13 -71h-281z" />
    <glyph glyph-name="U" unicode="U" horiz-adv-x="688" 
d="M310 -12c-148 0 -238 91 -211 244l54 306h-89l12 71h267l-12 -71h-90l-57 -322c-18 -99 36 -150 126 -150c88 0 161 49 178 149l58 323h-92l12 71h265l-12 -71h-90l-57 -325c-26 -145 -124 -225 -262 -225z" />
    <glyph glyph-name="V" unicode="V" horiz-adv-x="656" 
d="M235 0l-115 538h-79l13 71h257l-12 -71h-92l90 -434l239 434h-91l12 71h263l-12 -71h-79l-305 -538h-89z" />
    <glyph glyph-name="W" unicode="W" horiz-adv-x="930" 
d="M197 0l-78 538h-75l12 71h252l-13 -71h-94l60 -431l204 383l-8 48h-81l12 71h260l-12 -71h-95l69 -429l207 429h-94l13 71h255l-13 -71h-76l-263 -538h-86l-67 373l-202 -373h-87z" />
    <glyph glyph-name="X" unicode="X" horiz-adv-x="648" 
d="M-36 0l13 70h75l233 244l-133 225h-74l11 70h257l-12 -69h-86l95 -168l158 168h-85l11 69h265l-12 -70h-75l-222 -233l140 -237h75l-13 -69h-255l13 69h86l-104 179l-168 -179h87l-13 -69h-267z" />
    <glyph glyph-name="Y" unicode="Y" horiz-adv-x="629" 
d="M131 0l13 71h92l26 148l-143 319h-78l13 71h262l-13 -70h-94l105 -241l190 241h-93l12 70h269l-12 -71h-76l-253 -316l-27 -151h92l-13 -71h-272z" />
    <glyph glyph-name="Z" unicode="Z" horiz-adv-x="575" 
d="M18 0l-21 43l445 492h-267l-18 -105h-82l31 179h455l25 -39l-449 -496h286l19 111h82l-32 -185h-474z" />
    <glyph glyph-name="a" unicode="a" 
d="M190 -11c-93 0 -165 68 -165 195c0 152 104 255 224 255c66 0 111 -33 135 -81l13 70h85l-57 -326c-6 -31 4 -46 33 -46c18 0 38 6 52 11l-12 -66c-19 -6 -44 -11 -68 -11c-59 0 -85 29 -87 76c-37 -46 -90 -77 -153 -77zM217 55c87 0 151 88 151 189
c0 78 -37 129 -104 129c-86 0 -151 -83 -151 -188c0 -82 40 -130 104 -130z" />
    <glyph glyph-name="b" unicode="b" horiz-adv-x="517" 
d="M254 -11c-71 0 -117 36 -140 88l-14 -77h-80l113 639h-70l13 68h155l-60 -333c37 39 84 65 141 65c93 0 165 -68 165 -195c0 -152 -103 -255 -223 -255zM240 55c87 0 150 83 150 187c0 83 -39 131 -105 131c-89 0 -151 -88 -151 -189c0 -78 37 -129 106 -129z" />
    <glyph glyph-name="c" unicode="c" horiz-adv-x="409" 
d="M221 -11c-121 0 -196 69 -196 194c0 134 85 256 246 256c50 0 99 -12 130 -25l-13 -65c-27 12 -67 24 -108 24c-111 0 -167 -89 -167 -185c0 -82 42 -133 127 -133c39 0 86 11 114 22l-12 -69c-29 -9 -77 -19 -121 -19z" />
    <glyph glyph-name="d" unicode="d" 
d="M190 -11c-93 0 -165 68 -165 195c0 152 104 255 224 255c66 0 110 -33 135 -80l50 280h-88l12 68h173l-106 -605c-6 -32 5 -46 33 -46c18 0 38 6 52 11l-12 -66c-19 -6 -44 -11 -69 -11c-61 0 -84 30 -86 76c-37 -46 -90 -77 -153 -77zM217 55c87 0 151 88 151 189
c0 78 -37 129 -104 129c-86 0 -151 -83 -151 -188c0 -82 40 -130 104 -130z" />
    <glyph glyph-name="e" unicode="e" horiz-adv-x="427" 
d="M218 -11c-111 0 -194 61 -194 192c0 149 107 258 241 258c86 0 131 -45 131 -109c0 -116 -146 -154 -287 -161c5 -79 48 -113 120 -113c50 0 97 17 138 36l-14 -71c-34 -18 -82 -32 -135 -32zM113 233c101 4 204 29 204 95c0 25 -14 47 -56 47c-71 0 -130 -59 -148 -142z
" />
    <glyph glyph-name="f" unicode="f" horiz-adv-x="303" 
d="M-40 -210c-24 0 -48 3 -65 7l12 67c12 -3 31 -6 48 -6c35 0 67 11 78 71l75 429h-84l13 70h83l25 140c19 107 79 150 175 150c29 0 54 -4 77 -8l-12 -65c-15 2 -34 5 -52 5c-56 0 -91 -21 -102 -84l-25 -138h118l-13 -70h-117l-75 -426c-19 -103 -76 -142 -159 -142z" />
    <glyph glyph-name="g" unicode="g" horiz-adv-x="450" 
d="M133 -210c-161 0 -203 59 -203 111c0 76 87 119 139 142c-7 9 -10 19 -10 31c0 28 17 50 39 68c-35 24 -56 62 -56 113c0 96 78 184 195 184c24 0 47 -4 67 -11h163l-13 -68l-75 3c11 -18 18 -40 18 -66c0 -96 -78 -184 -195 -184c-19 0 -37 2 -54 7
c-9 -9 -14 -17 -14 -24c0 -25 54 -41 109 -66c55 -24 108 -57 108 -117c0 -51 -41 -123 -218 -123zM238 377c-71 0 -116 -59 -116 -122c0 -48 27 -80 79 -80c70 0 116 58 116 122c0 47 -27 80 -79 80zM138 -145c97 0 129 29 129 53s-34 44 -94 69c-21 9 -43 18 -61 28
c-42 -19 -99 -50 -99 -92c0 -30 31 -58 125 -58z" />
    <glyph glyph-name="h" unicode="h" horiz-adv-x="525" 
d="M20 0l113 639h-76l12 68h162l-61 -343c44 36 104 75 167 75c75 0 122 -54 106 -145l-33 -192c-6 -32 5 -46 33 -46c18 0 38 6 52 11l-12 -66c-19 -6 -43 -11 -69 -11c-82 0 -99 55 -88 117l32 182c8 47 -2 81 -49 81c-52 0 -110 -44 -152 -82l-51 -288h-86z" />
    <glyph glyph-name="i" unicode="i" horiz-adv-x="262" 
d="M147 -10c-82 0 -100 54 -89 117l44 252h-75l12 69h161l-58 -326c-5 -32 6 -46 33 -46c19 0 38 6 52 11l-11 -66c-19 -6 -44 -11 -69 -11zM174 516c-32 0 -60 27 -60 60s28 60 60 60c33 0 61 -27 61 -60s-28 -60 -61 -60z" />
    <glyph glyph-name="j" unicode="j" horiz-adv-x="239" 
d="M179 516c-33 0 -60 27 -60 60s27 60 60 60s60 -27 60 -60s-27 -60 -60 -60zM-36 -210c-26 0 -46 5 -63 10l12 66c14 -5 28 -8 44 -8c31 0 64 11 74 71l76 430h-81l13 69h166l-88 -496c-18 -103 -76 -142 -153 -142z" />
    <glyph glyph-name="k" unicode="k" horiz-adv-x="491" 
d="M20 0l113 639h-70l13 68h155l-60 -333c44 37 95 65 152 65c67 0 116 -39 116 -105c0 -83 -81 -134 -162 -153l49 -82c12 -19 27 -43 57 -43c22 0 45 12 62 21l-13 -69c-19 -11 -40 -19 -67 -19c-49 0 -83 26 -111 75l-69 122l6 33c70 6 164 43 164 107
c0 28 -19 45 -53 45c-51 0 -105 -37 -143 -69l-53 -302h-86z" />
    <glyph glyph-name="l" unicode="l" horiz-adv-x="240" 
d="M124 -10c-82 0 -100 54 -90 117l94 532h-76l13 68h161l-107 -605c-5 -32 5 -46 33 -46c18 0 38 6 52 11l-11 -66c-19 -6 -44 -11 -69 -11z" />
    <glyph glyph-name="m" unicode="m" horiz-adv-x="782" 
d="M43 0l64 359h-74l12 69h155l-11 -59c36 33 87 70 149 70c53 0 92 -27 103 -78c37 35 91 78 158 78c69 0 118 -47 102 -138l-35 -199c-5 -32 5 -46 34 -46c17 0 37 6 51 11l-11 -66c-19 -6 -44 -11 -70 -11c-81 0 -99 55 -88 117l33 191c8 44 -6 72 -45 72
c-45 0 -92 -35 -129 -69l-52 -301h-85l52 298c8 44 -6 72 -45 72c-46 0 -93 -37 -130 -71l-53 -299h-85z" />
    <glyph glyph-name="n" unicode="n" horiz-adv-x="548" 
d="M43 0l64 359h-74l12 69h157l-12 -66c44 37 105 77 169 77c75 0 123 -54 107 -145l-34 -192c-6 -32 5 -46 33 -46c18 0 38 6 52 11l-11 -66c-19 -6 -44 -11 -70 -11c-81 0 -99 55 -88 117l32 182c9 47 -2 81 -49 81c-52 0 -109 -44 -151 -82l-51 -288h-86z" />
    <glyph glyph-name="o" unicode="o" horiz-adv-x="499" 
d="M215 -11c-115 0 -191 68 -191 193c0 138 92 257 245 257c115 0 191 -68 191 -193c0 -139 -93 -257 -245 -257zM217 55c93 0 154 92 154 191c0 75 -34 126 -104 126c-93 0 -154 -91 -154 -190c0 -76 34 -127 104 -127z" />
    <glyph glyph-name="p" unicode="p" horiz-adv-x="541" 
d="M277 -11c-67 0 -112 32 -136 80l-47 -268h-86l99 558h-72l12 69h150l-10 -62c37 44 87 73 148 73c93 0 165 -68 165 -195c0 -152 -102 -255 -223 -255zM262 55c86 0 151 83 151 188c0 82 -40 130 -105 130c-87 0 -151 -88 -151 -190c0 -77 37 -128 105 -128z" />
    <glyph glyph-name="q" unicode="q" horiz-adv-x="517" 
d="M191 -11c-94 0 -166 68 -166 195c0 152 103 255 223 255c71 0 117 -37 141 -89l14 78h79l-97 -559h76l-12 -68h-163l44 252c-36 -39 -84 -64 -139 -64zM218 55c89 0 150 88 150 188c0 79 -36 130 -105 130c-88 0 -150 -83 -150 -187c0 -83 39 -131 105 -131z" />
    <glyph glyph-name="r" unicode="r" horiz-adv-x="412" 
d="M43 0l64 359h-74l13 69h156l-14 -77c39 44 93 88 154 88c41 0 74 -21 74 -75c0 -24 -6 -50 -14 -71l-77 5c4 12 8 28 8 41c0 16 -7 26 -26 26c-48 0 -103 -58 -129 -86l-49 -279h-86z" />
    <glyph glyph-name="s" unicode="s" horiz-adv-x="372" 
d="M146 -11c-53 0 -105 11 -145 29l11 64c39 -16 89 -28 133 -28c65 0 93 26 93 58c0 82 -194 62 -194 197c0 69 52 130 165 130c50 0 96 -12 130 -24l-11 -62c-32 11 -73 22 -115 22c-67 0 -85 -29 -85 -54c0 -81 195 -60 195 -198c0 -60 -39 -134 -177 -134z" />
    <glyph glyph-name="t" unicode="t" horiz-adv-x="323" 
d="M166 -11c-75 0 -124 43 -108 130l42 241h-73l12 68h73l19 110h86l-20 -110h125l-13 -68h-123l-43 -246c-7 -42 13 -58 51 -58c37 0 67 14 87 21l-12 -65c-25 -12 -62 -23 -103 -23z" />
    <glyph glyph-name="u" unicode="u" 
d="M167 -11c-76 0 -123 54 -107 145l40 225h-74l12 69h159l-51 -289c-9 -47 2 -81 48 -81c52 0 108 43 151 81l52 289h85l-58 -329c-6 -32 4 -47 34 -47c17 0 37 6 51 11l-11 -62c-19 -6 -44 -11 -69 -11c-61 0 -88 31 -91 77c-44 -38 -106 -78 -171 -78z" />
    <glyph glyph-name="v" unicode="v" horiz-adv-x="469" 
d="M155 0l-75 361h-70l12 67h128l62 -345c81 92 160 200 160 265c0 14 -5 21 -21 21s-40 -9 -60 -23l-27 51c29 21 69 41 112 41c63 0 78 -43 78 -78c0 -93 -104 -231 -227 -360h-72z" />
    <glyph glyph-name="w" unicode="w" horiz-adv-x="696" 
d="M156 0l-77 361h-68l12 67h123l65 -340c51 68 107 160 129 226l-9 47h-70l12 67h125l67 -344c82 98 138 207 138 260c0 17 -6 24 -25 24c-20 0 -41 -9 -63 -23l-23 51c26 20 67 42 109 42c56 0 79 -38 79 -82c0 -83 -84 -227 -198 -356h-70l-46 210
c-34 -66 -83 -142 -138 -210h-72z" />
    <glyph glyph-name="x" unicode="x" horiz-adv-x="474" 
d="M65 -11c-53 0 -75 51 -90 84l47 27c9 -23 23 -38 39 -38c30 0 64 50 127 154l-67 147h-69l12 65h116l59 -144c62 103 97 154 152 154c53 0 74 -47 91 -83l-46 -27c-11 22 -23 38 -40 38c-29 0 -57 -48 -122 -158l67 -143h67l-11 -65h-114l-59 142
c-60 -94 -102 -153 -159 -153z" />
    <glyph glyph-name="y" unicode="y" horiz-adv-x="481" 
d="M130 0l-46 361h-70l12 67h134l50 -421c92 113 167 261 167 327c0 24 -10 33 -28 33c-19 0 -40 -9 -60 -23l-26 51c25 20 65 43 112 43c59 0 85 -37 85 -91c0 -153 -244 -557 -455 -557c-51 0 -91 24 -119 52l37 49c18 -15 46 -32 79 -32c61 0 136 61 202 141h-74z" />
    <glyph glyph-name="z" unicode="z" horiz-adv-x="439" 
d="M16 -4l-22 39l295 331h-159l-13 -80h-72l24 142h325l20 -37l-287 -321c39 4 86 -11 124 -11c59 0 75 37 92 85l62 -17c-15 -52 -40 -136 -140 -136c-50 0 -101 21 -160 21c-33 0 -59 -7 -89 -16z" />
    <glyph glyph-name="zero" unicode="0" horiz-adv-x="535" 
d="M231 -11c-137 0 -193 84 -193 204c0 142 80 290 261 290c136 0 192 -84 192 -202c0 -143 -80 -292 -260 -292zM236 56c117 0 167 118 167 223c0 83 -31 138 -110 138c-117 0 -168 -118 -168 -224c0 -82 32 -137 111 -137z" />
    <glyph glyph-name="one" unicode="1" horiz-adv-x="354" 
d="M8 0l12 66h102l59 334c-25 -17 -56 -36 -85 -36c-35 0 -49 26 -36 58l144 50h75l-72 -406h88l-11 -66h-276z" />
    <glyph glyph-name="two" unicode="2" horiz-adv-x="458" 
d="M19 0l-14 49c90 59 330 170 330 298c0 38 -24 72 -86 72c-36 0 -67 -11 -85 -19c3 -6 5 -14 5 -21c0 -29 -18 -53 -53 -53s-51 25 -51 51c0 66 105 106 194 106c91 0 162 -42 162 -130c0 -123 -140 -215 -269 -283h234l-13 -70h-354z" />
    <glyph glyph-name="three" unicode="3" horiz-adv-x="492" 
d="M180 -140c-93 0 -197 34 -197 102c0 32 24 57 59 57c30 0 52 -18 52 -46c0 -9 -2 -19 -8 -29c19 -9 48 -18 87 -18c94 0 154 52 154 124c0 70 -59 99 -137 99h-41l13 64h39c96 0 160 46 160 120c0 57 -39 85 -102 85c-33 0 -68 -8 -89 -18c3 -6 4 -14 4 -21
c0 -28 -22 -53 -57 -53c-34 0 -52 24 -52 51c0 68 107 106 203 106c109 0 181 -49 181 -141c0 -88 -64 -138 -138 -160c62 -22 104 -66 104 -136c0 -103 -88 -186 -235 -186z" />
    <glyph glyph-name="four" unicode="4" horiz-adv-x="491" 
d="M143 -129l11 62h96l18 99h-269l-16 58c116 111 221 268 248 389c36 12 66 1 66 -41c0 -80 -116 -254 -213 -342h198l14 76c25 33 46 72 65 109h34l-33 -185h83l-11 -64h-81l-18 -99h79l-11 -62h-260z" />
    <glyph glyph-name="five" unicode="5" horiz-adv-x="495" 
d="M191 -140c-105 0 -202 50 -202 116c0 34 25 57 59 57c33 0 50 -22 50 -49c0 -10 -3 -20 -8 -30c18 -12 48 -26 94 -26c88 0 160 51 160 147c0 77 -48 113 -111 113c-65 0 -118 -37 -146 -67l-54 28c41 95 69 203 91 323h333c13 -52 -6 -83 -72 -83c-48 0 -150 11 -202 13
c-11 -55 -28 -123 -53 -186c35 23 77 39 125 39c90 0 177 -57 177 -176c0 -126 -95 -219 -241 -219z" />
    <glyph glyph-name="six" unicode="6" horiz-adv-x="524" 
d="M236 -11c-113 0 -193 59 -193 213c0 167 94 410 295 410c90 0 161 -49 161 -104c0 -26 -16 -57 -56 -57c-34 0 -54 23 -54 48c0 14 6 26 13 33c-13 7 -33 16 -63 16c-107 0 -170 -117 -198 -234c35 40 89 71 162 71c102 0 169 -61 169 -170c0 -125 -89 -226 -236 -226z
M237 55c87 0 147 67 147 156c0 66 -33 112 -103 112c-84 0 -154 -64 -154 -155c0 -64 35 -113 110 -113z" />
    <glyph glyph-name="seven" unicode="7" horiz-adv-x="472" 
d="M175 -140c-30 0 -47 12 -47 48c0 119 141 350 252 480c-66 -19 -115 21 -180 21c-61 0 -86 -36 -96 -97h-73l29 160h66l-10 -54c17 34 43 60 93 60c68 0 114 -49 177 -38c7 25 25 43 55 43c32 0 48 -20 48 -45c0 -20 -11 -35 -25 -54c-146 -187 -236 -330 -254 -519
c-12 -3 -23 -5 -35 -5z" />
    <glyph glyph-name="eight" unicode="8" horiz-adv-x="531" 
d="M227 -11c-137 0 -201 67 -201 157c0 99 77 154 152 175c-46 21 -77 61 -77 119c0 90 77 172 219 172c123 0 179 -61 179 -140c0 -73 -49 -132 -128 -156c55 -19 102 -60 102 -136c0 -106 -91 -191 -246 -191zM231 54c98 0 156 60 156 131c0 61 -41 99 -118 99
c-95 0 -156 -57 -156 -132c0 -59 39 -98 118 -98zM316 549c-80 0 -132 -49 -132 -112c0 -51 35 -87 99 -87c77 0 133 53 133 116c0 51 -35 83 -100 83z" />
    <glyph glyph-name="nine" unicode="9" horiz-adv-x="516" 
d="M189 -140c-82 0 -177 36 -177 102c0 35 26 57 57 57s51 -22 51 -51c0 -9 -3 -18 -8 -26c15 -8 44 -17 75 -17c109 0 163 103 186 241c-32 -43 -85 -77 -159 -77c-102 0 -174 65 -174 174c0 122 90 220 234 220c123 0 195 -71 195 -222c0 -136 -58 -401 -280 -401z
M274 417c-88 0 -146 -68 -146 -152c0 -66 36 -114 107 -114c82 0 150 67 150 153c0 62 -36 113 -111 113z" />
    <glyph glyph-name="zero.lf" horiz-adv-x="551" 
d="M237 -12c-127 0 -185 79 -187 235c-2 171 61 398 280 398c123 0 188 -74 188 -242c0 -174 -69 -391 -281 -391zM247 55c137 0 182 191 182 325c0 122 -37 174 -108 174c-142 0 -183 -202 -183 -327c0 -118 36 -172 109 -172z" />
    <glyph glyph-name="one.lf" horiz-adv-x="362" 
d="M7 0l11 66h108l81 470c-23 -17 -61 -37 -92 -37c-34 0 -49 24 -35 59l150 51h75l-94 -543h92l-11 -66h-285z" />
    <glyph glyph-name="two.lf" horiz-adv-x="514" 
d="M53 -11c-33 0 -53 21 -53 55c0 57 70 105 159 166c131 90 231 158 231 255c0 60 -38 89 -99 89c-41 0 -77 -12 -98 -23c4 -7 5 -15 5 -22c0 -28 -18 -54 -56 -54c-36 0 -53 24 -53 51c0 67 105 115 207 115c121 0 182 -65 182 -155c0 -189 -272 -292 -364 -373
c63 9 127 -27 180 -27c63 0 82 53 91 100h77c-16 -97 -52 -176 -158 -176c-90 0 -142 55 -197 49c-1 -22 -15 -50 -54 -50z" />
    <glyph glyph-name="three.lf" horiz-adv-x="500" 
d="M205 -12c-93 0 -196 35 -196 103c0 31 23 57 58 57c30 0 52 -18 52 -46c0 -10 -2 -19 -8 -29c19 -9 48 -20 87 -20c94 0 154 54 154 127c0 72 -59 102 -137 102h-41l13 64h39c96 0 160 46 160 122c0 58 -39 87 -102 87c-33 0 -68 -8 -89 -18c3 -7 4 -15 4 -21
c0 -29 -21 -54 -57 -54c-34 0 -51 24 -51 51c0 68 106 108 203 108c108 0 180 -50 180 -144c0 -89 -63 -139 -138 -162c62 -23 104 -68 104 -139c0 -105 -87 -188 -235 -188z" />
    <glyph glyph-name="four.lf" horiz-adv-x="499" 
d="M164 0l11 62h96l17 102h-268l-17 58c117 113 221 272 248 395c36 12 67 1 67 -40c0 -81 -116 -259 -213 -349h197l14 78c25 33 46 72 65 109h35l-33 -187h83l-11 -64h-81l-18 -102h79l-11 -62h-260z" />
    <glyph glyph-name="five.lf" horiz-adv-x="509" 
d="M221 -12c-104 0 -201 50 -201 117c0 34 24 58 58 58c33 0 50 -23 50 -50c0 -10 -3 -21 -8 -30c18 -12 49 -27 94 -27c88 0 160 52 160 150c0 79 -47 115 -111 115c-65 0 -118 -37 -146 -68l-54 28c42 97 70 206 91 328h334c12 -52 -7 -83 -73 -83c-48 0 -150 11 -202 13
c-11 -57 -27 -127 -53 -191c36 24 77 40 125 40c91 0 177 -57 177 -178c0 -128 -95 -222 -241 -222z" />
    <glyph glyph-name="six.lf" horiz-adv-x="522" 
d="M236 -12c-113 0 -193 61 -193 216c0 168 93 417 296 417c89 0 160 -48 160 -104c0 -27 -16 -58 -56 -58c-34 0 -55 23 -55 48c0 10 4 23 13 32c-13 7 -32 17 -63 17c-105 0 -168 -115 -197 -239c35 41 90 73 163 73c102 0 168 -62 168 -172c0 -127 -89 -230 -236 -230z
M237 54c87 0 147 69 147 160c0 68 -33 114 -103 114c-84 0 -154 -65 -154 -158c0 -65 35 -116 110 -116z" />
    <glyph glyph-name="seven.lf" horiz-adv-x="472" 
d="M198 -13c-30 0 -47 13 -47 50c0 119 142 355 252 487c-66 -20 -115 21 -180 21c-61 0 -86 -37 -96 -99h-73l29 163h66l-10 -56c18 35 43 62 94 62c67 0 113 -50 176 -39c7 25 26 44 55 44c32 0 48 -21 48 -46c0 -20 -11 -35 -25 -55c-148 -194 -235 -337 -254 -526
c-12 -4 -23 -6 -35 -6z" />
    <glyph glyph-name="eight.lf" horiz-adv-x="529" 
d="M226 -12c-137 0 -201 68 -201 160c0 100 77 156 153 177c-46 21 -78 62 -78 121c0 91 77 175 219 175c123 0 180 -63 180 -142c0 -75 -50 -134 -128 -159c54 -19 102 -60 102 -138c0 -107 -92 -194 -247 -194zM230 53c98 0 156 62 156 135c0 60 -40 100 -118 100
c-95 0 -156 -58 -156 -135c0 -60 39 -100 118 -100zM316 557c-80 0 -133 -50 -133 -113c0 -52 35 -90 99 -90c77 0 133 55 133 119c0 51 -35 84 -99 84z" />
    <glyph glyph-name="nine.lf" horiz-adv-x="527" 
d="M218 -12c-82 0 -178 37 -178 103c0 35 26 57 57 57s52 -22 52 -50c0 -9 -3 -18 -8 -26c15 -9 43 -18 76 -18c109 0 162 108 185 245c-32 -43 -86 -79 -160 -79c-102 0 -174 66 -174 177c0 124 90 224 234 224c124 0 196 -72 196 -225c0 -138 -58 -408 -280 -408zM302 554
c-87 0 -146 -69 -146 -155c0 -68 36 -116 107 -116c83 0 151 68 151 156c0 64 -37 115 -112 115z" />
    <glyph glyph-name="colon" unicode=":" horiz-adv-x="229" 
d="M78 -9c-31 0 -57 25 -57 56s26 57 57 57s56 -26 56 -57s-25 -56 -56 -56zM132 294c-31 0 -57 25 -57 57c0 31 26 56 57 56s56 -25 56 -56c0 -32 -25 -57 -56 -57z" />
    <glyph glyph-name="semicolon" unicode=";" horiz-adv-x="239" 
d="M137 294c-31 0 -56 25 -56 57c0 31 25 56 56 56s57 -25 57 -56c0 -32 -26 -57 -57 -57zM84 104c32 0 55 -26 55 -59c0 -54 -63 -126 -126 -171l-31 32c39 34 69 67 81 94c-21 6 -36 26 -36 48c0 29 24 56 57 56z" />
    <glyph glyph-name="exclam" unicode="!" horiz-adv-x="252" 
d="M77 167l63 442h95l-93 -442h-65zM91 -9c-32 0 -58 26 -58 57c0 32 26 58 58 58s58 -26 58 -58c0 -31 -26 -57 -58 -57z" />
    <glyph glyph-name="exclamdown" unicode="&#xa1;" horiz-adv-x="231" 
d="M-7 -180l92 443h65l-63 -443h-94zM136 323c-31 0 -57 26 -57 58s26 58 57 58c32 0 58 -26 58 -58s-26 -58 -58 -58z" />
    <glyph glyph-name="question" unicode="?" horiz-adv-x="379" 
d="M100 167c-13 159 190 202 190 319c0 45 -28 69 -87 69c-42 0 -86 -11 -122 -23l11 68c38 11 83 21 127 21c92 0 159 -44 159 -130c0 -153 -210 -191 -201 -324h-77zM128 -9c-32 0 -58 26 -58 57c0 32 26 58 58 58s58 -26 58 -58c0 -31 -26 -57 -58 -57z" />
    <glyph glyph-name="questiondown" unicode="&#xbf;" horiz-adv-x="370" 
d="M140 -192c-93 0 -159 45 -159 130c0 154 210 191 200 325h77c13 -160 -190 -202 -190 -320c0 -44 29 -69 88 -69c41 0 86 12 122 23l-12 -67c-37 -12 -82 -22 -126 -22zM231 323c-32 0 -58 26 -58 58s26 58 58 58c31 0 57 -26 57 -58s-26 -58 -57 -58z" />
    <glyph glyph-name="parenleft" unicode="(" horiz-adv-x="270" 
d="M101 -198c-51 102 -75 235 -75 344c0 209 90 403 232 561h90c-141 -160 -240 -353 -240 -565c0 -106 25 -240 80 -340h-87z" />
    <glyph glyph-name="parenright" unicode=")" horiz-adv-x="271" 
d="M-78 -198c141 160 240 353 240 565c0 106 -24 240 -79 340h87c50 -102 74 -235 74 -344c0 -209 -90 -403 -232 -561h-90z" />
    <glyph glyph-name="braceleft" unicode="{" horiz-adv-x="301" 
d="M134 -212c-72 0 -100 44 -100 92c0 74 70 169 70 250c0 50 -27 85 -102 91l12 66c153 9 144 124 144 224c0 105 13 208 134 208c26 0 47 -5 64 -11l-9 -52c-13 4 -30 7 -45 7c-69 0 -66 -68 -66 -131c0 -124 8 -255 -136 -282c62 -14 81 -70 81 -118
c0 -96 -70 -189 -70 -251c0 -21 8 -36 41 -36c18 0 39 4 52 7l-9 -54c-21 -6 -40 -10 -61 -10z" />
    <glyph glyph-name="braceright" unicode="}" horiz-adv-x="301" 
d="M9 -212c-27 0 -47 5 -65 11l9 52c13 -4 30 -8 45 -8c69 0 66 68 66 131c0 125 -8 256 136 283c-62 13 -81 69 -81 118c0 96 70 189 70 251c0 21 -8 36 -41 36c-18 0 -39 -4 -52 -7l9 54c21 6 40 10 61 10c72 0 101 -45 101 -92c0 -74 -71 -169 -71 -250
c0 -50 27 -85 102 -91l-11 -66c-154 -9 -144 -124 -144 -224c0 -105 -14 -208 -134 -208z" />
    <glyph glyph-name="bracketleft" unicode="[" horiz-adv-x="296" 
d="M-2 -198l160 905h201l-11 -59h-122l-138 -787h122l-11 -59h-201z" />
    <glyph glyph-name="bracketright" unicode="]" horiz-adv-x="296" 
d="M-64 -198l11 59h122l138 787h-122l11 59h201l-160 -905h-201z" />
    <glyph glyph-name="slash" unicode="/" horiz-adv-x="544" 
d="M-55 -198l576 905h80l-575 -905h-81z" />
    <glyph glyph-name="backslash" unicode="\" horiz-adv-x="527" 
d="M350 -198l-256 905h81l256 -905h-81z" />
    <glyph glyph-name="bar" unicode="|" horiz-adv-x="236" 
d="M-2 -198l160 905h79l-160 -905h-79z" />
    <glyph glyph-name="brokenbar" unicode="&#xa6;" horiz-adv-x="239" 
d="M95 343l65 364h79l-65 -364h-79zM0 -198l71 400h79l-71 -400h-79z" />
    <glyph glyph-name="onesuperior" unicode="&#xb9;" horiz-adv-x="312" 
d="M78 399l10 58h88l47 267c-22 -15 -49 -29 -73 -29c-28 0 -39 20 -30 48l122 44h64l-59 -330h72l-11 -58h-230z" />
    <glyph glyph-name="twosuperior" unicode="&#xb2;" horiz-adv-x="388" 
d="M85 399l-12 43c82 54 260 146 260 245c0 32 -18 55 -67 55c-24 0 -47 -6 -64 -14c2 -4 3 -10 3 -17c0 -25 -18 -42 -44 -42c-27 0 -41 17 -41 38c0 46 69 88 154 88c75 0 132 -33 132 -105c0 -99 -111 -176 -217 -234h191l-11 -57h-284z" />
    <glyph glyph-name="threesuperior" unicode="&#xb3;" horiz-adv-x="364" 
d="M208 391c-65 0 -141 26 -141 74c0 23 16 45 47 45c25 0 39 -16 39 -35c0 -6 -2 -13 -5 -19c12 -6 35 -12 59 -12c57 0 91 32 91 72c0 42 -34 58 -88 58h-32l10 52h29c59 0 100 24 100 67c0 30 -20 49 -63 49c-21 0 -41 -5 -56 -10c1 -4 3 -9 3 -14c0 -24 -19 -40 -45 -40
c-25 0 -41 15 -41 37c0 48 72 80 146 80c82 0 130 -39 130 -97c0 -49 -34 -83 -91 -97c47 -13 71 -41 71 -85c0 -73 -68 -125 -163 -125z" />
    <glyph glyph-name="at" unicode="@" horiz-adv-x="762" 
d="M310 50c-72 0 -121 49 -121 132c0 115 96 225 213 225c66 0 97 -35 106 -71h3c7 15 21 44 28 55h51c-36 -81 -78 -183 -78 -247c0 -32 10 -52 38 -52c58 0 125 78 125 201c0 148 -92 240 -239 240c-176 0 -362 -152 -362 -345c0 -145 103 -257 254 -257
c62 0 123 20 177 53l18 -37c-62 -35 -128 -58 -198 -58c-177 0 -294 135 -294 299c0 218 205 388 409 388c161 0 277 -107 277 -281c0 -150 -84 -245 -180 -245c-71 0 -82 51 -81 74h-4c-34 -41 -84 -74 -142 -74zM327 103c78 0 147 85 147 174c0 51 -23 78 -68 78
c-79 0 -150 -83 -150 -171c0 -53 26 -81 71 -81z" />
    <glyph glyph-name="numbersign" unicode="#" horiz-adv-x="563" 
d="M72 12l37 116h-91l10 56h99l46 147h-93l11 56h101l37 117h66l-37 -117h128l37 117h67l-38 -117h95l-10 -56h-103l-47 -147h97l-10 -56h-105l-37 -116h-66l37 116h-128l-37 -116h-66zM194 184h128l46 147h-128z" />
    <glyph glyph-name="ampersand" unicode="&#x26;" horiz-adv-x="635" 
d="M203 -13c-108 0 -180 55 -180 156c0 103 75 154 156 196c-24 32 -48 73 -48 125c0 90 69 155 168 155c91 0 137 -54 137 -126c0 -87 -70 -134 -143 -172l112 -149c35 48 60 108 73 170h132l-12 -66h-63c-17 -56 -45 -115 -85 -164c28 -36 48 -54 76 -54c13 0 35 4 47 8
l-13 -69c-19 -6 -38 -8 -54 -8c-51 0 -85 27 -115 67c-50 -42 -113 -69 -188 -69zM210 58c51 0 98 21 138 55l-128 171c-65 -35 -114 -70 -114 -134c0 -52 33 -92 104 -92zM297 555c-42 0 -85 -28 -85 -84c0 -37 19 -66 41 -96c59 30 109 63 109 116c0 32 -20 64 -65 64z
" />
    <glyph glyph-name="section" unicode="&#xa7;" horiz-adv-x="430" 
d="M169 -88c-87 0 -164 43 -164 92c0 22 17 48 49 48c27 0 45 -17 45 -41c0 -10 -4 -19 -11 -28c15 -11 49 -19 79 -19c47 0 85 20 85 57c0 85 -209 77 -209 204c0 57 43 90 87 111c-19 19 -30 42 -30 74c0 82 74 125 155 125c67 0 150 -30 150 -87c0 -24 -15 -50 -49 -50
c-26 0 -45 17 -45 40c0 10 4 19 11 30c-14 8 -40 15 -67 15c-50 0 -83 -24 -83 -59c0 -89 205 -71 205 -202c0 -51 -31 -86 -87 -112c20 -19 33 -43 33 -77c0 -75 -64 -121 -154 -121zM248 141c27 12 56 31 56 66c0 53 -71 69 -129 99c-35 -15 -60 -35 -60 -65
c0 -52 73 -68 133 -100z" />
    <glyph glyph-name="paragraph" unicode="&#xb6;" horiz-adv-x="591" 
d="M112 -76l9 50h100l30 174h-44c-91 0 -166 65 -166 160c0 114 107 216 232 216h321l-9 -51h-85l-88 -499h85l-9 -50h-376zM281 -26h71l88 499h-71z" />
    <glyph glyph-name="dagger" unicode="&#x2020;" horiz-adv-x="459" 
d="M174 -79c-7 0 -11 7 -11 26c0 51 28 135 28 247c0 28 -2 80 -5 94c26 32 46 55 46 80c0 26 -14 43 -44 43c-31 0 -61 -20 -92 -20c-28 0 -40 16 -40 33c0 22 19 39 51 39c34 0 56 -20 87 -20c36 0 62 26 62 68c0 20 -7 41 -7 61c0 40 21 59 44 59c17 0 32 -11 32 -37
c0 -41 -39 -68 -39 -108c0 -24 14 -43 44 -43c31 0 62 20 94 20c27 0 39 -15 39 -32c0 -21 -19 -40 -52 -40c-34 0 -55 20 -87 20c-39 0 -61 -27 -61 -59c0 -22 11 -43 19 -64c-28 -50 -53 -148 -64 -214c-11 -71 -20 -153 -44 -153z" />
    <glyph glyph-name="daggerdbl" unicode="&#x2021;" horiz-adv-x="489" 
d="M188 -80c-17 0 -31 12 -31 37c0 43 38 68 38 109c0 24 -13 43 -43 43c-31 0 -62 -21 -94 -21c-27 0 -39 16 -39 32c0 22 19 40 51 40c34 0 56 -20 88 -20c38 0 61 28 61 62c0 20 -10 52 -17 74c25 34 47 68 47 93c0 24 -13 42 -44 42s-62 -20 -93 -20
c-27 0 -40 15 -40 33c0 22 20 39 51 39c35 0 56 -20 88 -20c36 0 62 26 62 68c0 20 -8 41 -8 60c0 40 22 60 45 60c17 0 32 -11 32 -37c0 -42 -39 -68 -39 -108c0 -24 13 -43 44 -43s61 20 93 20c27 0 40 -15 40 -32c0 -21 -18 -40 -51 -40c-35 0 -56 20 -88 20
c-38 0 -61 -27 -61 -61c0 -21 9 -52 16 -74c-25 -36 -47 -69 -47 -94c0 -24 13 -42 44 -42s62 20 94 20c27 0 39 -15 39 -33c0 -21 -18 -39 -51 -39c-35 0 -56 21 -87 21c-37 0 -62 -26 -62 -69c0 -20 7 -40 7 -60c0 -39 -22 -60 -45 -60z" />
    <glyph glyph-name="cent" unicode="&#xa2;" horiz-adv-x="454" 
d="M83 -70l-27 8l65 125c-55 26 -84 80 -84 154c0 124 81 233 223 233c22 0 41 -2 59 -8l45 86l26 -8l-46 -87c47 -22 71 -67 70 -128h-68c1 30 -7 58 -29 75l-143 -275c11 -4 22 -5 35 -5c62 0 100 41 117 92h71c-25 -89 -89 -145 -192 -145c-21 0 -41 2 -58 7zM150 118
l143 274c-10 4 -21 5 -33 5c-94 0 -151 -89 -151 -180c0 -45 14 -80 41 -99z" />
    <glyph glyph-name="sterling" unicode="&#xa3;" horiz-adv-x="526" 
d="M33 -3l-14 40c75 25 113 73 113 126c0 17 -5 38 -10 60h-87l6 35h72c-5 22 -9 46 -9 70c0 90 66 173 207 173c151 0 181 -96 174 -154h-79c5 42 -9 93 -96 93c-83 0 -124 -47 -124 -113c0 -23 4 -46 10 -69h172l-6 -35h-158c4 -19 8 -37 8 -53c0 -51 -29 -84 -48 -100
c45 -1 75 -15 125 -15c57 0 92 20 126 60l46 -43c-52 -59 -102 -80 -167 -80c-68 0 -111 22 -173 22c-30 0 -53 -5 -88 -17z" />
    <glyph glyph-name="yen" unicode="&#xa5;" horiz-adv-x="604" 
d="M135 0l10 57h79l13 71h-159l7 37h159l3 17l-29 59h-120l6 36h96l-73 154h-66l11 60h224l-11 -60h-74l84 -188l150 188h-74l11 60h230l-11 -60h-65l-128 -154h96l-6 -36h-121l-49 -59l-3 -17h160l-7 -37h-160l-12 -71h79l-10 -57h-240z" />
    <glyph glyph-name="dollar" unicode="$" horiz-adv-x="467" 
d="M158 -102l17 96c-91 9 -167 51 -167 104c0 26 18 51 51 51c29 0 48 -20 48 -42c0 -10 -4 -20 -9 -27c21 -12 49 -23 87 -27l28 163c-70 26 -146 56 -146 141c0 75 59 144 185 144h10l11 64h25l-12 -66c82 -9 149 -47 149 -95c0 -24 -15 -51 -49 -51c-29 0 -50 20 -50 45
c0 10 4 19 8 25c-16 7 -41 14 -69 17l-26 -156c71 -27 152 -55 152 -146c0 -75 -56 -146 -188 -146h-15l-15 -94h-25zM209 53c72 0 114 28 114 72c0 42 -40 63 -88 82zM252 441c-70 -1 -107 -31 -107 -71s37 -59 81 -77z" />
    <glyph glyph-name="Euro" unicode="&#x20ac;" horiz-adv-x="589" 
d="M324 -8c-120 0 -209 70 -220 194h-83l17 32h64c0 22 3 44 8 65h-72l17 32h64c37 107 135 185 279 185c70 0 131 -18 166 -35l-22 -123h-72l14 79c-21 6 -53 12 -85 12c-88 0 -160 -44 -194 -118h198l-17 -32h-193c-4 -20 -7 -40 -7 -65h166l-17 -32h-147
c11 -77 60 -124 149 -124c63 0 121 22 170 48l-13 -74c-49 -25 -108 -44 -170 -44z" />
    <glyph glyph-name="currency" unicode="&#xa4;" horiz-adv-x="568" 
d="M257 55c-46 0 -85 13 -117 37l-66 -56l-39 47l65 53c-19 29 -30 65 -30 105c0 63 26 117 66 157l-51 60l50 42l49 -63c39 24 84 38 130 38c45 0 85 -14 116 -38l67 58l38 -47l-66 -54c20 -29 31 -65 31 -105c0 -62 -26 -117 -65 -158l52 -59l-50 -42l-50 63
c-39 -25 -84 -38 -130 -38zM261 118c93 0 172 78 172 171c0 73 -47 123 -123 123c-93 0 -173 -78 -173 -172c0 -72 50 -122 124 -122z" />
    <glyph glyph-name="percent" unicode="%" horiz-adv-x="652" 
d="M161 233c-68 0 -104 40 -104 107c0 75 46 144 136 144c68 0 104 -39 104 -106c0 -75 -45 -145 -136 -145zM165 281c41 0 70 38 70 94c0 41 -15 62 -46 62c-41 0 -70 -39 -70 -94c0 -41 16 -62 46 -62zM456 0c-69 0 -105 40 -105 106c0 76 47 145 137 145
c67 0 103 -39 103 -106c0 -75 -45 -145 -135 -145zM460 47c40 0 69 38 69 94c0 41 -15 62 -46 62c-41 0 -69 -38 -69 -94c0 -41 15 -62 46 -62zM101 0l-34 33l480 450l33 -34z" />
    <glyph glyph-name="perthousand" unicode="&#x2030;" horiz-adv-x="897" 
d="M168 233c-68 0 -104 40 -104 107c0 75 46 144 136 144c68 0 104 -39 104 -106c0 -75 -46 -145 -136 -145zM172 281c41 0 70 38 70 94c0 41 -16 62 -47 62c-40 0 -69 -39 -69 -94c0 -41 15 -62 46 -62zM439 0c-69 0 -104 40 -104 106c0 76 46 145 136 145
c67 0 104 -39 104 -106c0 -75 -46 -145 -136 -145zM443 47c41 0 70 38 70 94c0 41 -16 62 -47 62c-40 0 -69 -38 -69 -94c0 -41 15 -62 46 -62zM97 0l-34 33l480 450l33 -34zM709 0c-68 0 -104 40 -104 106c0 76 46 145 136 145c68 0 104 -39 104 -106
c0 -75 -46 -145 -136 -145zM713 47c41 0 70 38 70 94c0 41 -16 62 -46 62c-41 0 -70 -38 -70 -94c0 -41 15 -62 46 -62z" />
    <glyph glyph-name="guillemotleft" unicode="&#xab;" horiz-adv-x="539" 
d="M152 75l-119 182l1 4l183 181h100l-196 -191l120 -176h-89zM376 75l-119 182l1 4l183 181h101l-197 -191l120 -176h-89z" />
    <glyph glyph-name="guillemotright" unicode="&#xbb;" horiz-adv-x="541" 
d="M225 75l196 192l-120 175h89l120 -181l-1 -4l-183 -182h-101zM1 75l196 192l-120 175h89l119 -181l-1 -4l-183 -182h-100z" />
    <glyph glyph-name="guilsinglleft" unicode="&#x2039;" horiz-adv-x="315" 
d="M152 75l-119 182l1 4l183 181h100l-196 -191l120 -176h-89z" />
    <glyph glyph-name="guilsinglright" unicode="&#x203a;" horiz-adv-x="316" 
d="M1 75l196 192l-120 175h89l119 -181l-1 -4l-183 -182h-100z" />
    <glyph glyph-name="copyright" unicode="&#xa9;" horiz-adv-x="723" 
d="M363 -53c-175 0 -317 142 -317 317s142 317 317 317s317 -142 317 -317s-142 -317 -317 -317zM363 -13c154 0 277 124 277 277s-123 277 -277 277c-153 0 -277 -124 -277 -277s124 -277 277 -277zM370 83c-106 0 -180 69 -180 181c0 111 73 182 184 182
c49 0 92 -14 120 -26v-98h-54v64c-17 6 -38 10 -62 10c-78 0 -126 -49 -126 -128c0 -77 44 -134 125 -134c44 0 85 16 116 34v-54c-31 -18 -75 -31 -123 -31z" />
    <glyph glyph-name="registered" unicode="&#xae;" horiz-adv-x="419" 
d="M238 260c-93 0 -167 75 -167 167c0 93 74 167 167 167c92 0 167 -74 167 -167c0 -92 -75 -167 -167 -167zM238 288c77 0 140 62 140 139s-63 141 -140 141c-78 0 -140 -64 -140 -141s62 -139 140 -139zM160 348v23h24v112h-24v24h86c42 0 64 -22 64 -49
c0 -25 -18 -40 -35 -45l25 -42h24v-23h-45l-34 59h-30v-36h24v-23h-79zM215 431h30c21 0 33 10 33 27c0 15 -11 25 -33 25h-30v-52z" />
    <glyph glyph-name="trademark" unicode="&#x2122;" horiz-adv-x="713" 
d="M338 361l6 30h33l39 187h-34l5 31h86l44 -178l106 178h86l-5 -32h-34l-26 -186h33l-6 -30h-106l6 30h35l22 161l-103 -171h-29l-46 174l-34 -164h36l-6 -30h-108zM134 361l6 30h37l32 184h-55l-8 -44h-35l13 78h224l-13 -78h-35l8 44h-56l-32 -184h36l-6 -30h-116z" />
    <glyph glyph-name="asciicircum" unicode="^" horiz-adv-x="443" 
d="M53 338l213 290h47l110 -290h-76l-69 205l-142 -205h-83z" />
    <glyph glyph-name="asterisk" unicode="*" horiz-adv-x="383" 
d="M196 324c-16 2 -30 14 -25 39c4 19 33 62 53 104h5c2 -45 12 -92 7 -111c-5 -24 -24 -34 -40 -32zM263 639c16 -2 30 -14 25 -38c-4 -19 -33 -62 -53 -105l-5 1c-1 45 -11 92 -7 111c6 23 25 33 40 31zM77 417c-5 15 0 34 23 44c19 8 69 10 115 17l1 -5
c-39 -27 -77 -63 -95 -70c-24 -11 -39 -1 -44 14zM383 547c5 -15 0 -34 -24 -44c-18 -8 -68 -10 -114 -17l-2 4c39 28 77 64 95 71c24 10 40 1 45 -14zM349 389c-11 -13 -30 -20 -49 -5c-14 10 -36 53 -61 87l4 4c40 -16 87 -28 101 -39c19 -14 16 -34 5 -47zM110 575
c11 13 31 19 49 5c14 -10 36 -53 62 -87l-4 -4c-41 16 -88 28 -102 39c-18 14 -16 34 -5 47z" />
    <glyph glyph-name="degree" unicode="&#xb0;" horiz-adv-x="371" 
d="M212 348c-77 0 -136 56 -136 134c0 90 77 162 166 162c77 0 136 -54 136 -132c0 -90 -78 -164 -166 -164zM213 402c59 0 108 51 108 108c0 45 -31 81 -79 81c-60 0 -109 -51 -109 -107c0 -43 28 -82 80 -82z" />
    <glyph glyph-name="quotesingle" unicode="'" horiz-adv-x="195" 
d="M83 399l39 223h78l-39 -223h-78z" />
    <glyph glyph-name="quotedbl" unicode="&#x22;" horiz-adv-x="353" 
d="M83 399l39 223h78l-39 -223h-78zM241 399l39 223h78l-39 -223h-78z" />
    <glyph glyph-name="quoteleft" unicode="&#x2018;" horiz-adv-x="209" 
d="M132 411c-33 0 -56 25 -56 58c0 55 64 127 127 172l31 -32c-40 -35 -70 -67 -81 -94c21 -7 36 -26 36 -48c0 -30 -25 -56 -57 -56z" />
    <glyph glyph-name="quoteright" unicode="&#x2019;" horiz-adv-x="206" 
d="M172 641c33 0 56 -26 56 -59c0 -54 -64 -126 -127 -171l-31 32c40 34 70 67 81 93c-21 7 -36 26 -36 49c0 29 25 56 57 56z" />
    <glyph glyph-name="comma" unicode="," horiz-adv-x="222" 
d="M77 104c33 0 56 -26 56 -59c0 -54 -64 -126 -127 -171l-31 32c39 34 70 67 81 94c-21 6 -36 26 -36 48c0 29 24 56 57 56z" />
    <glyph glyph-name="quotesinglbase" unicode="&#x201a;" horiz-adv-x="222" 
d="M77 104c33 0 56 -26 56 -59c0 -54 -64 -126 -127 -171l-31 32c39 34 70 67 81 94c-21 6 -36 26 -36 48c0 29 24 56 57 56z" />
    <glyph glyph-name="quotedblbase" unicode="&#x201e;" horiz-adv-x="398" 
d="M77 104c33 0 56 -26 56 -59c0 -54 -64 -126 -127 -171l-31 32c39 34 70 67 81 94c-21 6 -36 26 -36 48c0 29 24 56 57 56zM253 104c32 0 55 -26 55 -59c0 -54 -64 -126 -126 -171l-31 32c39 34 69 67 81 94c-21 6 -36 26 -36 48c0 29 24 56 57 56z" />
    <glyph glyph-name="quotedblleft" unicode="&#x201c;" horiz-adv-x="385" 
d="M308 411c-33 0 -56 25 -56 58c0 55 64 127 126 172l32 -32c-40 -35 -70 -67 -81 -94c21 -7 36 -26 36 -48c0 -30 -25 -56 -57 -56zM132 411c-33 0 -56 25 -56 58c0 55 64 127 127 172l31 -32c-40 -35 -70 -67 -81 -94c21 -7 36 -26 36 -48c0 -30 -25 -56 -57 -56z" />
    <glyph glyph-name="quotedblright" unicode="&#x201d;" horiz-adv-x="381" 
d="M172 641c33 0 56 -26 56 -59c0 -54 -64 -126 -127 -171l-31 32c40 34 70 67 81 93c-21 7 -36 26 -36 49c0 29 25 56 57 56zM348 641c32 0 56 -26 56 -59c0 -54 -64 -126 -127 -171l-31 32c39 34 70 67 81 93c-21 7 -36 26 -36 49c0 29 24 56 57 56z" />
    <glyph glyph-name="period" unicode="." horiz-adv-x="212" 
d="M71 -9c-31 0 -56 25 -56 56s25 57 56 57s56 -26 56 -57s-25 -56 -56 -56z" />
    <glyph glyph-name="ellipsis" unicode="&#x2026;" horiz-adv-x="786" 
d="M71 -9c-31 0 -56 25 -56 56s25 57 56 57s56 -26 56 -57s-25 -56 -56 -56zM358 -9c-31 0 -56 25 -56 56s25 57 56 57s56 -26 56 -57s-25 -56 -56 -56zM645 -9c-31 0 -56 25 -56 56s25 57 56 57s57 -26 57 -57s-26 -56 -57 -56z" />
    <glyph glyph-name="periodcentered" unicode="&#xb7;" horiz-adv-x="222" 
d="M110 193c-32 0 -58 26 -58 58s26 58 58 58c31 0 58 -26 58 -58s-27 -58 -58 -58z" />
    <glyph glyph-name="bullet" unicode="&#x2022;" horiz-adv-x="357" 
d="M183 184c-61 0 -111 49 -111 111c0 61 50 110 111 110s111 -49 111 -110c0 -62 -50 -111 -111 -111z" />
    <glyph glyph-name="underscore" unicode="_" horiz-adv-x="526" 
d="M-4 -88l10 55h412l-10 -55h-412z" />
    <glyph glyph-name="hyphen" unicode="-" horiz-adv-x="387" 
d="M46 195l13 74h274l-13 -74h-274z" />
    <glyph glyph-name="uni00AD" unicode="&#xad;" horiz-adv-x="387" 
d="M46 195l13 74h274l-13 -74h-274z" />
    <glyph glyph-name="endash" unicode="&#x2013;" horiz-adv-x="621" 
d="M46 195l13 74h508l-13 -74h-508z" />
    <glyph glyph-name="emdash" unicode="&#x2014;" horiz-adv-x="831" 
d="M46 195l13 74h718l-13 -74h-718z" />
    <glyph glyph-name="ordfeminine" unicode="&#xaa;" horiz-adv-x="367" 
d="M40 202l7 43h276l-8 -43h-275zM142 295c-44 0 -82 22 -82 77c0 71 66 98 145 98h55l4 22c7 38 -6 54 -52 54c-36 0 -72 -10 -102 -20l9 51c31 11 67 19 106 19c71 0 117 -28 104 -103l-25 -140h41l-9 -51h-102l7 34c-24 -19 -56 -41 -99 -41zM163 341c34 0 62 22 82 41
l8 47h-50c-43 0 -78 -15 -78 -53c0 -23 14 -35 38 -35z" />
    <glyph glyph-name="ordmasculine" unicode="&#xba;" horiz-adv-x="371" 
d="M39 202l7 43h273l-7 -43h-273zM199 295c-83 0 -133 44 -133 128c0 95 65 173 174 173c81 0 131 -43 131 -129c0 -95 -61 -172 -172 -172zM202 344c64 0 100 59 100 123c0 47 -20 80 -67 80c-63 0 -101 -59 -101 -124c0 -47 20 -79 68 -79z" />
    <glyph glyph-name="mu" unicode="&#xb5;" horiz-adv-x="597" 
d="M26 -199l99 558h-74l12 69h159l-52 -289c-8 -47 3 -81 49 -81c51 0 108 43 151 81l52 289h85l-58 -329c-6 -32 4 -47 33 -47c18 0 38 6 52 11l-11 -62c-19 -6 -44 -11 -70 -11c-60 0 -88 31 -90 77c-45 -38 -107 -78 -172 -78c-22 0 -41 6 -54 18l-26 -206h-85z" />
    <glyph glyph-name="fraction" unicode="&#x2044;" horiz-adv-x="382" 
d="M-6 -15l-41 27l454 611l40 -26z" />
    <glyph glyph-name="notequal" unicode="&#x2260;" horiz-adv-x="574" 
d="M105 -78l-40 21l94 146h-109l12 69h142l101 157h-216l13 69h248l109 169l41 -21l-96 -148h113l-13 -69h-145l-101 -157h219l-12 -69h-252z" />
    <glyph glyph-name="equal" unicode="=" horiz-adv-x="535" 
d="M31 89l12 69h415l-12 -69h-415zM71 315l12 69h415l-13 -69h-414z" />
    <glyph glyph-name="approxequal" unicode="&#x2248;" horiz-adv-x="593" 
d="M107 271l-47 24c40 68 86 141 167 141c88 0 128 -86 192 -86c51 0 87 56 107 89l46 -25c-33 -61 -85 -140 -161 -140c-79 0 -120 89 -192 89c-53 0 -83 -48 -112 -92zM72 69l-47 24c40 68 86 142 167 142c88 0 128 -87 192 -87c51 0 86 56 106 89l47 -25
c-33 -61 -85 -140 -161 -140c-80 0 -120 89 -193 89c-53 0 -82 -48 -111 -92z" />
    <glyph glyph-name="asciitilde" unicode="~" horiz-adv-x="590" 
d="M87 171l-48 23c41 68 87 142 168 142c87 0 128 -86 191 -86c52 0 87 56 107 89l47 -25c-34 -61 -86 -140 -162 -140c-79 0 -120 88 -192 88c-53 0 -83 -47 -111 -91z" />
    <glyph glyph-name="logicalnot" unicode="&#xac;" horiz-adv-x="505" 
d="M358 132l25 144h-322l11 57h382l-36 -201h-60z" />
    <glyph glyph-name="multiply" unicode="&#xd7;" horiz-adv-x="482" 
d="M54 39l-42 51l176 150l-122 148l56 48l122 -149l178 152l43 -51l-178 -151l125 -151l-56 -47l-125 151z" />
    <glyph glyph-name="divide" unicode="&#xf7;" horiz-adv-x="507" 
d="M38 208l11 63h415l-11 -63h-415zM223 29c-31 0 -56 25 -56 55c0 31 25 56 56 56s55 -25 55 -56c0 -30 -24 -55 -55 -55zM278 339c-31 0 -56 25 -56 55c0 31 25 56 56 56s55 -25 55 -56c0 -30 -24 -55 -55 -55z" />
    <glyph glyph-name="plus" unicode="+" horiz-adv-x="479" 
d="M165 30l31 174h-173l12 66h172l31 175h70l-31 -175h173l-12 -66h-173l-30 -174h-70z" />
    <glyph glyph-name="minus" unicode="&#x2212;" horiz-adv-x="536" 
d="M51 204l12 66h415l-12 -66h-415z" />
    <glyph glyph-name="plusminus" unicode="&#xb1;" horiz-adv-x="530" 
d="M208 137l25 142h-172l12 64h172l25 144h69l-24 -144h173l-12 -64h-173l-25 -142h-70zM16 24l12 65h415l-12 -65h-415z" />
    <glyph glyph-name="lessequal" unicode="&#x2264;" horiz-adv-x="498" 
d="M14 32l11 57h386l-10 -57h-387zM417 120l-361 150l8 44l413 149l-12 -68l-302 -106l266 -103z" />
    <glyph glyph-name="greaterequal" unicode="&#x2265;" horiz-adv-x="494" 
d="M17 32l10 57h387l-10 -57h-387zM33 120l12 68l302 107l-266 102l12 66l361 -149l-8 -44z" />
    <glyph glyph-name="less" unicode="&#x3c;" horiz-adv-x="452" 
d="M360 29l-337 189l6 39l404 189l-13 -78l-296 -133l249 -133z" />
    <glyph glyph-name="greater" unicode="&#x3e;" horiz-adv-x="452" 
d="M13 28l13 77l296 134l-249 133l13 73l337 -189l-6 -39z" />
    <glyph glyph-name="agrave" unicode="&#xe0;" 
d="M190 -11c-93 0 -165 68 -165 195c0 152 104 255 224 255c66 0 111 -33 135 -81l13 70h85l-57 -326c-6 -31 4 -46 33 -46c18 0 38 6 52 11l-12 -66c-19 -6 -44 -11 -68 -11c-59 0 -85 29 -87 76c-37 -46 -90 -77 -153 -77zM217 55c87 0 151 88 151 189
c0 78 -37 129 -104 129c-86 0 -151 -83 -151 -188c0 -82 40 -130 104 -130zM334 505l-163 130l56 61l139 -157z" />
    <glyph glyph-name="aacute" unicode="&#xe1;" 
d="M190 -11c-93 0 -165 68 -165 195c0 152 104 255 224 255c66 0 111 -33 135 -81l13 70h85l-57 -326c-6 -31 4 -46 33 -46c18 0 38 6 52 11l-12 -66c-19 -6 -44 -11 -68 -11c-59 0 -85 29 -87 76c-37 -46 -90 -77 -153 -77zM217 55c87 0 151 88 151 189
c0 78 -37 129 -104 129c-86 0 -151 -83 -151 -188c0 -82 40 -130 104 -130zM259 504l-27 35l171 156l50 -63z" />
    <glyph glyph-name="acircumflex" unicode="&#xe2;" 
d="M190 -11c-93 0 -165 68 -165 195c0 152 104 255 224 255c66 0 111 -33 135 -81l13 70h85l-57 -326c-6 -31 4 -46 33 -46c18 0 38 6 52 11l-12 -66c-19 -6 -44 -11 -68 -11c-59 0 -85 29 -87 76c-37 -46 -90 -77 -153 -77zM217 55c87 0 151 88 151 189
c0 78 -37 129 -104 129c-86 0 -151 -83 -151 -188c0 -82 40 -130 104 -130zM153 501l-18 27l161 133h55l106 -134l-22 -26l-125 78z" />
    <glyph glyph-name="atilde" unicode="&#xe3;" 
d="M190 -11c-93 0 -165 68 -165 195c0 152 104 255 224 255c66 0 111 -33 135 -81l13 70h85l-57 -326c-6 -31 4 -46 33 -46c18 0 38 6 52 11l-12 -66c-19 -6 -44 -11 -68 -11c-59 0 -85 29 -87 76c-37 -46 -90 -77 -153 -77zM217 55c87 0 151 88 151 189
c0 78 -37 129 -104 129c-86 0 -151 -83 -151 -188c0 -82 40 -130 104 -130zM164 508l-32 18c18 35 58 107 119 107c52 0 84 -51 132 -51c33 0 52 23 71 53l31 -19c-19 -37 -63 -107 -120 -107c-50 0 -87 52 -131 52c-27 0 -48 -20 -70 -53z" />
    <glyph glyph-name="adieresis" unicode="&#xe4;" 
d="M190 -11c-93 0 -165 68 -165 195c0 152 104 255 224 255c66 0 111 -33 135 -81l13 70h85l-57 -326c-6 -31 4 -46 33 -46c18 0 38 6 52 11l-12 -66c-19 -6 -44 -11 -68 -11c-59 0 -85 29 -87 76c-37 -46 -90 -77 -153 -77zM217 55c87 0 151 88 151 189
c0 78 -37 129 -104 129c-86 0 -151 -83 -151 -188c0 -82 40 -130 104 -130zM211 509c-29 0 -53 23 -53 53c0 29 24 53 53 53s53 -24 53 -53c0 -30 -24 -53 -53 -53zM393 509c-29 0 -53 23 -53 53c0 29 24 53 53 53s53 -24 53 -53c0 -30 -24 -53 -53 -53z" />
    <glyph glyph-name="aring" unicode="&#xe5;" 
d="M190 -11c-93 0 -165 68 -165 195c0 152 104 255 224 255c66 0 111 -33 135 -81l13 70h85l-57 -326c-6 -31 4 -46 33 -46c18 0 38 6 52 11l-12 -66c-19 -6 -44 -11 -68 -11c-59 0 -85 29 -87 76c-37 -46 -90 -77 -153 -77zM217 55c87 0 151 88 151 189
c0 78 -37 129 -104 129c-86 0 -151 -83 -151 -188c0 -82 40 -130 104 -130zM302 500c-68 0 -106 39 -106 95c0 60 45 120 130 120c68 0 106 -39 106 -94c0 -61 -45 -121 -130 -121zM305 550c38 0 61 34 61 68c0 26 -13 47 -44 47c-38 0 -61 -34 -61 -68c0 -26 13 -47 44 -47
z" />
    <glyph glyph-name="amacron" unicode="&#x101;" 
d="M190 -11c-93 0 -165 68 -165 195c0 152 104 255 224 255c66 0 111 -33 135 -81l13 70h85l-57 -326c-6 -31 4 -46 33 -46c18 0 38 6 52 11l-12 -66c-19 -6 -44 -11 -68 -11c-59 0 -85 29 -87 76c-37 -46 -90 -77 -153 -77zM217 55c87 0 151 88 151 189
c0 78 -37 129 -104 129c-86 0 -151 -83 -151 -188c0 -82 40 -130 104 -130zM159 522l11 65h270l-11 -65h-270z" />
    <glyph glyph-name="abreve" unicode="&#x103;" 
d="M190 -11c-93 0 -165 68 -165 195c0 152 104 255 224 255c66 0 111 -33 135 -81l13 70h85l-57 -326c-6 -31 4 -46 33 -46c18 0 38 6 52 11l-12 -66c-19 -6 -44 -11 -68 -11c-59 0 -85 29 -87 76c-37 -46 -90 -77 -153 -77zM217 55c87 0 151 88 151 189
c0 78 -37 129 -104 129c-86 0 -151 -83 -151 -188c0 -82 40 -130 104 -130zM301 509c-95 0 -136 64 -126 143h63c-3 -50 19 -76 69 -76c48 0 81 23 97 76h63c-19 -87 -78 -143 -166 -143z" />
    <glyph glyph-name="aogonek" unicode="&#x105;" 
d="M375 -202c-49 0 -87 21 -87 73c0 57 47 99 93 128c-25 12 -37 35 -38 67c-37 -46 -90 -77 -153 -77c-93 0 -165 68 -165 195c0 152 104 255 224 255c66 0 111 -33 135 -81l13 70h85l-57 -326c-6 -31 4 -46 33 -46c18 0 38 6 52 11l-12 -66c-17 -5 -38 -10 -60 -11
c-33 -25 -74 -62 -74 -102c0 -26 17 -35 40 -35c22 0 49 8 64 15l-4 -52c-22 -9 -56 -18 -89 -18zM217 55c87 0 151 88 151 189c0 78 -37 129 -104 129c-86 0 -151 -83 -151 -188c0 -82 40 -130 104 -130z" />
    <glyph glyph-name="ae" unicode="&#xe6;" horiz-adv-x="691" 
d="M132 -11c-74 0 -130 38 -130 116c0 106 103 140 231 140h65l7 37c10 60 -9 90 -85 90c-54 0 -110 -14 -148 -26l12 67c43 14 101 26 153 26c78 0 121 -29 132 -81c39 49 97 81 165 81c86 0 125 -49 125 -109c0 -121 -160 -144 -284 -147c0 -89 44 -127 119 -127
c53 0 97 17 137 36l-13 -71c-31 -16 -78 -32 -136 -32c-69 0 -127 23 -162 73c-44 -33 -113 -73 -188 -73zM155 54c53 0 105 30 142 57c-7 24 -9 49 -8 75h-49c-80 0 -152 -11 -152 -76c0 -37 25 -56 67 -56zM526 375c-69 0 -125 -53 -144 -130c94 2 200 18 200 85
c0 25 -15 45 -56 45z" />
    <glyph glyph-name="aeacute" unicode="&#x1fd;" horiz-adv-x="691" 
d="M132 -11c-74 0 -130 38 -130 116c0 106 103 140 231 140h65l7 37c10 60 -9 90 -85 90c-54 0 -110 -14 -148 -26l12 67c43 14 101 26 153 26c78 0 121 -29 132 -81c39 49 97 81 165 81c86 0 125 -49 125 -109c0 -121 -160 -144 -284 -147c0 -89 44 -127 119 -127
c53 0 97 17 137 36l-13 -71c-31 -16 -78 -32 -136 -32c-69 0 -127 23 -162 73c-44 -33 -113 -73 -188 -73zM155 54c53 0 105 30 142 57c-7 24 -9 49 -8 75h-49c-80 0 -152 -11 -152 -76c0 -37 25 -56 67 -56zM526 375c-69 0 -125 -53 -144 -130c94 2 200 18 200 85
c0 25 -15 45 -56 45zM368 504l-27 35l170 156l50 -63z" />
    <glyph glyph-name="ccedilla" unicode="&#xe7;" horiz-adv-x="409" 
d="M152 -202c-33 0 -64 6 -86 15l15 49c20 -8 43 -14 67 -14c32 0 53 9 53 32c0 29 -36 37 -72 37l5 20l38 56c-92 15 -147 82 -147 190c0 134 85 256 246 256c50 0 99 -12 130 -25l-13 -65c-27 12 -67 24 -108 24c-111 0 -167 -89 -167 -185c0 -82 42 -133 127 -133
c39 0 86 11 114 22l-12 -69c-28 -9 -74 -18 -117 -19l-21 -37c40 -6 72 -27 72 -71c0 -57 -55 -83 -124 -83z" />
    <glyph glyph-name="cacute" unicode="&#x107;" horiz-adv-x="409" 
d="M221 -11c-121 0 -196 69 -196 194c0 134 85 256 246 256c50 0 99 -12 130 -25l-13 -65c-27 12 -67 24 -108 24c-111 0 -167 -89 -167 -185c0 -82 42 -133 127 -133c39 0 86 11 114 22l-12 -69c-29 -9 -77 -19 -121 -19zM233 504l-27 35l170 156l50 -63z" />
    <glyph glyph-name="ccircumflex" unicode="&#x109;" horiz-adv-x="409" 
d="M221 -11c-121 0 -196 69 -196 194c0 134 85 256 246 256c50 0 99 -12 130 -25l-13 -65c-27 12 -67 24 -108 24c-111 0 -167 -89 -167 -185c0 -82 42 -133 127 -133c39 0 86 11 114 22l-12 -69c-29 -9 -77 -19 -121 -19zM135 501l-17 27l161 133h55l106 -134l-23 -26
l-125 78z" />
    <glyph glyph-name="cdotaccent" unicode="&#x10b;" horiz-adv-x="409" 
d="M221 -11c-121 0 -196 69 -196 194c0 134 85 256 246 256c50 0 99 -12 130 -25l-13 -65c-27 12 -67 24 -108 24c-111 0 -167 -89 -167 -185c0 -82 42 -133 127 -133c39 0 86 11 114 22l-12 -69c-29 -9 -77 -19 -121 -19zM299 509c-31 0 -57 26 -57 57s25 57 57 57
s58 -25 58 -57c0 -31 -26 -57 -58 -57z" />
    <glyph glyph-name="ccaron" unicode="&#x10d;" horiz-adv-x="409" 
d="M221 -11c-121 0 -196 69 -196 194c0 134 85 256 246 256c50 0 99 -12 130 -25l-13 -65c-27 12 -67 24 -108 24c-111 0 -167 -89 -167 -185c0 -82 42 -133 127 -133c39 0 86 11 114 22l-12 -69c-29 -9 -77 -19 -121 -19zM248 507l-107 134l22 26l127 -78l155 78l19 -26
l-161 -134h-55z" />
    <glyph glyph-name="dcaron" unicode="&#x10f;" 
d="M637 715c36 0 52 -25 52 -56c0 -54 -49 -112 -115 -159l-33 29c36 36 66 71 66 112c0 25 -11 40 -27 48l1 7c18 12 38 19 56 19zM190 -11c-93 0 -165 68 -165 195c0 152 104 255 224 255c66 0 110 -33 135 -80l50 280h-88l12 68h173l-106 -605c-6 -32 5 -46 33 -46
c18 0 38 6 52 11l-12 -66c-19 -6 -44 -11 -69 -11c-61 0 -84 30 -86 76c-37 -46 -90 -77 -153 -77zM217 55c87 0 151 88 151 189c0 78 -37 129 -104 129c-86 0 -151 -83 -151 -188c0 -82 40 -130 104 -130z" />
    <glyph glyph-name="dcroat" unicode="&#x111;" 
d="M259 509l10 58h151l14 72h-88l12 68h173l-24 -140h61l-10 -58h-62l-71 -407c-6 -32 5 -46 33 -46c18 0 38 6 52 11l-12 -66c-19 -6 -44 -11 -69 -11c-61 0 -84 30 -86 76c-37 -46 -90 -77 -153 -77c-93 0 -165 68 -165 195c0 152 104 255 224 255c66 0 110 -33 135 -80
l26 150h-151zM217 55c87 0 151 88 151 189c0 78 -37 129 -104 129c-86 0 -151 -83 -151 -188c0 -82 40 -130 104 -130z" />
    <glyph glyph-name="egrave" unicode="&#xe8;" horiz-adv-x="427" 
d="M218 -11c-111 0 -194 61 -194 192c0 149 107 258 241 258c86 0 131 -45 131 -109c0 -116 -146 -154 -287 -161c5 -79 48 -113 120 -113c50 0 97 17 138 36l-14 -71c-34 -18 -82 -32 -135 -32zM113 233c101 4 204 29 204 95c0 25 -14 47 -56 47c-71 0 -130 -59 -148 -142z
M303 505l-163 130l56 61l139 -157z" />
    <glyph glyph-name="eacute" unicode="&#xe9;" horiz-adv-x="427" 
d="M218 -11c-111 0 -194 61 -194 192c0 149 107 258 241 258c86 0 131 -45 131 -109c0 -116 -146 -154 -287 -161c5 -79 48 -113 120 -113c50 0 97 17 138 36l-14 -71c-34 -18 -82 -32 -135 -32zM113 233c101 4 204 29 204 95c0 25 -14 47 -56 47c-71 0 -130 -59 -148 -142z
M224 504l-27 35l170 156l50 -63z" />
    <glyph glyph-name="ecircumflex" unicode="&#xea;" horiz-adv-x="427" 
d="M218 -11c-111 0 -194 61 -194 192c0 149 107 258 241 258c86 0 131 -45 131 -109c0 -116 -146 -154 -287 -161c5 -79 48 -113 120 -113c50 0 97 17 138 36l-14 -71c-34 -18 -82 -32 -135 -32zM113 233c101 4 204 29 204 95c0 25 -14 47 -56 47c-71 0 -130 -59 -148 -142z
M123 501l-18 27l161 133h55l106 -134l-22 -26l-125 78z" />
    <glyph glyph-name="edieresis" unicode="&#xeb;" horiz-adv-x="427" 
d="M218 -11c-111 0 -194 61 -194 192c0 149 107 258 241 258c86 0 131 -45 131 -109c0 -116 -146 -154 -287 -161c5 -79 48 -113 120 -113c50 0 97 17 138 36l-14 -71c-34 -18 -82 -32 -135 -32zM113 233c101 4 204 29 204 95c0 25 -14 47 -56 47c-71 0 -130 -59 -148 -142z
M181 509c-30 0 -53 23 -53 53c0 29 23 53 53 53c29 0 52 -24 52 -53c0 -30 -23 -53 -52 -53zM363 509c-30 0 -53 23 -53 53c0 29 23 53 53 53c29 0 53 -24 53 -53c0 -30 -24 -53 -53 -53z" />
    <glyph glyph-name="emacron" unicode="&#x113;" horiz-adv-x="427" 
d="M218 -11c-111 0 -194 61 -194 192c0 149 107 258 241 258c86 0 131 -45 131 -109c0 -116 -146 -154 -287 -161c5 -79 48 -113 120 -113c50 0 97 17 138 36l-14 -71c-34 -18 -82 -32 -135 -32zM113 233c101 4 204 29 204 95c0 25 -14 47 -56 47c-71 0 -130 -59 -148 -142z
M131 522l11 65h271l-12 -65h-270z" />
    <glyph glyph-name="ebreve" unicode="&#x115;" horiz-adv-x="427" 
d="M218 -11c-111 0 -194 61 -194 192c0 149 107 258 241 258c86 0 131 -45 131 -109c0 -116 -146 -154 -287 -161c5 -79 48 -113 120 -113c50 0 97 17 138 36l-14 -71c-34 -18 -82 -32 -135 -32zM113 233c101 4 204 29 204 95c0 25 -14 47 -56 47c-71 0 -130 -59 -148 -142z
M271 509c-95 0 -136 64 -126 143h63c-3 -50 19 -76 69 -76c48 0 81 23 97 76h63c-19 -87 -78 -143 -166 -143z" />
    <glyph glyph-name="edotaccent" unicode="&#x117;" horiz-adv-x="427" 
d="M218 -11c-111 0 -194 61 -194 192c0 149 107 258 241 258c86 0 131 -45 131 -109c0 -116 -146 -154 -287 -161c5 -79 48 -113 120 -113c50 0 97 17 138 36l-14 -71c-34 -18 -82 -32 -135 -32zM113 233c101 4 204 29 204 95c0 25 -14 47 -56 47c-71 0 -130 -59 -148 -142z
M282 509c-31 0 -57 26 -57 57s26 57 57 57c32 0 58 -25 58 -57c0 -31 -25 -57 -58 -57z" />
    <glyph glyph-name="eogonek" unicode="&#x119;" horiz-adv-x="427" 
d="M233 -202c-50 0 -88 22 -88 73c0 49 35 89 77 119c-115 -4 -198 60 -198 191c0 149 107 258 241 258c86 0 131 -45 131 -109c0 -116 -146 -154 -287 -161c4 -78 48 -113 120 -113c50 0 97 17 138 36l-14 -71c-64 -34 -132 -79 -132 -133c0 -27 17 -35 39 -35s49 8 65 15
l-4 -52c-22 -9 -56 -18 -88 -18zM261 375c-71 0 -130 -59 -148 -142c101 4 204 29 204 95c0 25 -14 47 -56 47z" />
    <glyph glyph-name="ecaron" unicode="&#x11b;" horiz-adv-x="427" 
d="M218 -11c-111 0 -194 61 -194 192c0 149 107 258 241 258c86 0 131 -45 131 -109c0 -116 -146 -154 -287 -161c5 -79 48 -113 120 -113c50 0 97 17 138 36l-14 -71c-34 -18 -82 -32 -135 -32zM113 233c101 4 204 29 204 95c0 25 -14 47 -56 47c-71 0 -130 -59 -148 -142z
M237 507l-108 134l23 26l126 -78l156 78l19 -26l-161 -134h-55z" />
    <glyph glyph-name="eth" unicode="&#xf0;" horiz-adv-x="509" 
d="M212 -11c-119 0 -188 74 -188 187c0 138 102 245 230 245c64 0 106 -27 131 -60c-5 84 -36 157 -85 218l-119 -79l-19 34l112 75c-24 24 -50 46 -79 66l53 49c33 -21 65 -45 93 -73l95 63l20 -34l-88 -58c64 -77 105 -179 105 -306c0 -220 -117 -327 -261 -327zM218 55
c90 0 155 80 155 181c0 74 -35 120 -104 120c-93 0 -156 -81 -156 -181c0 -76 38 -120 105 -120z" />
    <glyph glyph-name="gcircumflex" unicode="&#x11d;" horiz-adv-x="450" 
d="M133 -210c-161 0 -203 59 -203 111c0 76 87 119 139 142c-7 9 -10 19 -10 31c0 28 17 50 39 68c-35 24 -56 62 -56 113c0 96 78 184 195 184c24 0 47 -4 67 -11h163l-13 -68l-75 3c11 -18 18 -40 18 -66c0 -96 -78 -184 -195 -184c-19 0 -37 2 -54 7
c-9 -9 -14 -17 -14 -24c0 -25 54 -41 109 -66c55 -24 108 -57 108 -117c0 -51 -41 -123 -218 -123zM238 377c-71 0 -116 -59 -116 -122c0 -48 27 -80 79 -80c70 0 116 58 116 122c0 47 -27 80 -79 80zM138 -145c97 0 129 29 129 53s-34 44 -94 69c-21 9 -43 18 -61 28
c-42 -19 -99 -50 -99 -92c0 -30 31 -58 125 -58zM125 501l-18 27l161 133h55l106 -134l-22 -26l-126 78z" />
    <glyph glyph-name="gbreve" unicode="&#x11f;" horiz-adv-x="450" 
d="M133 -210c-161 0 -203 59 -203 111c0 76 87 119 139 142c-7 9 -10 19 -10 31c0 28 17 50 39 68c-35 24 -56 62 -56 113c0 96 78 184 195 184c24 0 47 -4 67 -11h163l-13 -68l-75 3c11 -18 18 -40 18 -66c0 -96 -78 -184 -195 -184c-19 0 -37 2 -54 7
c-9 -9 -14 -17 -14 -24c0 -25 54 -41 109 -66c55 -24 108 -57 108 -117c0 -51 -41 -123 -218 -123zM238 377c-71 0 -116 -59 -116 -122c0 -48 27 -80 79 -80c70 0 116 58 116 122c0 47 -27 80 -79 80zM138 -145c97 0 129 29 129 53s-34 44 -94 69c-21 9 -43 18 -61 28
c-42 -19 -99 -50 -99 -92c0 -30 31 -58 125 -58zM269 509c-94 0 -136 64 -125 143h63c-4 -50 18 -76 69 -76c47 0 80 23 96 76h63c-18 -87 -78 -143 -166 -143z" />
    <glyph glyph-name="gdotaccent" unicode="&#x121;" horiz-adv-x="450" 
d="M133 -210c-161 0 -203 59 -203 111c0 76 87 119 139 142c-7 9 -10 19 -10 31c0 28 17 50 39 68c-35 24 -56 62 -56 113c0 96 78 184 195 184c24 0 47 -4 67 -11h163l-13 -68l-75 3c11 -18 18 -40 18 -66c0 -96 -78 -184 -195 -184c-19 0 -37 2 -54 7
c-9 -9 -14 -17 -14 -24c0 -25 54 -41 109 -66c55 -24 108 -57 108 -117c0 -51 -41 -123 -218 -123zM238 377c-71 0 -116 -59 -116 -122c0 -48 27 -80 79 -80c70 0 116 58 116 122c0 47 -27 80 -79 80zM138 -145c97 0 129 29 129 53s-34 44 -94 69c-21 9 -43 18 -61 28
c-42 -19 -99 -50 -99 -92c0 -30 31 -58 125 -58zM275 509c-31 0 -57 26 -57 57s25 57 57 57s58 -25 58 -57c0 -31 -26 -57 -58 -57z" />
    <glyph glyph-name="gcommaaccent" unicode="&#x123;" horiz-adv-x="450" 
d="M277 503c-36 0 -52 25 -52 56c0 54 48 112 115 159l32 -29c-35 -36 -65 -71 -65 -112c0 -25 11 -40 27 -48l-1 -7c-19 -12 -38 -19 -56 -19zM133 -210c-161 0 -203 59 -203 111c0 76 87 119 139 142c-7 9 -10 19 -10 31c0 28 17 50 39 68c-35 24 -56 62 -56 113
c0 96 78 184 195 184c24 0 47 -4 67 -11h163l-13 -68l-75 3c11 -18 18 -40 18 -66c0 -96 -78 -184 -195 -184c-19 0 -37 2 -54 7c-9 -9 -14 -17 -14 -24c0 -25 54 -41 109 -66c55 -24 108 -57 108 -117c0 -51 -41 -123 -218 -123zM238 377c-71 0 -116 -59 -116 -122
c0 -48 27 -80 79 -80c70 0 116 58 116 122c0 47 -27 80 -79 80zM138 -145c97 0 129 29 129 53s-34 44 -94 69c-21 9 -43 18 -61 28c-42 -19 -99 -50 -99 -92c0 -30 31 -58 125 -58z" />
    <glyph glyph-name="hcircumflex" unicode="&#x125;" horiz-adv-x="525" 
d="M20 0l113 639h-76l12 68h162l-61 -343c44 36 104 75 167 75c75 0 122 -54 106 -145l-33 -192c-6 -32 5 -46 33 -46c18 0 38 6 52 11l-12 -66c-19 -6 -43 -11 -69 -11c-82 0 -99 55 -88 117l32 182c8 47 -2 81 -49 81c-52 0 -110 -44 -152 -82l-51 -288h-86zM25 761
l-18 26l161 133h55l106 -133l-22 -26l-125 77z" />
    <glyph glyph-name="hbar" unicode="&#x127;" horiz-adv-x="525" 
d="M40 509l10 58h70l12 72h-76l13 68h161l-25 -140h141l-10 -58h-141l-25 -145c44 36 103 75 166 75c76 0 123 -54 107 -145l-34 -192c-6 -32 5 -46 34 -46c17 0 37 6 51 11l-11 -66c-19 -6 -44 -11 -70 -11c-81 0 -99 55 -88 117l32 182c9 47 -2 81 -48 81
c-52 0 -110 -44 -153 -82l-51 -288h-85l89 509h-69z" />
    <glyph glyph-name="dotlessi" unicode="&#x131;" horiz-adv-x="262" 
d="M147 -10c-82 0 -100 54 -89 117l44 252h-75l12 69h161l-58 -326c-5 -32 6 -46 33 -46c19 0 38 6 52 11l-11 -66c-19 -6 -44 -11 -69 -11z" />
    <glyph glyph-name="igrave" unicode="&#xec;" horiz-adv-x="262" 
d="M147 -10c-82 0 -100 54 -89 117l44 252h-75l12 69h161l-58 -326c-5 -32 6 -46 33 -46c19 0 38 6 52 11l-11 -66c-19 -6 -44 -11 -69 -11zM202 505l-164 130l57 61l139 -157z" />
    <glyph glyph-name="iacute" unicode="&#xed;" horiz-adv-x="262" 
d="M147 -10c-82 0 -100 54 -89 117l44 252h-75l12 69h161l-58 -326c-5 -32 6 -46 33 -46c19 0 38 6 52 11l-11 -66c-19 -6 -44 -11 -69 -11zM104 504l-27 35l170 156l50 -63z" />
    <glyph glyph-name="icircumflex" unicode="&#xee;" horiz-adv-x="262" 
d="M147 -10c-82 0 -100 54 -89 117l44 252h-75l12 69h161l-58 -326c-5 -32 6 -46 33 -46c19 0 38 6 52 11l-11 -66c-19 -6 -44 -11 -69 -11zM1 501l-18 27l161 133h55l106 -134l-22 -26l-125 78z" />
    <glyph glyph-name="idieresis" unicode="&#xef;" horiz-adv-x="262" 
d="M147 -10c-82 0 -100 54 -89 117l44 252h-75l12 69h161l-58 -326c-5 -32 6 -46 33 -46c19 0 38 6 52 11l-11 -66c-19 -6 -44 -11 -69 -11zM64 509c-29 0 -53 23 -53 53c0 29 24 53 53 53c30 0 53 -24 53 -53c0 -30 -23 -53 -53 -53zM246 509c-29 0 -52 23 -52 53
c0 29 23 53 52 53c30 0 53 -24 53 -53c0 -30 -23 -53 -53 -53z" />
    <glyph glyph-name="itilde" unicode="&#x129;" horiz-adv-x="262" 
d="M147 -10c-82 0 -100 54 -89 117l44 252h-75l12 69h161l-58 -326c-5 -32 6 -46 33 -46c19 0 38 6 52 11l-11 -66c-19 -6 -44 -11 -69 -11zM10 508l-31 18c17 35 58 107 118 107c52 0 85 -51 132 -51c33 0 53 23 72 53l31 -19c-19 -37 -63 -107 -121 -107
c-49 0 -87 52 -131 52c-26 0 -47 -20 -70 -53z" />
    <glyph glyph-name="imacron" unicode="&#x12b;" horiz-adv-x="262" 
d="M147 -10c-82 0 -100 54 -89 117l44 252h-75l12 69h161l-58 -326c-5 -32 6 -46 33 -46c19 0 38 6 52 11l-11 -66c-19 -6 -44 -11 -69 -11zM12 522l11 65h271l-12 -65h-270z" />
    <glyph glyph-name="ibreve" unicode="&#x12d;" horiz-adv-x="262" 
d="M148 -10c-82 0 -101 54 -90 117l45 252h-76l12 69h162l-58 -326c-6 -32 5 -46 33 -46c18 0 38 6 52 11l-11 -66c-19 -6 -44 -11 -69 -11zM150 509c-95 0 -136 64 -126 143h64c-4 -50 18 -76 69 -76c47 0 80 23 96 76h63c-19 -87 -78 -143 -166 -143z" />
    <glyph glyph-name="iogonek" unicode="&#x12f;" horiz-adv-x="262" 
d="M101 -202c-50 0 -87 21 -87 73c0 56 43 97 88 126c-43 16 -53 61 -44 110l45 252h-76l13 69h161l-58 -326c-6 -32 5 -46 33 -46c18 0 38 6 52 11l-11 -66c-15 -4 -34 -9 -53 -10c-33 -24 -74 -62 -74 -103c0 -26 17 -35 39 -35s49 8 65 15l-4 -52c-22 -9 -57 -18 -89 -18
zM175 516c-33 0 -60 27 -60 60s27 60 60 60s60 -27 60 -60s-27 -60 -60 -60z" />
    <glyph glyph-name="dotlessj" unicode="&#x237;" horiz-adv-x="239" 
d="M-36 -210c-26 0 -46 5 -63 10l12 66c14 -5 28 -8 44 -8c31 0 64 11 74 71l76 430h-81l13 69h166l-88 -496c-18 -103 -76 -142 -153 -142z" />
    <glyph glyph-name="jcircumflex" unicode="&#x135;" horiz-adv-x="239" 
d="M-36 -210c-26 0 -46 5 -63 10l12 66c14 -5 28 -8 44 -8c31 0 64 11 74 71l76 430h-81l13 69h166l-88 -496c-18 -103 -76 -142 -153 -142zM3 501l-18 27l161 133h55l106 -134l-22 -26l-125 78z" />
    <glyph glyph-name="kcommaaccent" unicode="&#x137;" horiz-adv-x="491" 
d="M202 -67c36 0 52 -24 52 -55c0 -54 -48 -112 -115 -159l-32 29c35 35 65 71 65 112c0 25 -11 39 -27 48l1 7c19 12 38 18 56 18zM20 0l113 639h-70l13 68h155l-60 -333c44 37 95 65 152 65c67 0 116 -39 116 -105c0 -83 -81 -134 -162 -153l49 -82c12 -19 27 -43 57 -43
c22 0 45 12 62 21l-13 -69c-19 -11 -40 -19 -67 -19c-49 0 -83 26 -111 75l-69 122l6 33c70 6 164 43 164 107c0 28 -19 45 -53 45c-51 0 -105 -37 -143 -69l-53 -302h-86z" />
    <glyph glyph-name="kgreenlandic" unicode="&#x138;" horiz-adv-x="512" 
d="M42 0l63 359h-69l12 69h155l-10 -54c43 37 95 65 151 65c67 0 116 -39 116 -105c0 -83 -80 -134 -161 -153l48 -82c12 -19 27 -43 58 -43c21 0 45 12 61 21l-12 -69c-20 -11 -41 -19 -67 -19c-50 0 -83 26 -111 75l-70 122l6 33c70 6 165 43 165 107c0 28 -19 45 -54 45
c-51 0 -104 -37 -142 -69l-54 -302h-85z" />
    <glyph glyph-name="lacute" unicode="&#x13a;" horiz-adv-x="240" 
d="M124 -10c-82 0 -100 54 -90 117l94 532h-76l13 68h161l-107 -605c-5 -32 5 -46 33 -46c18 0 38 6 52 11l-11 -66c-19 -6 -44 -11 -69 -11zM125 762l-28 35l171 156l50 -63z" />
    <glyph glyph-name="lcommaaccent" unicode="&#x13c;" horiz-adv-x="240" 
d="M81 -67c36 0 52 -24 52 -55c0 -54 -48 -112 -115 -159l-32 29c35 35 65 71 65 112c0 25 -11 39 -27 48l1 7c19 12 38 18 56 18zM124 -10c-82 0 -100 54 -90 117l94 532h-76l13 68h161l-107 -605c-5 -32 5 -46 33 -46c18 0 38 6 52 11l-11 -66c-19 -6 -44 -11 -69 -11z
" />
    <glyph glyph-name="lcaron" unicode="&#x13e;" horiz-adv-x="240" 
d="M335 715c36 0 52 -25 52 -56c0 -54 -49 -112 -115 -159l-32 29c35 36 65 71 65 112c0 25 -11 40 -27 48l1 7c19 12 38 19 56 19zM124 -10c-82 0 -100 54 -90 117l94 532h-76l13 68h161l-107 -605c-5 -32 5 -46 33 -46c18 0 38 6 52 11l-11 -66c-19 -6 -44 -11 -69 -11z
" />
    <glyph glyph-name="ldot" unicode="&#x140;" horiz-adv-x="332" 
d="M124 -10c-82 0 -100 54 -90 117l94 532h-76l13 68h161l-107 -605c-5 -32 5 -46 33 -46c18 0 38 6 52 11l-11 -66c-19 -6 -44 -11 -69 -11zM284 278c-31 0 -57 26 -57 57s25 58 57 58c31 0 57 -26 57 -58c0 -31 -25 -57 -57 -57z" />
    <glyph glyph-name="lslash" unicode="&#x142;" horiz-adv-x="283" 
d="M10 246l-18 49l108 53l51 291h-76l13 68h161l-55 -313l102 51l18 -48l-131 -66l-41 -229c-6 -32 5 -46 33 -46c18 0 38 6 52 11l-11 -66c-19 -6 -44 -11 -69 -11c-82 0 -101 54 -90 117l32 178z" />
    <glyph glyph-name="ntilde" unicode="&#xf1;" horiz-adv-x="548" 
d="M43 0l64 359h-74l12 69h157l-12 -66c44 37 105 77 169 77c75 0 123 -54 107 -145l-34 -192c-6 -32 5 -46 33 -46c18 0 38 6 52 11l-11 -66c-19 -6 -44 -11 -70 -11c-81 0 -99 55 -88 117l32 182c9 47 -2 81 -49 81c-52 0 -109 -44 -151 -82l-51 -288h-86zM168 508l-31 18
c18 35 58 107 119 107c51 0 84 -51 132 -51c32 0 52 23 71 53l31 -19c-19 -37 -63 -107 -120 -107c-50 0 -87 52 -132 52c-26 0 -47 -20 -70 -53z" />
    <glyph glyph-name="nacute" unicode="&#x144;" horiz-adv-x="548" 
d="M43 0l64 359h-74l12 69h157l-12 -66c44 37 105 77 169 77c75 0 123 -54 107 -145l-34 -192c-6 -32 5 -46 33 -46c18 0 38 6 52 11l-11 -66c-19 -6 -44 -11 -70 -11c-81 0 -99 55 -88 117l32 182c9 47 -2 81 -49 81c-52 0 -109 -44 -151 -82l-51 -288h-86zM261 504l-27 35
l170 156l50 -63z" />
    <glyph glyph-name="ncommaaccent" unicode="&#x146;" horiz-adv-x="548" 
d="M246 -67c36 0 52 -24 52 -55c0 -54 -48 -112 -115 -159l-32 29c35 35 65 71 65 112c0 25 -11 39 -27 48l1 7c19 12 38 18 56 18zM43 0l64 359h-74l12 69h157l-12 -66c44 37 105 77 169 77c75 0 123 -54 107 -145l-34 -192c-6 -32 5 -46 33 -46c18 0 38 6 52 11l-11 -66
c-19 -6 -44 -11 -70 -11c-81 0 -99 55 -88 117l32 182c9 47 -2 81 -49 81c-52 0 -109 -44 -151 -82l-51 -288h-86z" />
    <glyph glyph-name="ncaron" unicode="&#x148;" horiz-adv-x="548" 
d="M43 0l64 359h-74l12 69h157l-12 -66c44 37 105 77 169 77c75 0 123 -54 107 -145l-34 -192c-6 -32 5 -46 33 -46c18 0 38 6 52 11l-11 -66c-19 -6 -44 -11 -70 -11c-81 0 -99 55 -88 117l32 182c9 47 -2 81 -49 81c-52 0 -109 -44 -151 -82l-51 -288h-86zM270 507
l-108 134l23 26l126 -78l156 78l19 -26l-161 -134h-55z" />
    <glyph glyph-name="napostrophe" unicode="&#x149;" horiz-adv-x="548" 
d="M167 694c35 0 52 -25 52 -56c0 -54 -49 -112 -115 -159l-33 29c36 36 66 71 66 112c0 25 -11 40 -27 48l1 7c18 12 37 19 56 19zM43 0l64 359h-74l12 69h157l-12 -66c44 37 105 77 169 77c75 0 123 -54 107 -145l-34 -192c-6 -32 5 -46 33 -46c18 0 38 6 52 11l-11 -66
c-19 -6 -44 -11 -70 -11c-81 0 -99 55 -88 117l32 182c9 47 -2 81 -49 81c-52 0 -109 -44 -151 -82l-51 -288h-86z" />
    <glyph glyph-name="eng" unicode="&#x14b;" horiz-adv-x="515" 
d="M43 0l64 359h-74l12 69h157l-12 -66c44 37 105 77 169 77c75 0 123 -54 107 -145l-64 -362c-18 -103 -77 -142 -154 -142c-25 0 -45 5 -62 10l12 66c13 -5 27 -8 43 -8c32 0 64 11 75 71l64 360c9 47 -2 81 -49 81c-52 0 -109 -44 -151 -82l-51 -288h-86z" />
    <glyph glyph-name="ograve" unicode="&#xf2;" horiz-adv-x="499" 
d="M215 -11c-115 0 -191 68 -191 193c0 138 92 257 245 257c115 0 191 -68 191 -193c0 -139 -93 -257 -245 -257zM217 55c93 0 154 92 154 191c0 75 -34 126 -104 126c-93 0 -154 -91 -154 -190c0 -76 34 -127 104 -127zM333 505l-163 130l56 61l139 -157z" />
    <glyph glyph-name="oacute" unicode="&#xf3;" horiz-adv-x="499" 
d="M215 -11c-115 0 -191 68 -191 193c0 138 92 257 245 257c115 0 191 -68 191 -193c0 -139 -93 -257 -245 -257zM217 55c93 0 154 92 154 191c0 75 -34 126 -104 126c-93 0 -154 -91 -154 -190c0 -76 34 -127 104 -127zM258 504l-27 35l170 156l50 -63z" />
    <glyph glyph-name="ocircumflex" unicode="&#xf4;" horiz-adv-x="499" 
d="M215 -11c-115 0 -191 68 -191 193c0 138 92 257 245 257c115 0 191 -68 191 -193c0 -139 -93 -257 -245 -257zM217 55c93 0 154 92 154 191c0 75 -34 126 -104 126c-93 0 -154 -91 -154 -190c0 -76 34 -127 104 -127zM147 501l-18 27l161 133h55l106 -134l-22 -26
l-125 78z" />
    <glyph glyph-name="otilde" unicode="&#xf5;" horiz-adv-x="499" 
d="M215 -11c-115 0 -191 68 -191 193c0 138 92 257 245 257c115 0 191 -68 191 -193c0 -139 -93 -257 -245 -257zM217 55c93 0 154 92 154 191c0 75 -34 126 -104 126c-93 0 -154 -91 -154 -190c0 -76 34 -127 104 -127zM154 508l-31 18c17 35 58 107 118 107
c52 0 85 -51 132 -51c33 0 53 23 72 53l31 -19c-20 -37 -63 -107 -121 -107c-50 0 -87 52 -131 52c-26 0 -48 -20 -70 -53z" />
    <glyph glyph-name="odieresis" unicode="&#xf6;" horiz-adv-x="499" 
d="M215 -11c-115 0 -191 68 -191 193c0 138 92 257 245 257c115 0 191 -68 191 -193c0 -139 -93 -257 -245 -257zM217 55c93 0 154 92 154 191c0 75 -34 126 -104 126c-93 0 -154 -91 -154 -190c0 -76 34 -127 104 -127zM211 509c-29 0 -53 23 -53 53c0 29 24 53 53 53
s53 -24 53 -53c0 -30 -24 -53 -53 -53zM393 509c-29 0 -53 23 -53 53c0 29 24 53 53 53c30 0 53 -24 53 -53c0 -30 -23 -53 -53 -53z" />
    <glyph glyph-name="omacron" unicode="&#x14d;" horiz-adv-x="499" 
d="M215 -11c-115 0 -191 68 -191 193c0 138 92 257 245 257c115 0 191 -68 191 -193c0 -139 -93 -257 -245 -257zM217 55c93 0 154 92 154 191c0 75 -34 126 -104 126c-93 0 -154 -91 -154 -190c0 -76 34 -127 104 -127zM161 522l12 65h270l-11 -65h-271z" />
    <glyph glyph-name="obreve" unicode="&#x14f;" horiz-adv-x="499" 
d="M215 -11c-115 0 -191 68 -191 193c0 138 92 257 245 257c115 0 191 -68 191 -193c0 -139 -93 -257 -245 -257zM217 55c93 0 154 92 154 191c0 75 -34 126 -104 126c-93 0 -154 -91 -154 -190c0 -76 34 -127 104 -127zM297 509c-95 0 -136 64 -126 143h63
c-3 -50 19 -76 69 -76c48 0 81 23 97 76h63c-19 -87 -78 -143 -166 -143z" />
    <glyph glyph-name="ohungarumlaut" unicode="&#x151;" horiz-adv-x="499" 
d="M215 -11c-115 0 -191 68 -191 193c0 138 92 257 245 257c115 0 191 -68 191 -193c0 -139 -93 -257 -245 -257zM217 55c93 0 154 92 154 191c0 75 -34 126 -104 126c-93 0 -154 -91 -154 -190c0 -76 34 -127 104 -127zM205 504l-26 27l146 170l53 -58zM366 504l-26 27
l147 170l53 -58z" />
    <glyph glyph-name="oslash" unicode="&#xf8;" horiz-adv-x="499" 
d="M215 -11c-54 0 -99 14 -132 43l-58 -55l-24 23l59 56c-24 32 -36 74 -36 126c0 138 93 257 246 257c56 0 103 -17 137 -48l54 52l23 -23l-56 -54c21 -31 33 -71 33 -120c0 -139 -94 -257 -246 -257zM218 55c93 0 154 92 154 191c0 21 -3 40 -9 56l-223 -214
c18 -21 44 -33 78 -33zM267 372c-93 0 -155 -91 -155 -190c0 -25 4 -46 12 -64l224 216c-18 24 -45 38 -81 38z" />
    <glyph glyph-name="oslashacute" unicode="&#x1ff;" horiz-adv-x="499" 
d="M261 504l-27 35l170 156l50 -63zM215 -11c-54 0 -99 14 -132 43l-58 -55l-24 23l59 56c-24 32 -36 74 -36 126c0 138 93 257 246 257c56 0 103 -17 137 -48l54 52l23 -23l-56 -54c21 -31 33 -71 33 -120c0 -139 -94 -257 -246 -257zM218 55c93 0 154 92 154 191
c0 21 -3 40 -9 56l-223 -214c18 -21 44 -33 78 -33zM267 372c-93 0 -155 -91 -155 -190c0 -25 4 -46 12 -64l224 216c-18 24 -45 38 -81 38z" />
    <glyph glyph-name="oe" unicode="&#x153;" horiz-adv-x="770" 
d="M214 -11c-111 0 -190 68 -190 193c0 138 95 257 244 257c79 0 135 -35 161 -97c40 60 106 97 183 97c88 0 127 -47 127 -107c0 -125 -166 -157 -284 -163c4 -78 46 -113 119 -113c52 0 97 17 137 36l-14 -71c-30 -16 -79 -32 -134 -32c-78 0 -136 33 -162 97
c-40 -59 -105 -97 -187 -97zM218 55c93 0 155 92 155 191c0 75 -35 126 -105 126c-93 0 -155 -91 -155 -190c0 -76 35 -127 105 -127zM605 375c-72 0 -130 -59 -146 -142c95 3 202 29 202 97c0 25 -15 45 -56 45z" />
    <glyph glyph-name="rcommaaccent" unicode="&#x157;" horiz-adv-x="412" 
d="M69 -67c36 0 52 -24 52 -55c0 -54 -48 -112 -115 -159l-32 29c36 35 65 71 65 112c0 25 -11 39 -27 48l1 7c19 12 38 18 56 18zM43 0l64 359h-74l13 69h156l-14 -77c39 44 93 88 154 88c41 0 74 -21 74 -75c0 -24 -6 -50 -14 -71l-77 5c4 12 8 28 8 41c0 16 -7 26 -26 26
c-48 0 -103 -58 -129 -86l-49 -279h-86z" />
    <glyph glyph-name="rcaron" unicode="&#x159;" horiz-adv-x="412" 
d="M43 0l64 359h-74l13 69h156l-14 -77c39 44 93 88 154 88c41 0 74 -21 74 -75c0 -24 -6 -50 -14 -71l-77 5c4 12 8 28 8 41c0 16 -7 26 -26 26c-48 0 -103 -58 -129 -86l-49 -279h-86zM217 507l-108 134l23 26l126 -78l156 78l19 -26l-161 -134h-55z" />
    <glyph glyph-name="racute" unicode="&#x155;" horiz-adv-x="412" 
d="M43 0l64 359h-74l13 69h156l-14 -77c39 44 93 88 154 88c41 0 74 -21 74 -75c0 -24 -6 -50 -14 -71l-77 5c4 12 8 28 8 41c0 16 -7 26 -26 26c-48 0 -103 -58 -129 -86l-49 -279h-86zM217 504l-27 35l171 156l50 -63z" />
    <glyph glyph-name="sacute" unicode="&#x15b;" horiz-adv-x="372" 
d="M146 -11c-53 0 -105 11 -145 29l11 64c39 -16 89 -28 133 -28c65 0 93 26 93 58c0 82 -194 62 -194 197c0 69 52 130 165 130c50 0 96 -12 130 -24l-11 -62c-32 11 -73 22 -115 22c-67 0 -85 -29 -85 -54c0 -81 195 -60 195 -198c0 -60 -39 -134 -177 -134zM190 504
l-28 35l171 156l50 -63z" />
    <glyph glyph-name="scircumflex" unicode="&#x15d;" horiz-adv-x="372" 
d="M146 -11c-53 0 -105 11 -145 29l11 64c39 -16 89 -28 133 -28c65 0 93 26 93 58c0 82 -194 62 -194 197c0 69 52 130 165 130c50 0 96 -12 130 -24l-11 -62c-32 11 -73 22 -115 22c-67 0 -85 -29 -85 -54c0 -81 195 -60 195 -198c0 -60 -39 -134 -177 -134zM81 501
l-18 27l161 133h55l106 -134l-22 -26l-125 78z" />
    <glyph glyph-name="scedilla" unicode="&#x15f;" horiz-adv-x="372" 
d="M97 -202c-33 0 -64 6 -86 15l15 49c20 -8 43 -14 67 -14c32 0 53 9 53 32c0 29 -36 37 -72 37l5 20l37 54c-43 3 -83 13 -115 27l11 64c39 -16 89 -28 133 -28c65 0 93 26 93 58c0 82 -194 62 -194 197c0 69 52 130 165 130c50 0 96 -12 130 -24l-11 -62
c-32 11 -73 22 -115 22c-67 0 -85 -29 -85 -54c0 -81 195 -60 195 -198c0 -57 -35 -125 -153 -133l-21 -38c40 -6 72 -27 72 -71c0 -57 -55 -83 -124 -83z" />
    <glyph glyph-name="scommaaccent" unicode="&#x219;" horiz-adv-x="372" 
d="M139 -70c36 0 52 -25 52 -56c0 -54 -49 -112 -115 -159l-32 29c35 36 65 71 65 112c0 25 -11 40 -27 48l1 7c18 12 38 19 56 19zM146 -11c-53 0 -105 11 -145 29l11 64c39 -16 89 -28 133 -28c65 0 93 26 93 58c0 82 -194 62 -194 197c0 69 52 130 165 130
c50 0 96 -12 130 -24l-11 -62c-32 11 -73 22 -115 22c-67 0 -85 -29 -85 -54c0 -81 195 -60 195 -198c0 -60 -39 -134 -177 -134z" />
    <glyph glyph-name="scaron" unicode="&#x161;" horiz-adv-x="372" 
d="M146 -11c-53 0 -105 11 -145 29l11 64c39 -16 89 -28 133 -28c65 0 93 26 93 58c0 82 -194 62 -194 197c0 69 52 130 165 130c50 0 96 -12 130 -24l-11 -62c-32 11 -73 22 -115 22c-67 0 -85 -29 -85 -54c0 -81 195 -60 195 -198c0 -60 -39 -134 -177 -134zM190 507
l-107 134l22 26l126 -78l156 78l19 -26l-161 -134h-55z" />
    <glyph glyph-name="tcommaaccent" unicode="&#x163;" horiz-adv-x="323" 
d="M133 -67c36 0 52 -24 52 -55c0 -54 -48 -112 -115 -159l-32 29c35 35 65 71 65 112c0 25 -11 39 -27 48l1 7c19 12 38 18 56 18zM166 -11c-75 0 -124 43 -108 130l42 241h-73l12 68h73l19 110h86l-20 -110h125l-13 -68h-123l-43 -246c-7 -42 13 -58 51 -58
c37 0 67 14 87 21l-12 -65c-25 -12 -62 -23 -103 -23z" />
    <glyph glyph-name="uni021B" unicode="&#x21b;" horiz-adv-x="323" 
d="M133 -67c36 0 52 -24 52 -55c0 -54 -48 -112 -115 -159l-32 29c35 35 65 71 65 112c0 25 -11 39 -27 48l1 7c19 12 38 18 56 18zM166 -11c-75 0 -124 43 -108 130l42 241h-73l12 68h73l19 110h86l-20 -110h125l-13 -68h-123l-43 -246c-7 -42 13 -58 51 -58
c37 0 67 14 87 21l-12 -65c-25 -12 -62 -23 -103 -23z" />
    <glyph glyph-name="tcaron" unicode="&#x165;" horiz-adv-x="323" 
d="M357 697c35 0 52 -24 52 -55c0 -54 -49 -112 -115 -159l-33 29c36 35 66 71 66 112c0 25 -11 39 -27 48l1 7c18 12 37 18 56 18zM166 -11c-75 0 -124 43 -108 130l42 241h-73l12 68h73l19 110h86l-20 -110h125l-13 -68h-123l-43 -246c-7 -42 13 -58 51 -58
c37 0 67 14 87 21l-12 -65c-25 -12 -62 -23 -103 -23z" />
    <glyph glyph-name="tbar" unicode="&#x167;" horiz-adv-x="325" 
d="M12 201l11 60h62l18 99h-73l12 68h73l19 110h86l-20 -110h125l-13 -68h-123l-18 -99h116l-11 -60h-115l-15 -87c-7 -42 13 -58 51 -58c37 0 67 14 87 21l-12 -65c-25 -12 -62 -23 -103 -23c-75 0 -124 43 -108 130l14 82h-63z" />
    <glyph glyph-name="thorn" unicode="&#xfe;" horiz-adv-x="518" 
d="M254 -11c-67 0 -111 32 -136 80l-47 -268h-86l148 838h-70l13 68h155l-60 -334c37 39 84 66 142 66c93 0 165 -68 165 -195c0 -152 -103 -255 -224 -255zM239 55c87 0 151 83 151 188c0 82 -40 130 -104 130c-87 0 -151 -88 -151 -190c0 -77 37 -128 104 -128z" />
    <glyph glyph-name="ugrave" unicode="&#xf9;" 
d="M167 -11c-76 0 -123 54 -107 145l40 225h-74l12 69h159l-51 -289c-9 -47 2 -81 48 -81c52 0 108 43 151 81l52 289h85l-58 -329c-6 -32 4 -47 34 -47c17 0 37 6 51 11l-11 -62c-19 -6 -44 -11 -69 -11c-61 0 -88 31 -91 77c-44 -38 -106 -78 -171 -78zM341 505l-164 130
l57 61l139 -157z" />
    <glyph glyph-name="uacute" unicode="&#xfa;" 
d="M167 -11c-76 0 -123 54 -107 145l40 225h-74l12 69h159l-51 -289c-9 -47 2 -81 48 -81c52 0 108 43 151 81l52 289h85l-58 -329c-6 -32 4 -47 34 -47c17 0 37 6 51 11l-11 -62c-19 -6 -44 -11 -69 -11c-61 0 -88 31 -91 77c-44 -38 -106 -78 -171 -78zM264 504l-27 35
l170 156l50 -63z" />
    <glyph glyph-name="ucircumflex" unicode="&#xfb;" 
d="M167 -11c-76 0 -123 54 -107 145l40 225h-74l12 69h159l-51 -289c-9 -47 2 -81 48 -81c52 0 108 43 151 81l52 289h85l-58 -329c-6 -32 4 -47 34 -47c17 0 37 6 51 11l-11 -62c-19 -6 -44 -11 -69 -11c-61 0 -88 31 -91 77c-44 -38 -106 -78 -171 -78zM161 501l-18 27
l161 133h55l107 -134l-23 -26l-125 78z" />
    <glyph glyph-name="udieresis" unicode="&#xfc;" 
d="M167 -11c-76 0 -123 54 -107 145l40 225h-74l12 69h159l-51 -289c-9 -47 2 -81 48 -81c52 0 108 43 151 81l52 289h85l-58 -329c-6 -32 4 -47 34 -47c17 0 37 6 51 11l-11 -62c-19 -6 -44 -11 -69 -11c-61 0 -88 31 -91 77c-44 -38 -106 -78 -171 -78zM220 509
c-29 0 -53 23 -53 53c0 29 24 53 53 53s53 -24 53 -53c0 -30 -24 -53 -53 -53zM402 509c-29 0 -53 23 -53 53c0 29 24 53 53 53s53 -24 53 -53c0 -30 -24 -53 -53 -53z" />
    <glyph glyph-name="utilde" unicode="&#x169;" 
d="M167 -11c-76 0 -123 54 -107 145l40 225h-74l12 69h159l-51 -289c-9 -47 2 -81 48 -81c52 0 108 43 151 81l52 289h85l-58 -329c-6 -32 4 -47 34 -47c17 0 37 6 51 11l-11 -62c-19 -6 -44 -11 -69 -11c-61 0 -88 31 -91 77c-44 -38 -106 -78 -171 -78zM168 508l-31 18
c17 35 58 107 118 107c52 0 85 -51 132 -51c33 0 53 23 72 53l31 -19c-19 -37 -63 -107 -121 -107c-49 0 -87 52 -131 52c-26 0 -48 -20 -70 -53z" />
    <glyph glyph-name="umacron" unicode="&#x16b;" 
d="M167 -11c-76 0 -123 54 -107 145l40 225h-74l12 69h159l-51 -289c-9 -47 2 -81 48 -81c52 0 108 43 151 81l52 289h85l-58 -329c-6 -32 4 -47 34 -47c17 0 37 6 51 11l-11 -62c-19 -6 -44 -11 -69 -11c-61 0 -88 31 -91 77c-44 -38 -106 -78 -171 -78zM159 522l12 65h270
l-11 -65h-271z" />
    <glyph glyph-name="ubreve" unicode="&#x16d;" 
d="M167 -11c-76 0 -123 54 -107 145l40 225h-74l12 69h159l-51 -289c-9 -47 2 -81 48 -81c52 0 108 43 151 81l52 289h85l-58 -329c-6 -32 4 -47 34 -47c17 0 37 6 51 11l-11 -62c-19 -6 -44 -11 -69 -11c-61 0 -88 31 -91 77c-44 -38 -106 -78 -171 -78zM301 509
c-94 0 -136 64 -125 143h63c-4 -50 18 -76 69 -76c47 0 80 23 96 76h63c-18 -87 -78 -143 -166 -143z" />
    <glyph glyph-name="uring" unicode="&#x16f;" 
d="M167 -11c-76 0 -123 54 -107 145l40 225h-74l12 69h159l-51 -289c-9 -47 2 -81 48 -81c52 0 108 43 151 81l52 289h85l-58 -329c-6 -32 4 -47 34 -47c17 0 37 6 51 11l-11 -62c-19 -6 -44 -11 -69 -11c-61 0 -88 31 -91 77c-44 -38 -106 -78 -171 -78zM306 500
c-68 0 -106 39 -106 95c0 60 45 120 130 120c68 0 106 -39 106 -94c0 -61 -45 -121 -130 -121zM309 550c38 0 61 34 61 68c0 26 -13 47 -44 47c-38 0 -61 -34 -61 -68c0 -26 13 -47 44 -47z" />
    <glyph glyph-name="uhungarumlaut" unicode="&#x171;" 
d="M167 -11c-76 0 -123 54 -107 145l40 225h-74l12 69h159l-51 -289c-9 -47 2 -81 48 -81c52 0 108 43 151 81l52 289h85l-58 -329c-6 -32 4 -47 34 -47c17 0 37 6 51 11l-11 -62c-19 -6 -44 -11 -69 -11c-61 0 -88 31 -91 77c-44 -38 -106 -78 -171 -78zM198 504l-26 27
l147 170l53 -58zM360 504l-26 27l146 170l53 -58z" />
    <glyph glyph-name="uogonek" unicode="&#x173;" 
d="M373 -202c-49 0 -86 21 -86 73c0 57 45 100 92 128c-27 13 -40 37 -41 68c-44 -38 -106 -78 -171 -78c-76 0 -123 54 -107 145l40 225h-74l12 69h159l-51 -289c-9 -47 2 -81 48 -81c52 0 108 43 151 81l52 289h85l-58 -329c-6 -32 4 -47 34 -47c17 0 37 6 51 11l-11 -62
c-17 -5 -39 -10 -63 -11c-33 -25 -73 -62 -73 -102c0 -26 17 -35 40 -35c22 0 49 8 64 15l-4 -52c-22 -9 -56 -18 -89 -18z" />
    <glyph glyph-name="wcircumflex" unicode="&#x175;" horiz-adv-x="696" 
d="M156 0l-77 361h-68l12 67h123l65 -340c51 68 107 160 129 226l-9 47h-70l12 67h125l67 -344c82 98 138 207 138 260c0 17 -6 24 -25 24c-20 0 -41 -9 -63 -23l-23 51c26 20 67 42 109 42c56 0 79 -38 79 -82c0 -83 -84 -227 -198 -356h-70l-46 210
c-34 -66 -83 -142 -138 -210h-72zM230 501l-18 27l161 133h55l106 -134l-22 -26l-125 78z" />
    <glyph glyph-name="yacute" unicode="&#xfd;" horiz-adv-x="481" 
d="M130 0l-46 361h-70l12 67h134l50 -421c92 113 167 261 167 327c0 24 -10 33 -28 33c-19 0 -40 -9 -60 -23l-26 51c25 20 65 43 112 43c59 0 85 -37 85 -91c0 -153 -244 -557 -455 -557c-51 0 -91 24 -119 52l37 49c18 -15 46 -32 79 -32c61 0 136 61 202 141h-74z
M232 504l-27 35l171 156l50 -63z" />
    <glyph glyph-name="ydieresis" unicode="&#xff;" horiz-adv-x="481" 
d="M130 0l-46 361h-70l12 67h134l50 -421c92 113 167 261 167 327c0 24 -10 33 -28 33c-19 0 -40 -9 -60 -23l-26 51c25 20 65 43 112 43c59 0 85 -37 85 -91c0 -153 -244 -557 -455 -557c-51 0 -91 24 -119 52l37 49c18 -15 46 -32 79 -32c61 0 136 61 202 141h-74z
M364 509c-30 0 -53 23 -53 53c0 29 23 53 53 53c29 0 52 -24 52 -53c0 -30 -23 -53 -52 -53zM181 509c-29 0 -52 23 -52 53c0 29 23 53 52 53c30 0 53 -24 53 -53c0 -30 -23 -53 -53 -53z" />
    <glyph glyph-name="ycircumflex" unicode="&#x177;" horiz-adv-x="481" 
d="M130 0l-46 361h-70l12 67h134l50 -421c92 113 167 261 167 327c0 24 -10 33 -28 33c-19 0 -40 -9 -60 -23l-26 51c25 20 65 43 112 43c59 0 85 -37 85 -91c0 -153 -244 -557 -455 -557c-51 0 -91 24 -119 52l37 49c18 -15 46 -32 79 -32c61 0 136 61 202 141h-74z
M124 501l-18 27l161 133h55l107 -134l-23 -26l-125 78z" />
    <glyph glyph-name="zcaron" unicode="&#x17e;" horiz-adv-x="439" 
d="M16 -4l-22 39l295 331h-159l-13 -80h-72l24 142h325l20 -37l-287 -321c39 4 86 -11 124 -11c59 0 75 37 92 85l62 -17c-15 -52 -40 -136 -140 -136c-50 0 -101 21 -160 21c-33 0 -59 -7 -89 -16zM219 507l-107 134l22 26l126 -78l156 78l19 -26l-161 -134h-55z" />
    <glyph glyph-name="zacute" unicode="&#x17a;" horiz-adv-x="439" 
d="M16 -4l-22 39l295 331h-159l-13 -80h-72l24 142h325l20 -37l-287 -321c39 4 86 -11 124 -11c59 0 75 37 92 85l62 -17c-15 -52 -40 -136 -140 -136c-50 0 -101 21 -160 21c-33 0 -59 -7 -89 -16zM211 504l-28 35l171 156l50 -63z" />
    <glyph glyph-name="zdotaccent" unicode="&#x17c;" horiz-adv-x="439" 
d="M16 -4l-22 39l295 331h-159l-13 -80h-72l24 142h325l20 -37l-287 -321c39 4 86 -11 124 -11c59 0 75 37 92 85l62 -17c-15 -52 -40 -136 -140 -136c-50 0 -101 21 -160 21c-33 0 -59 -7 -89 -16zM257 509c-31 0 -57 26 -57 57s26 57 57 57c32 0 58 -25 58 -57
c0 -31 -25 -57 -58 -57z" />
    <glyph glyph-name="longs" unicode="&#x17f;" horiz-adv-x="240" 
d="M-40 -210c-24 0 -48 3 -66 7l13 67c12 -3 31 -6 47 -6c35 0 68 11 78 71l76 429h-84l12 70h84l25 140c18 107 78 150 175 150c28 0 54 -4 76 -8l-11 -65c-15 2 -34 5 -52 5c-56 0 -92 -21 -103 -84l-112 -634c-18 -103 -75 -142 -158 -142z" />
    <glyph glyph-name="germandbls" unicode="&#xdf;" horiz-adv-x="546" 
d="M-40 -210c-24 0 -48 3 -66 7l13 67c12 -3 31 -6 47 -6c35 0 68 11 78 71l76 429h-84l12 70h84l16 95c19 113 91 195 220 195c97 0 167 -45 167 -138c0 -116 -112 -153 -112 -229c0 -66 83 -111 83 -213c0 -92 -68 -146 -182 -146c-37 0 -77 5 -109 16l12 66
c26 -9 61 -16 94 -16c49 0 99 17 99 79c0 81 -84 126 -84 216c0 105 113 133 113 226c0 48 -30 72 -82 72c-92 0 -124 -77 -134 -134l-103 -585c-18 -103 -75 -142 -158 -142z" />
    <glyph glyph-name="dieresis" unicode="&#xa8;" horiz-adv-x="415" 
d="M117 509c-29 0 -53 23 -53 53c0 29 24 53 53 53s53 -24 53 -53c0 -30 -24 -53 -53 -53zM299 509c-29 0 -53 23 -53 53c0 29 24 53 53 53s53 -24 53 -53c0 -30 -24 -53 -53 -53z" />
    <glyph glyph-name="grave" unicode="`" horiz-adv-x="331" 
d="M229 505l-164 130l57 61l139 -157z" />
    <glyph glyph-name="tilde" unicode="&#x2dc;" horiz-adv-x="464" 
d="M87 508l-32 18c18 35 59 107 119 107c52 0 85 -51 132 -51c33 0 53 23 72 53l31 -19c-20 -37 -63 -107 -121 -107c-50 0 -87 52 -131 52c-26 0 -48 -20 -70 -53z" />
    <glyph glyph-name="circumflex" unicode="&#x2c6;" horiz-adv-x="434" 
d="M74 501l-18 27l161 133h55l106 -134l-22 -26l-125 78z" />
    <glyph glyph-name="acute" unicode="&#xb4;" horiz-adv-x="335" 
d="M84 504l-28 35l171 156l50 -63z" />
    <glyph glyph-name="ring" unicode="&#x2da;" horiz-adv-x="357" 
d="M171 500c-69 0 -107 39 -107 95c0 60 46 120 130 120c68 0 106 -39 106 -94c0 -61 -44 -121 -129 -121zM174 550c38 0 60 34 60 68c0 26 -13 47 -43 47c-38 0 -61 -34 -61 -68c0 -26 13 -47 44 -47z" />
    <glyph glyph-name="cedilla" unicode="&#xb8;" horiz-adv-x="298" 
d="M114 -202c-33 0 -64 6 -86 15l15 49c20 -8 43 -14 67 -14c32 0 53 9 53 32c0 29 -36 37 -72 37l5 20l68 100l42 -12l-40 -73c40 -6 72 -27 72 -71c0 -57 -55 -83 -124 -83z" />
    <glyph glyph-name="caron" unicode="&#x2c7;" horiz-adv-x="439" 
d="M174 507l-107 134l22 26l127 -78l155 78l19 -26l-161 -134h-55z" />
    <glyph glyph-name="ogonek" unicode="&#x2db;" horiz-adv-x="286" 
d="M131 -202c-49 0 -87 21 -87 73c0 82 95 135 158 160l24 -20c-44 -25 -106 -73 -106 -123c0 -26 17 -35 39 -35s49 8 65 15l-4 -52c-22 -9 -56 -18 -89 -18z" />
    <glyph glyph-name="breve" unicode="&#x2d8;" horiz-adv-x="377" 
d="M184 509c-95 0 -136 64 -126 143h63c-3 -50 19 -76 69 -76c48 0 81 23 97 76h63c-19 -87 -78 -143 -166 -143z" />
    <glyph glyph-name="hungarumlaut" unicode="&#x2dd;" horiz-adv-x="488" 
d="M92 504l-26 27l147 170l53 -58zM254 504l-26 27l146 170l53 -58z" />
    <glyph glyph-name="dotaccent" unicode="&#x2d9;" horiz-adv-x="240" 
d="M121 509c-31 0 -57 26 -57 57s25 57 57 57c31 0 57 -25 57 -57c0 -31 -25 -57 -57 -57z" />
    <glyph glyph-name="macron" unicode="&#xaf;" horiz-adv-x="411" 
d="M65 522l12 65h270l-11 -65h-271z" />
    <glyph glyph-name="a.alt" horiz-adv-x="479" 
d="M128 -11c-68 0 -128 37 -128 117c0 106 102 143 213 143h92l7 33c11 61 -9 90 -85 90c-54 0 -111 -14 -148 -26l11 67c44 14 100 26 154 26c110 0 172 -48 153 -153l-32 -184c-6 -32 5 -46 34 -46c17 0 37 6 51 11l-11 -66c-19 -6 -44 -11 -70 -11c-53 0 -80 24 -87 62
c-40 -32 -92 -63 -154 -63zM149 54c49 0 98 32 132 58l14 81h-79c-67 0 -128 -19 -128 -81c0 -38 23 -58 61 -58z" />
    <glyph glyph-name="agrave.alt" horiz-adv-x="479" 
d="M128 -11c-68 0 -128 37 -128 117c0 106 102 143 213 143h92l7 33c11 61 -9 90 -85 90c-54 0 -111 -14 -148 -26l11 67c44 14 100 26 154 26c110 0 172 -48 153 -153l-32 -184c-6 -32 5 -46 34 -46c17 0 37 6 51 11l-11 -66c-19 -6 -44 -11 -70 -11c-53 0 -80 24 -87 62
c-40 -32 -92 -63 -154 -63zM149 54c49 0 98 32 132 58l14 81h-79c-67 0 -128 -19 -128 -81c0 -38 23 -58 61 -58zM310 505l-164 130l57 61l139 -157z" />
    <glyph glyph-name="aacute.alt" horiz-adv-x="479" 
d="M128 -11c-68 0 -128 37 -128 117c0 106 102 143 213 143h92l7 33c11 61 -9 90 -85 90c-54 0 -111 -14 -148 -26l11 67c44 14 100 26 154 26c110 0 172 -48 153 -153l-32 -184c-6 -32 5 -46 34 -46c17 0 37 6 51 11l-11 -66c-19 -6 -44 -11 -70 -11c-53 0 -80 24 -87 62
c-40 -32 -92 -63 -154 -63zM149 54c49 0 98 32 132 58l14 81h-79c-67 0 -128 -19 -128 -81c0 -38 23 -58 61 -58zM232 504l-28 35l171 156l50 -63z" />
    <glyph glyph-name="acircumflex.alt" horiz-adv-x="479" 
d="M128 -11c-68 0 -128 37 -128 117c0 106 102 143 213 143h92l7 33c11 61 -9 90 -85 90c-54 0 -111 -14 -148 -26l11 67c44 14 100 26 154 26c110 0 172 -48 153 -153l-32 -184c-6 -32 5 -46 34 -46c17 0 37 6 51 11l-11 -66c-19 -6 -44 -11 -70 -11c-53 0 -80 24 -87 62
c-40 -32 -92 -63 -154 -63zM149 54c49 0 98 32 132 58l14 81h-79c-67 0 -128 -19 -128 -81c0 -38 23 -58 61 -58zM127 501l-18 27l161 133h55l106 -134l-22 -26l-125 78z" />
    <glyph glyph-name="atilde.alt" horiz-adv-x="479" 
d="M128 -11c-68 0 -128 37 -128 117c0 106 102 143 213 143h92l7 33c11 61 -9 90 -85 90c-54 0 -111 -14 -148 -26l11 67c44 14 100 26 154 26c110 0 172 -48 153 -153l-32 -184c-6 -32 5 -46 34 -46c17 0 37 6 51 11l-11 -66c-19 -6 -44 -11 -70 -11c-53 0 -80 24 -87 62
c-40 -32 -92 -63 -154 -63zM149 54c49 0 98 32 132 58l14 81h-79c-67 0 -128 -19 -128 -81c0 -38 23 -58 61 -58zM136 508l-31 18c17 35 58 107 118 107c52 0 85 -51 132 -51c33 0 53 23 72 53l31 -19c-19 -37 -63 -107 -121 -107c-49 0 -87 52 -131 52
c-26 0 -48 -20 -70 -53z" />
    <glyph glyph-name="adieresis.alt" horiz-adv-x="479" 
d="M128 -11c-68 0 -128 37 -128 117c0 106 102 143 213 143h92l7 33c11 61 -9 90 -85 90c-54 0 -111 -14 -148 -26l11 67c44 14 100 26 154 26c110 0 172 -48 153 -153l-32 -184c-6 -32 5 -46 34 -46c17 0 37 6 51 11l-11 -66c-19 -6 -44 -11 -70 -11c-53 0 -80 24 -87 62
c-40 -32 -92 -63 -154 -63zM149 54c49 0 98 32 132 58l14 81h-79c-67 0 -128 -19 -128 -81c0 -38 23 -58 61 -58zM185 509c-30 0 -53 23 -53 53c0 29 23 53 53 53c29 0 53 -24 53 -53c0 -30 -24 -53 -53 -53zM367 509c-29 0 -53 23 -53 53c0 29 24 53 53 53s53 -24 53 -53
c0 -30 -24 -53 -53 -53z" />
    <glyph glyph-name="aring.alt" horiz-adv-x="479" 
d="M128 -11c-68 0 -128 37 -128 117c0 106 102 143 213 143h92l7 33c11 61 -9 90 -85 90c-54 0 -111 -14 -148 -26l11 67c44 14 100 26 154 26c110 0 172 -48 153 -153l-32 -184c-6 -32 5 -46 34 -46c17 0 37 6 51 11l-11 -66c-19 -6 -44 -11 -70 -11c-53 0 -80 24 -87 62
c-40 -32 -92 -63 -154 -63zM149 54c49 0 98 32 132 58l14 81h-79c-67 0 -128 -19 -128 -81c0 -38 23 -58 61 -58zM270 500c-69 0 -107 39 -107 95c0 60 46 120 130 120c68 0 106 -39 106 -94c0 -61 -45 -121 -129 -121zM273 550c37 0 60 34 60 68c0 26 -13 47 -43 47
c-38 0 -61 -34 -61 -68c0 -26 13 -47 44 -47z" />
    <glyph glyph-name="amacron.alt" horiz-adv-x="479" 
d="M128 -11c-68 0 -128 37 -128 117c0 106 102 143 213 143h92l7 33c11 61 -9 90 -85 90c-54 0 -111 -14 -148 -26l11 67c44 14 100 26 154 26c110 0 172 -48 153 -153l-32 -184c-6 -32 5 -46 34 -46c17 0 37 6 51 11l-11 -66c-19 -6 -44 -11 -70 -11c-53 0 -80 24 -87 62
c-40 -32 -92 -63 -154 -63zM149 54c49 0 98 32 132 58l14 81h-79c-67 0 -128 -19 -128 -81c0 -38 23 -58 61 -58zM132 522l11 65h270l-11 -65h-270z" />
    <glyph glyph-name="abreve.alt" horiz-adv-x="479" 
d="M128 -11c-68 0 -128 37 -128 117c0 106 102 143 213 143h92l7 33c11 61 -9 90 -85 90c-54 0 -111 -14 -148 -26l11 67c44 14 100 26 154 26c110 0 172 -48 153 -153l-32 -184c-6 -32 5 -46 34 -46c17 0 37 6 51 11l-11 -66c-19 -6 -44 -11 -70 -11c-53 0 -80 24 -87 62
c-40 -32 -92 -63 -154 -63zM149 54c49 0 98 32 132 58l14 81h-79c-67 0 -128 -19 -128 -81c0 -38 23 -58 61 -58zM269 509c-95 0 -136 64 -126 143h63c-3 -50 19 -76 69 -76c48 0 81 23 97 76h63c-19 -87 -78 -143 -166 -143z" />
    <glyph glyph-name="aogonek.alt" horiz-adv-x="479" 
d="M318 -202c-50 0 -87 21 -87 73c0 56 44 98 91 127c-24 9 -37 29 -40 54c-40 -32 -92 -63 -154 -63c-68 0 -128 37 -128 117c0 106 102 143 213 143h92l7 33c11 61 -9 90 -85 90c-54 0 -111 -14 -148 -26l11 67c44 14 100 26 154 26c110 0 172 -48 153 -153l-32 -184
c-6 -32 5 -46 34 -46c17 0 37 6 51 11l-11 -66c-16 -4 -36 -9 -58 -11c-33 -24 -74 -61 -74 -102c0 -26 17 -35 39 -35s49 8 65 15l-4 -52c-22 -9 -57 -18 -89 -18zM149 54c49 0 98 32 132 58l14 81h-79c-67 0 -128 -19 -128 -81c0 -38 23 -58 61 -58z" />
    <glyph glyph-name="g.alt" horiz-adv-x="513" 
d="M190 -1c-92 0 -163 66 -163 190c0 149 101 250 220 250c72 0 118 -38 140 -91l15 80h80l-85 -482c-20 -111 -105 -156 -207 -156c-63 0 -135 17 -174 34l12 69c41 -18 103 -34 153 -34c65 0 119 27 131 92l21 115c-36 -41 -85 -67 -143 -67zM217 66c87 0 147 85 147 181
c0 76 -36 125 -104 125c-85 0 -146 -80 -146 -180c0 -79 38 -126 103 -126z" />
    <glyph glyph-name="gcircumflex.alt" horiz-adv-x="513" 
d="M190 -1c-92 0 -163 66 -163 190c0 149 101 250 220 250c72 0 118 -38 140 -91l15 80h80l-85 -482c-20 -111 -105 -156 -207 -156c-63 0 -135 17 -174 34l12 69c41 -18 103 -34 153 -34c65 0 119 27 131 92l21 115c-36 -41 -85 -67 -143 -67zM217 66c87 0 147 85 147 181
c0 76 -36 125 -104 125c-85 0 -146 -80 -146 -180c0 -79 38 -126 103 -126zM149 501l-17 27l160 133h56l106 -134l-23 -26l-125 78z" />
    <glyph glyph-name="gbreve.alt" horiz-adv-x="513" 
d="M190 -1c-92 0 -163 66 -163 190c0 149 101 250 220 250c72 0 118 -38 140 -91l15 80h80l-85 -482c-20 -111 -105 -156 -207 -156c-63 0 -135 17 -174 34l12 69c41 -18 103 -34 153 -34c65 0 119 27 131 92l21 115c-36 -41 -85 -67 -143 -67zM217 66c87 0 147 85 147 181
c0 76 -36 125 -104 125c-85 0 -146 -80 -146 -180c0 -79 38 -126 103 -126zM287 509c-94 0 -135 64 -125 143h63c-3 -50 19 -76 69 -76c47 0 81 23 96 76h64c-19 -87 -79 -143 -167 -143z" />
    <glyph glyph-name="gdotaccent.alt" horiz-adv-x="513" 
d="M190 -1c-92 0 -163 66 -163 190c0 149 101 250 220 250c72 0 118 -38 140 -91l15 80h80l-85 -482c-20 -111 -105 -156 -207 -156c-63 0 -135 17 -174 34l12 69c41 -18 103 -34 153 -34c65 0 119 27 131 92l21 115c-36 -41 -85 -67 -143 -67zM217 66c87 0 147 85 147 181
c0 76 -36 125 -104 125c-85 0 -146 -80 -146 -180c0 -79 38 -126 103 -126zM287 509c-31 0 -57 26 -57 57s25 57 57 57s58 -25 58 -57c0 -31 -26 -57 -58 -57z" />
    <glyph glyph-name="uni0123.alt" horiz-adv-x="513" 
d="M284 503c-35 0 -52 25 -52 56c0 54 49 112 115 159l33 -29c-36 -36 -66 -71 -66 -112c0 -25 11 -40 28 -48l-2 -7c-18 -12 -37 -19 -56 -19zM190 -1c-92 0 -163 66 -163 190c0 149 101 250 220 250c72 0 118 -38 140 -91l15 80h80l-85 -482c-20 -111 -105 -156 -207 -156
c-63 0 -135 17 -174 34l12 69c41 -18 103 -34 153 -34c65 0 119 27 131 92l21 115c-36 -41 -85 -67 -143 -67zM217 66c87 0 147 85 147 181c0 76 -36 125 -104 125c-85 0 -146 -80 -146 -180c0 -79 38 -126 103 -126z" />
    <glyph glyph-name="ampersand.alt" horiz-adv-x="548" 
d="M219 -11c-114 0 -196 50 -196 157c0 96 67 150 150 174c-47 22 -77 59 -77 120c0 105 89 178 237 178c63 0 129 -13 178 -29l-22 -128h-77l13 78c-23 6 -59 12 -94 12c-88 0 -151 -37 -151 -111c0 -62 45 -94 120 -94h243l-11 -64h-58l-20 -107
c-19 -109 -94 -186 -235 -186zM222 57c91 0 139 53 151 118l19 107h-103c-105 0 -179 -47 -179 -132c0 -64 44 -93 112 -93z" />
    <glyph glyph-name="Agrave" unicode="&#xc0;" horiz-adv-x="681" 
d="M-45 0l13 71h78l269 467h-87l12 71h218l121 -538h79l-13 -71h-256l12 71h90l-26 117h-260l-66 -117h90l-13 -71h-261zM245 259h206l-56 265zM437 666l-164 130l57 61l139 -157z" />
    <glyph glyph-name="Aacute" unicode="&#xc1;" horiz-adv-x="681" 
d="M-45 0l13 71h78l269 467h-87l12 71h218l121 -538h79l-13 -71h-256l12 71h90l-26 117h-260l-66 -117h90l-13 -71h-261zM245 259h206l-56 265zM358 666l-28 34l171 157l50 -64z" />
    <glyph glyph-name="Acircumflex" unicode="&#xc2;" horiz-adv-x="681" 
d="M-45 0l13 71h78l269 467h-87l12 71h218l121 -538h79l-13 -71h-256l12 71h90l-26 117h-260l-66 -117h90l-13 -71h-261zM245 259h206l-56 265zM252 666l-18 26l162 134h55l107 -134l-23 -26l-125 77z" />
    <glyph glyph-name="Atilde" unicode="&#xc3;" horiz-adv-x="681" 
d="M-45 0l13 71h78l269 467h-87l12 71h218l121 -538h79l-13 -71h-256l12 71h90l-26 117h-260l-66 -117h90l-13 -71h-261zM245 259h206l-56 265zM260 670l-31 18c17 35 58 107 119 107c51 0 87 -51 134 -51c33 0 53 23 72 53l31 -19c-19 -37 -63 -107 -121 -107
c-49 0 -90 52 -133 52c-27 0 -48 -20 -71 -53z" />
    <glyph glyph-name="Adieresis" unicode="&#xc4;" horiz-adv-x="681" 
d="M-45 0l13 71h78l269 467h-87l12 71h218l121 -538h79l-13 -71h-256l12 71h90l-26 117h-260l-66 -117h90l-13 -71h-261zM245 259h206l-56 265zM318 671c-30 0 -53 23 -53 53c0 29 23 53 53 53c29 0 53 -24 53 -53c0 -30 -24 -53 -53 -53zM502 671c-30 0 -53 23 -53 53
c0 29 23 53 53 53c29 0 53 -24 53 -53c0 -30 -24 -53 -53 -53z" />
    <glyph glyph-name="Aring" unicode="&#xc5;" horiz-adv-x="681" 
d="M-45 0l13 71h78l269 467h-87l12 71h218l121 -538h79l-13 -71h-256l12 71h90l-26 117h-260l-66 -117h90l-13 -71h-261zM245 259h206l-56 265zM409 659c-69 0 -107 39 -107 95c0 60 46 120 131 120c68 0 105 -39 105 -94c0 -61 -44 -121 -129 -121zM412 709
c38 0 61 34 61 68c0 26 -14 47 -44 47c-38 0 -61 -34 -61 -68c0 -26 13 -47 44 -47z" />
    <glyph glyph-name="Amacron" unicode="&#x100;" horiz-adv-x="681" 
d="M-45 0l13 71h78l269 467h-87l12 71h218l121 -538h79l-13 -71h-256l12 71h90l-26 117h-260l-66 -117h90l-13 -71h-261zM245 259h206l-56 265zM262 675l12 65h273l-12 -65h-273z" />
    <glyph glyph-name="Abreve" unicode="&#x102;" horiz-adv-x="681" 
d="M-45 0l13 71h78l269 467h-87l12 71h218l121 -538h79l-13 -71h-256l12 71h90l-26 117h-260l-66 -117h90l-13 -71h-261zM245 259h206l-56 265zM400 663c-95 0 -137 65 -127 144h64c-4 -51 19 -76 69 -76c48 0 82 22 97 76h64c-18 -88 -79 -144 -167 -144z" />
    <glyph glyph-name="Aogonek" unicode="&#x104;" horiz-adv-x="681" 
d="M522 -203c-50 0 -89 20 -89 74c0 56 43 99 89 129h-133l12 71h90l-26 117h-260l-66 -117h90l-13 -71h-261l13 71h78l269 467h-87l12 71h218l121 -538h79l-13 -71h-52c-38 -25 -84 -68 -84 -112c0 -27 18 -36 41 -36c22 0 49 8 64 16l-4 -54c-22 -8 -56 -17 -88 -17z
M245 259h206l-56 265z" />
    <glyph glyph-name="AE" unicode="&#xc6;" horiz-adv-x="948" 
d="M-49 0l12 70h78l395 469h-84l11 70h597l-29 -171h-82l18 100h-230l-35 -196h247l-12 -71h-247l-35 -200h231l20 103h82l-32 -174h-489l12 71h90l21 122h-247l-103 -123h84l-12 -70h-261zM300 263h202l49 275h-23z" />
    <glyph glyph-name="AEacute" unicode="&#x1fc;" horiz-adv-x="948" 
d="M-49 0l12 70h78l395 469h-84l11 70h597l-29 -171h-82l18 100h-230l-35 -196h247l-12 -71h-247l-35 -200h231l20 103h82l-32 -174h-489l12 71h90l21 122h-247l-103 -123h84l-12 -70h-261zM300 263h202l49 275h-23zM620 666l-27 34l171 157l49 -64z" />
    <glyph glyph-name="Ccedilla" unicode="&#xc7;" horiz-adv-x="611" 
d="M271 -203c-34 0 -65 6 -87 15l15 49c20 -8 43 -14 68 -14c31 0 53 9 53 32c0 29 -36 38 -72 38l5 19l36 55c-143 15 -244 109 -244 274c0 191 140 356 363 356c81 0 158 -21 217 -48l-26 -157h-82l20 112c-34 11 -83 21 -128 21c-166 0 -274 -128 -274 -282
c0 -144 94 -204 206 -204c76 0 153 27 216 63l-14 -86c-44 -23 -117 -49 -200 -52l-20 -37c40 -6 73 -27 73 -71c0 -57 -56 -83 -125 -83z" />
    <glyph glyph-name="Cacute" unicode="&#x106;" horiz-adv-x="611" 
d="M332 -12c-165 0 -287 97 -287 277c0 191 140 356 363 356c81 0 158 -21 217 -48l-26 -157h-82l20 112c-34 11 -83 21 -128 21c-166 0 -274 -128 -274 -282c0 -144 94 -204 206 -204c76 0 153 27 216 63l-14 -86c-46 -24 -123 -52 -211 -52zM382 669l-27 35l171 156
l49 -64z" />
    <glyph glyph-name="Ccircumflex" unicode="&#x108;" horiz-adv-x="611" 
d="M332 -12c-165 0 -287 97 -287 277c0 191 140 356 363 356c81 0 158 -21 217 -48l-26 -157h-82l20 112c-34 11 -83 21 -128 21c-166 0 -274 -128 -274 -282c0 -144 94 -204 206 -204c76 0 153 27 216 63l-14 -86c-46 -24 -123 -52 -211 -52zM283 669l-18 26l162 134h55
l107 -134l-23 -26l-125 77z" />
    <glyph glyph-name="Cdotaccent" unicode="&#x10a;" horiz-adv-x="611" 
d="M332 -12c-165 0 -287 97 -287 277c0 191 140 356 363 356c81 0 158 -21 217 -48l-26 -157h-82l20 112c-34 11 -83 21 -128 21c-166 0 -274 -128 -274 -282c0 -144 94 -204 206 -204c76 0 153 27 216 63l-14 -86c-46 -24 -123 -52 -211 -52zM438 672c-32 0 -58 26 -58 58
c0 31 26 57 58 57s58 -25 58 -57s-26 -58 -58 -58z" />
    <glyph glyph-name="Ccaron" unicode="&#x10c;" horiz-adv-x="611" 
d="M332 -12c-165 0 -287 97 -287 277c0 191 140 356 363 356c81 0 158 -21 217 -48l-26 -157h-82l20 112c-34 11 -83 21 -128 21c-166 0 -274 -128 -274 -282c0 -144 94 -204 206 -204c76 0 153 27 216 63l-14 -86c-46 -24 -123 -52 -211 -52zM401 670l-109 134l23 26
l128 -78l155 78l19 -27l-161 -133h-55z" />
    <glyph glyph-name="Dcaron" unicode="&#x10e;" horiz-adv-x="684" 
d="M-6 0l12 71h89l83 467h-90l13 71h274c173 0 280 -88 280 -262c0 -196 -136 -347 -374 -347h-287zM184 71h101c176 0 279 116 279 274c0 125 -64 193 -197 193h-101zM354 668l-109 134l23 26l128 -78l156 78l18 -27l-160 -133h-56z" />
    <glyph glyph-name="Dcroat" unicode="&#x110;" horiz-adv-x="685" 
d="M51 271l12 72h81l34 195h-89l12 71h274c174 0 281 -88 281 -262c0 -196 -137 -347 -375 -347h-287l13 71h89l35 200h-80zM184 71h102c176 0 279 116 279 274c0 125 -64 193 -197 193h-101l-35 -195h169l-12 -72h-170z" />
    <glyph glyph-name="Egrave" unicode="&#xc8;" horiz-adv-x="578" 
d="M-6 0l12 71h89l83 467h-90l13 71h490l-30 -171h-82l18 100h-231l-34 -196h248l-12 -71h-249l-35 -200h233l18 103h82l-30 -174h-493zM409 666l-164 130l56 61l140 -157z" />
    <glyph glyph-name="Eacute" unicode="&#xc9;" horiz-adv-x="578" 
d="M-6 0l12 71h89l83 467h-90l13 71h490l-30 -171h-82l18 100h-231l-34 -196h248l-12 -71h-249l-35 -200h233l18 103h82l-30 -174h-493zM318 666l-27 34l171 157l49 -64z" />
    <glyph glyph-name="Ecircumflex" unicode="&#xca;" horiz-adv-x="578" 
d="M-6 0l12 71h89l83 467h-90l13 71h490l-30 -171h-82l18 100h-231l-34 -196h248l-12 -71h-249l-35 -200h233l18 103h82l-30 -174h-493zM224 666l-18 26l162 134h55l107 -134l-23 -26l-125 77z" />
    <glyph glyph-name="Edieresis" unicode="&#xcb;" horiz-adv-x="578" 
d="M-6 0l12 71h89l83 467h-90l13 71h490l-30 -171h-82l18 100h-231l-34 -196h248l-12 -71h-249l-35 -200h233l18 103h82l-30 -174h-493zM278 671c-30 0 -54 23 -54 53c0 29 24 53 54 53c29 0 53 -24 53 -53c0 -30 -24 -53 -53 -53zM462 671c-30 0 -53 23 -53 53
c0 29 23 53 53 53c29 0 53 -24 53 -53c0 -30 -24 -53 -53 -53z" />
    <glyph glyph-name="Emacron" unicode="&#x112;" horiz-adv-x="578" 
d="M-6 0l12 71h89l83 467h-90l13 71h490l-30 -171h-82l18 100h-231l-34 -196h248l-12 -71h-249l-35 -200h233l18 103h82l-30 -174h-493zM224 675l12 65h272l-12 -65h-272z" />
    <glyph glyph-name="Ebreve" unicode="&#x114;" horiz-adv-x="578" 
d="M-6 0l12 71h89l83 467h-90l13 71h490l-30 -171h-82l18 100h-231l-34 -196h248l-12 -71h-249l-35 -200h233l18 103h82l-30 -174h-493zM361 663c-94 0 -136 65 -126 144h63c-3 -51 20 -76 70 -76c47 0 82 22 97 76h64c-19 -88 -80 -144 -168 -144z" />
    <glyph glyph-name="Edotaccent" unicode="&#x116;" horiz-adv-x="578" 
d="M-6 0l12 71h89l83 467h-90l13 71h490l-30 -171h-82l18 100h-231l-34 -196h248l-12 -71h-249l-35 -200h233l18 103h82l-30 -174h-493zM370 667c-31 0 -57 26 -57 58c0 31 25 57 57 57s58 -25 58 -57c0 -31 -25 -58 -58 -58z" />
    <glyph glyph-name="Eogonek" unicode="&#x118;" horiz-adv-x="578" 
d="M-6 0l12 71h89l83 467h-90l13 71h490l-30 -171h-82l18 100h-231l-34 -196h248l-12 -71h-249l-35 -200h233l18 103h82l-30 -174h-43c-39 -25 -84 -68 -84 -112c0 -27 18 -36 40 -36s49 8 65 16l-4 -54c-22 -8 -56 -17 -89 -17c-50 0 -89 20 -89 74c0 56 43 99 90 129h-379
z" />
    <glyph glyph-name="Ecaron" unicode="&#x11a;" horiz-adv-x="578" 
d="M-6 0l12 71h89l83 467h-90l13 71h490l-30 -171h-82l18 100h-231l-34 -196h248l-12 -71h-249l-35 -200h233l18 103h82l-30 -174h-493zM334 668l-109 134l23 26l128 -78l155 78l19 -27l-161 -133h-55z" />
    <glyph glyph-name="Eth" unicode="&#xd0;" horiz-adv-x="685" 
d="M51 271l12 72h81l34 195h-89l12 71h274c174 0 281 -88 281 -262c0 -196 -137 -347 -375 -347h-287l13 71h89l35 200h-80zM184 71h102c176 0 279 116 279 274c0 125 -64 193 -197 193h-101l-35 -195h169l-12 -72h-170z" />
    <glyph glyph-name="Gcircumflex" unicode="&#x11c;" horiz-adv-x="692" 
d="M346 -12c-184 0 -300 102 -300 277c0 201 152 356 375 356c92 0 181 -26 236 -51l-25 -147h-83l17 100c-35 11 -87 24 -142 24c-169 0 -289 -118 -289 -278c0 -125 73 -206 220 -206c57 0 104 12 146 27l29 164h-142l12 70h281l-12 -70h-56l-38 -217
c-46 -21 -132 -49 -229 -49zM283 669l-18 26l161 134h55l108 -134l-23 -26l-126 77z" />
    <glyph glyph-name="Gbreve" unicode="&#x11e;" horiz-adv-x="692" 
d="M346 -12c-184 0 -300 102 -300 277c0 201 152 356 375 356c92 0 181 -26 236 -51l-25 -147h-83l17 100c-35 11 -87 24 -142 24c-169 0 -289 -118 -289 -278c0 -125 73 -206 220 -206c57 0 104 12 146 27l29 164h-142l12 70h281l-12 -70h-56l-38 -217
c-46 -21 -132 -49 -229 -49zM431 666c-94 0 -137 65 -126 144h63c-3 -50 20 -76 70 -76c47 0 82 23 97 76h63c-18 -87 -79 -144 -167 -144z" />
    <glyph glyph-name="Gdotaccent" unicode="&#x120;" horiz-adv-x="692" 
d="M346 -12c-184 0 -300 102 -300 277c0 201 152 356 375 356c92 0 181 -26 236 -51l-25 -147h-83l17 100c-35 11 -87 24 -142 24c-169 0 -289 -118 -289 -278c0 -125 73 -206 220 -206c57 0 104 12 146 27l29 164h-142l12 70h281l-12 -70h-56l-38 -217
c-46 -21 -132 -49 -229 -49zM437 672c-31 0 -57 26 -57 58c0 31 25 57 57 57s58 -25 58 -57s-25 -58 -58 -58z" />
    <glyph glyph-name="Gcommaaccent" unicode="&#x122;" horiz-adv-x="692" 
d="M302 -70c35 0 52 -25 52 -56c0 -54 -49 -112 -115 -159l-33 29c36 36 66 71 66 112c0 25 -11 40 -27 48l1 7c18 12 37 19 56 19zM346 -12c-184 0 -300 102 -300 277c0 201 152 356 375 356c92 0 181 -26 236 -51l-25 -147h-83l17 100c-35 11 -87 24 -142 24
c-169 0 -289 -118 -289 -278c0 -125 73 -206 220 -206c57 0 104 12 146 27l29 164h-142l12 70h281l-12 -70h-56l-38 -217c-46 -21 -132 -49 -229 -49z" />
    <glyph glyph-name="Hcircumflex" unicode="&#x124;" horiz-adv-x="755" 
d="M307 666l-18 26l162 134h55l107 -134l-23 -26l-125 77zM-6 0l12 71h89l83 467h-90l13 71h267l-12 -71h-90l-34 -195h323l34 195h-90l12 71h268l-12 -71h-90l-82 -467h89l-12 -71h-268l13 71h90l35 198h-323l-35 -198h90l-13 -71h-267z" />
    <glyph glyph-name="Hbar" unicode="&#x126;" horiz-adv-x="755" 
d="M76 418l8 48h82l13 72h-90l13 71h267l-12 -71h-90l-12 -72h323l12 72h-90l12 71h268l-12 -71h-90l-12 -72h81l-8 -48h-82l-61 -347h89l-12 -71h-268l13 71h90l35 198h-323l-35 -198h90l-13 -71h-267l12 71h89l61 347h-81zM233 343h323l13 78h-323z" />
    <glyph glyph-name="Igrave" unicode="&#xcc;" horiz-adv-x="344" 
d="M-6 0l12 71h89l83 467h-90l13 71h267l-13 -71h-89l-82 -467h89l-12 -71h-267zM296 666l-164 130l57 61l140 -157z" />
    <glyph glyph-name="Iacute" unicode="&#xcd;" horiz-adv-x="344" 
d="M-6 0l12 71h89l83 467h-90l13 71h267l-13 -71h-89l-82 -467h89l-12 -71h-267zM201 666l-27 34l171 157l49 -64z" />
    <glyph glyph-name="Icircumflex" unicode="&#xce;" horiz-adv-x="344" 
d="M-6 0l12 71h89l83 467h-90l13 71h267l-13 -71h-89l-82 -467h89l-12 -71h-267zM106 666l-18 26l162 134h55l107 -134l-23 -26l-126 77z" />
    <glyph glyph-name="Idieresis" unicode="&#xcf;" horiz-adv-x="344" 
d="M-6 0l12 71h89l83 467h-90l13 71h267l-13 -71h-89l-82 -467h89l-12 -71h-267zM160 671c-30 0 -53 23 -53 53c0 29 23 53 53 53c29 0 53 -24 53 -53c0 -30 -24 -53 -53 -53zM344 671c-29 0 -53 23 -53 53c0 29 24 53 53 53s53 -24 53 -53c0 -30 -24 -53 -53 -53z" />
    <glyph glyph-name="Itilde" unicode="&#x128;" horiz-adv-x="344" 
d="M-6 0l12 71h89l83 467h-90l13 71h267l-13 -71h-89l-82 -467h89l-12 -71h-267zM106 670l-32 18c18 35 58 107 119 107c52 0 87 -51 135 -51c33 0 52 23 71 53l32 -19c-20 -37 -64 -107 -121 -107c-50 0 -90 52 -134 52c-26 0 -48 -20 -70 -53z" />
    <glyph glyph-name="Imacron" unicode="&#x12a;" horiz-adv-x="344" 
d="M-6 0l12 71h89l83 467h-90l13 71h267l-13 -71h-89l-82 -467h89l-12 -71h-267zM109 675l12 65h273l-12 -65h-273z" />
    <glyph glyph-name="Ibreve" unicode="&#x12c;" horiz-adv-x="344" 
d="M-6 0l12 71h89l83 467h-90l13 71h267l-13 -71h-89l-82 -467h89l-12 -71h-267zM244 663c-95 0 -137 65 -127 144h64c-4 -51 19 -76 70 -76c47 0 81 22 97 76h63c-18 -88 -79 -144 -167 -144z" />
    <glyph glyph-name="Iogonek" unicode="&#x12e;" horiz-adv-x="344" 
d="M-6 0l12 71h89l83 467h-90l13 71h267l-13 -71h-89l-82 -467h89l-12 -71h-80c-38 -25 -84 -68 -84 -112c0 -27 18 -36 41 -36c21 0 48 8 64 16l-4 -54c-22 -8 -56 -17 -89 -17c-50 0 -89 20 -89 74c0 56 43 99 90 129h-116z" />
    <glyph glyph-name="Idotaccent" unicode="&#x130;" horiz-adv-x="344" 
d="M-6 0l12 71h89l83 467h-90l13 71h267l-13 -71h-89l-82 -467h89l-12 -71h-267zM254 667c-31 0 -57 26 -57 58c0 31 25 57 57 57s58 -25 58 -57c0 -31 -25 -58 -58 -58z" />
    <glyph glyph-name="Jcircumflex" unicode="&#x134;" horiz-adv-x="316" 
d="M-30 -173l-25 57c66 26 117 71 126 125l94 529h-83l12 71h254l-12 -71h-83l-95 -535c-20 -109 -104 -153 -188 -176zM92 666l-18 26l161 134h55l108 -134l-23 -26l-126 77z" />
    <glyph glyph-name="Kcommaaccent" unicode="&#x136;" horiz-adv-x="672" 
d="M336 -67c36 0 52 -24 52 -55c0 -54 -48 -112 -114 -159l-33 29c36 35 65 71 65 112c0 25 -10 39 -27 48l2 7c18 12 37 18 55 18zM469 0l-206 302l1 6l259 231h-77l11 70h257l-13 -71h-70l-264 -239l157 -228h104l-13 -71h-146zM-6 0l12 71h89l83 467h-90l13 71h265
l-12 -71h-88l-82 -467h96l-13 -71h-273z" />
    <glyph glyph-name="Lacute" unicode="&#x139;" horiz-adv-x="546" 
d="M-6 0l12 71h89l83 467h-90l13 71h280l-13 -71h-102l-82 -467h232l20 109h82l-32 -180h-492zM204 666l-28 34l171 157l50 -64z" />
    <glyph glyph-name="Lcommaaccent" unicode="&#x13b;" horiz-adv-x="546" 
d="M268 -67c36 0 52 -24 52 -55c0 -54 -48 -112 -115 -159l-32 29c35 35 65 71 65 112c0 25 -11 39 -27 48l1 7c19 12 38 18 56 18zM-6 0l12 71h89l83 467h-90l13 71h280l-13 -71h-102l-82 -467h232l20 109h82l-32 -180h-492z" />
    <glyph glyph-name="Lcaron" unicode="&#x13d;" horiz-adv-x="550" 
d="M494 617c36 0 52 -25 52 -56c0 -54 -49 -112 -115 -159l-32 29c35 36 65 71 65 112c0 25 -11 40 -27 48l1 7c18 12 38 19 56 19zM-6 0l12 71h89l83 467h-90l13 71h280l-13 -71h-102l-82 -467h232l20 109h82l-32 -180h-492z" />
    <glyph glyph-name="Ldot" unicode="&#x13f;" horiz-adv-x="546" 
d="M-6 0l12 71h89l83 467h-90l13 71h280l-13 -71h-102l-82 -467h232l20 109h82l-32 -180h-492zM426 275c-31 0 -57 26 -57 58c0 31 25 57 57 57s58 -25 58 -57c0 -31 -25 -58 -58 -58z" />
    <glyph glyph-name="Lslash" unicode="&#x141;" horiz-adv-x="547" 
d="M47 216l-16 51l109 51l39 220h-90l13 71h280l-13 -71h-102l-32 -178l178 83l16 -50l-205 -95l-39 -227h232l20 109h82l-32 -180h-492l12 71h89l33 184z" />
    <glyph glyph-name="Ntilde" unicode="&#xd1;" horiz-adv-x="744" 
d="M-6 0l12 71h89l83 467h-90l13 71h175l247 -473l71 402h-89l12 71h262l-12 -71h-89l-95 -538h-79l-252 481l-73 -410h90l-13 -71h-262zM308 670l-32 18c18 35 58 107 119 107c52 0 87 -51 135 -51c32 0 52 23 71 53l31 -19c-19 -37 -63 -107 -120 -107
c-50 0 -90 52 -134 52c-27 0 -48 -20 -70 -53z" />
    <glyph glyph-name="Nacute" unicode="&#x143;" horiz-adv-x="744" 
d="M-6 0l12 71h89l83 467h-90l13 71h175l247 -473l71 402h-89l12 71h262l-12 -71h-89l-95 -538h-79l-252 481l-73 -410h90l-13 -71h-262zM396 666l-27 34l171 157l50 -64z" />
    <glyph glyph-name="Ncommaaccent" unicode="&#x145;" horiz-adv-x="744" 
d="M341 -67c36 0 52 -24 52 -55c0 -54 -48 -112 -114 -159l-33 29c36 35 65 71 65 112c0 25 -10 39 -27 48l2 7c18 12 37 18 55 18zM-6 0l12 71h89l83 467h-90l13 71h175l247 -473l71 402h-89l12 71h262l-12 -71h-89l-95 -538h-79l-252 481l-73 -410h90l-13 -71h-262z" />
    <glyph glyph-name="Ncaron" unicode="&#x147;" horiz-adv-x="744" 
d="M-6 0l12 71h89l83 467h-90l13 71h175l247 -473l71 402h-89l12 71h262l-12 -71h-89l-95 -538h-79l-252 481l-73 -410h90l-13 -71h-262zM407 668l-109 134l23 26l127 -78l156 78l19 -27l-161 -133h-55z" />
    <glyph glyph-name="Eng" unicode="&#x14a;" horiz-adv-x="744" 
d="M-6 0l12 71h89l83 467h-90l13 71h175l250 -455l68 384h-89l12 71h262l-12 -71h-89l-94 -535c-20 -109 -105 -153 -189 -176l-24 57c65 26 116 71 126 125l4 23l-249 449l-73 -410h90l-13 -71h-262z" />
    <glyph glyph-name="Ograve" unicode="&#xd2;" horiz-adv-x="708" 
d="M323 -12c-172 0 -277 108 -277 275c0 195 144 358 355 358c172 0 279 -108 279 -275c0 -195 -144 -358 -357 -358zM325 62c147 0 264 119 264 281c0 129 -74 204 -190 204c-147 0 -263 -121 -263 -282c0 -129 73 -203 189 -203zM457 669l-164 131l57 60l140 -157z" />
    <glyph glyph-name="Oacute" unicode="&#xd3;" horiz-adv-x="708" 
d="M323 -12c-172 0 -277 108 -277 275c0 195 144 358 355 358c172 0 279 -108 279 -275c0 -195 -144 -358 -357 -358zM325 62c147 0 264 119 264 281c0 129 -74 204 -190 204c-147 0 -263 -121 -263 -282c0 -129 73 -203 189 -203zM382 669l-28 35l171 156l50 -64z" />
    <glyph glyph-name="Ocircumflex" unicode="&#xd4;" horiz-adv-x="708" 
d="M323 -12c-172 0 -277 108 -277 275c0 195 144 358 355 358c172 0 279 -108 279 -275c0 -195 -144 -358 -357 -358zM325 62c147 0 264 119 264 281c0 129 -74 204 -190 204c-147 0 -263 -121 -263 -282c0 -129 73 -203 189 -203zM281 669l-18 26l162 134h55l107 -134
l-23 -26l-125 77z" />
    <glyph glyph-name="Otilde" unicode="&#xd5;" horiz-adv-x="708" 
d="M323 -12c-172 0 -277 108 -277 275c0 195 144 358 355 358c172 0 279 -108 279 -275c0 -195 -144 -358 -357 -358zM325 62c147 0 264 119 264 281c0 129 -74 204 -190 204c-147 0 -263 -121 -263 -282c0 -129 73 -203 189 -203zM284 673l-32 18c18 35 59 107 119 107
c52 0 87 -51 135 -51c33 0 52 23 71 53l32 -19c-20 -37 -63 -107 -121 -107c-50 0 -90 52 -134 52c-26 0 -48 -20 -70 -53z" />
    <glyph glyph-name="Odieresis" unicode="&#xd6;" horiz-adv-x="708" 
d="M323 -12c-172 0 -277 108 -277 275c0 195 144 358 355 358c172 0 279 -108 279 -275c0 -195 -144 -358 -357 -358zM325 62c147 0 264 119 264 281c0 129 -74 204 -190 204c-147 0 -263 -121 -263 -282c0 -129 73 -203 189 -203zM338 674c-29 0 -53 23 -53 53
c0 29 24 53 53 53c30 0 53 -24 53 -53c0 -30 -23 -53 -53 -53zM522 674c-29 0 -53 23 -53 53c0 29 24 53 53 53c30 0 54 -24 54 -53c0 -30 -24 -53 -54 -53z" />
    <glyph glyph-name="Omacron" unicode="&#x14c;" horiz-adv-x="708" 
d="M323 -12c-172 0 -277 108 -277 275c0 195 144 358 355 358c172 0 279 -108 279 -275c0 -195 -144 -358 -357 -358zM325 62c147 0 264 119 264 281c0 129 -74 204 -190 204c-147 0 -263 -121 -263 -282c0 -129 73 -203 189 -203zM286 678l12 65h272l-12 -65h-272z" />
    <glyph glyph-name="Obreve" unicode="&#x14e;" horiz-adv-x="708" 
d="M323 -12c-172 0 -277 108 -277 275c0 195 144 358 355 358c172 0 279 -108 279 -275c0 -195 -144 -358 -357 -358zM325 62c147 0 264 119 264 281c0 129 -74 204 -190 204c-147 0 -263 -121 -263 -282c0 -129 73 -203 189 -203zM422 666c-94 0 -136 65 -126 144h63
c-3 -50 20 -76 70 -76c47 0 82 23 97 76h64c-19 -87 -80 -144 -168 -144z" />
    <glyph glyph-name="Ohungarumlaut" unicode="&#x150;" horiz-adv-x="708" 
d="M323 -12c-172 0 -277 108 -277 275c0 195 144 358 355 358c172 0 279 -108 279 -275c0 -195 -144 -358 -357 -358zM325 62c147 0 264 119 264 281c0 129 -74 204 -190 204c-147 0 -263 -121 -263 -282c0 -129 73 -203 189 -203zM318 670l-26 27l146 170l53 -58zM480 670
l-27 27l146 170l54 -58z" />
    <glyph glyph-name="Oslash" unicode="&#xd8;" horiz-adv-x="706" 
d="M321 -12c-77 0 -140 22 -187 61l-68 -69l-29 27l69 69c-40 46 -62 110 -62 186c0 193 144 359 356 359c76 0 140 -22 188 -62l69 70l29 -26l-70 -70c40 -47 63 -111 63 -187c0 -192 -145 -358 -358 -358zM324 62c146 0 264 122 264 282c0 50 -12 94 -34 126l-361 -362
c33 -30 76 -46 131 -46zM398 547c-148 0 -263 -124 -263 -283c0 -51 12 -93 33 -126l360 362c-33 30 -77 47 -130 47z" />
    <glyph glyph-name="Oslashacute" unicode="&#x1fe;" horiz-adv-x="706" 
d="M380 669l-28 35l171 156l50 -64zM321 -12c-77 0 -140 22 -187 61l-68 -69l-29 27l69 69c-40 46 -62 110 -62 186c0 193 144 359 356 359c76 0 140 -22 188 -62l69 70l29 -26l-70 -70c40 -47 63 -111 63 -187c0 -192 -145 -358 -358 -358zM324 62c146 0 264 122 264 282
c0 50 -12 94 -34 126l-361 -362c33 -30 76 -46 131 -46zM398 547c-148 0 -263 -124 -263 -283c0 -51 12 -93 33 -126l360 362c-33 30 -77 47 -130 47z" />
    <glyph glyph-name="OE" unicode="&#x152;" horiz-adv-x="877" 
d="M324 0c-172 0 -277 95 -277 263c0 191 137 346 360 346h483l-30 -171h-81l17 100h-229l-34 -196h247l-13 -71h-246l-36 -200h231l19 103h82l-31 -174h-462zM322 71h75l82 467h-76c-151 0 -266 -110 -266 -273c0 -127 70 -194 185 -194z" />
    <glyph glyph-name="Racute" unicode="&#x154;" horiz-adv-x="633" 
d="M322 666l-28 34l171 157l50 -64zM-6 0l12 71h89l83 467h-90l13 71h277c134 0 217 -63 217 -171c0 -99 -70 -168 -174 -191l72 -176h86l-12 -71h-137l-96 233h-122l-28 -162h89l-12 -71h-267zM225 302h105c125 0 175 65 175 135c0 61 -38 101 -133 101h-106z" />
    <glyph glyph-name="Rcommaaccent" unicode="&#x156;" horiz-adv-x="633" 
d="M309 -67c36 0 52 -24 52 -55c0 -54 -48 -112 -115 -159l-32 29c35 35 65 71 65 112c0 25 -11 39 -27 48l1 7c19 12 38 18 56 18zM-6 0l12 71h89l83 467h-90l13 71h277c134 0 217 -63 217 -171c0 -99 -70 -168 -174 -191l72 -176h86l-12 -71h-137l-96 233h-122l-28 -162
h89l-12 -71h-267zM225 302h105c125 0 175 65 175 135c0 61 -38 101 -133 101h-106z" />
    <glyph glyph-name="Rcaron" unicode="&#x158;" horiz-adv-x="633" 
d="M333 668l-109 134l22 26l128 -78l156 78l19 -27l-161 -133h-55zM-6 0l12 71h89l83 467h-90l13 71h277c134 0 217 -63 217 -171c0 -99 -70 -168 -174 -191l72 -176h86l-12 -71h-137l-96 233h-122l-28 -162h89l-12 -71h-267zM225 302h105c125 0 175 65 175 135
c0 61 -38 101 -133 101h-106z" />
    <glyph glyph-name="Sacute" unicode="&#x15a;" horiz-adv-x="519" 
d="M226 -12c-76 0 -159 15 -216 34l25 142h80l-16 -87c36 -10 80 -18 125 -18c102 0 153 41 153 101c0 142 -293 88 -293 283c0 96 70 178 227 178c69 0 143 -16 195 -33l-24 -139h-81l15 87c-29 8 -68 14 -103 14c-103 0 -141 -50 -141 -98c0 -130 292 -76 292 -286
c0 -112 -82 -178 -238 -178zM291 669l-28 35l171 156l50 -64z" />
    <glyph glyph-name="Scircumflex" unicode="&#x15c;" horiz-adv-x="519" 
d="M226 -12c-76 0 -159 15 -216 34l25 142h80l-16 -87c36 -10 80 -18 125 -18c102 0 153 41 153 101c0 142 -293 88 -293 283c0 96 70 178 227 178c69 0 143 -16 195 -33l-24 -139h-81l15 87c-29 8 -68 14 -103 14c-103 0 -141 -50 -141 -98c0 -130 292 -76 292 -286
c0 -112 -82 -178 -238 -178zM193 669l-18 26l162 134h55l107 -134l-23 -26l-126 77z" />
    <glyph glyph-name="Scedilla" unicode="&#x15e;" horiz-adv-x="518" 
d="M171 -203c-34 0 -65 6 -87 15l15 49c20 -8 43 -14 68 -14c31 0 53 9 53 32c0 29 -36 38 -72 38l5 19l35 53c-65 5 -130 17 -178 33l25 142h80l-16 -87c36 -10 80 -18 125 -18c102 0 153 41 153 101c0 142 -293 88 -293 283c0 96 70 178 227 178c69 0 143 -16 195 -33
l-24 -139h-81l15 87c-29 8 -68 14 -103 14c-103 0 -141 -50 -141 -98c0 -130 292 -76 292 -286c0 -108 -76 -173 -221 -177l-20 -38c40 -6 73 -27 73 -71c0 -57 -56 -83 -125 -83z" />
    <glyph glyph-name="Scommaaccent" unicode="&#x218;" horiz-adv-x="519" 
d="M212 -70c35 0 52 -25 52 -56c0 -54 -49 -112 -115 -159l-33 29c36 36 66 71 66 112c0 25 -11 40 -27 48l1 7c18 12 37 19 56 19zM226 -12c-76 0 -159 15 -216 34l25 142h80l-16 -87c36 -10 80 -18 125 -18c102 0 153 41 153 101c0 142 -293 88 -293 283
c0 96 70 178 227 178c69 0 143 -16 195 -33l-24 -139h-81l15 87c-29 8 -68 14 -103 14c-103 0 -141 -50 -141 -98c0 -130 292 -76 292 -286c0 -112 -82 -178 -238 -178z" />
    <glyph glyph-name="Scaron" unicode="&#x160;" horiz-adv-x="519" 
d="M226 -12c-76 0 -159 15 -216 34l25 142h80l-16 -87c36 -10 80 -18 125 -18c102 0 153 41 153 101c0 142 -293 88 -293 283c0 96 70 178 227 178c69 0 143 -16 195 -33l-24 -139h-81l15 87c-29 8 -68 14 -103 14c-103 0 -141 -50 -141 -98c0 -130 292 -76 292 -286
c0 -112 -82 -178 -238 -178zM301 670l-109 134l23 26l128 -78l155 78l19 -27l-161 -133h-55z" />
    <glyph glyph-name="Tcommaaccent" unicode="&#x162;" horiz-adv-x="580" 
d="M228 -67c36 0 52 -24 52 -55c0 -54 -49 -112 -115 -159l-33 29c36 35 66 71 66 112c0 25 -11 39 -27 48l1 7c18 12 37 18 56 18zM104 0l13 71h96l82 467h-146l-17 -101h-80l30 172h540l-30 -172h-80l17 101h-145l-83 -467h97l-13 -71h-281z" />
    <glyph glyph-name="uni021A" unicode="&#x21a;" horiz-adv-x="580" 
d="M228 -67c36 0 52 -24 52 -55c0 -54 -49 -112 -115 -159l-33 29c36 35 66 71 66 112c0 25 -11 39 -27 48l1 7c18 12 37 18 56 18zM104 0l13 71h96l82 467h-146l-17 -101h-80l30 172h540l-30 -172h-80l17 101h-145l-83 -467h97l-13 -71h-281z" />
    <glyph glyph-name="Tcaron" unicode="&#x164;" horiz-adv-x="580" 
d="M104 0l13 71h96l82 467h-146l-17 -101h-80l30 172h540l-30 -172h-80l17 101h-145l-83 -467h97l-13 -71h-281zM329 668l-109 134l23 26l127 -78l156 78l19 -27l-161 -133h-55z" />
    <glyph glyph-name="Tbar" unicode="&#x166;" horiz-adv-x="583" 
d="M116 264l11 61h131l38 213h-146l-18 -101h-80l31 172h540l-30 -172h-81l18 101h-146l-38 -213h132l-11 -61h-131l-34 -193h96l-12 -71h-281l12 71h97l34 193h-132z" />
    <glyph glyph-name="Thorn" unicode="&#xde;" horiz-adv-x="571" 
d="M-6 0l13 69h85l83 471h-85l11 69h277l-11 -67h-104l-10 -58h80c135 0 223 -52 223 -163c0 -118 -99 -190 -269 -190h-97l-11 -64h104l-12 -67h-277zM203 201h90c118 0 173 48 173 120c0 59 -37 94 -135 94h-90z" />
    <glyph glyph-name="Ugrave" unicode="&#xd9;" horiz-adv-x="688" 
d="M310 -12c-148 0 -238 91 -211 244l54 306h-89l12 71h267l-12 -71h-90l-57 -322c-18 -99 36 -150 126 -150c88 0 161 49 178 149l58 323h-92l12 71h265l-12 -71h-90l-57 -325c-26 -145 -124 -225 -262 -225zM449 666l-164 130l57 61l140 -157z" />
    <glyph glyph-name="Uacute" unicode="&#xda;" horiz-adv-x="688" 
d="M310 -12c-148 0 -238 91 -211 244l54 306h-89l12 71h267l-12 -71h-90l-57 -322c-18 -99 36 -150 126 -150c88 0 161 49 178 149l58 323h-92l12 71h265l-12 -71h-90l-57 -325c-26 -145 -124 -225 -262 -225zM377 666l-28 34l171 157l50 -64z" />
    <glyph glyph-name="Ucircumflex" unicode="&#xdb;" horiz-adv-x="688" 
d="M310 -12c-148 0 -238 91 -211 244l54 306h-89l12 71h267l-12 -71h-90l-57 -322c-18 -99 36 -150 126 -150c88 0 161 49 178 149l58 323h-92l12 71h265l-12 -71h-90l-57 -325c-26 -145 -124 -225 -262 -225zM270 666l-18 26l162 134h55l107 -134l-23 -26l-126 77z" />
    <glyph glyph-name="Udieresis" unicode="&#xdc;" horiz-adv-x="688" 
d="M310 -12c-148 0 -238 91 -211 244l54 306h-89l12 71h267l-12 -71h-90l-57 -322c-18 -99 36 -150 126 -150c88 0 161 49 178 149l58 323h-92l12 71h265l-12 -71h-90l-57 -325c-26 -145 -124 -225 -262 -225zM329 671c-29 0 -53 23 -53 53c0 29 24 53 53 53
c30 0 53 -24 53 -53c0 -30 -23 -53 -53 -53zM513 671c-29 0 -53 23 -53 53c0 29 24 53 53 53c30 0 54 -24 54 -53c0 -30 -24 -53 -54 -53z" />
    <glyph glyph-name="Utilde" unicode="&#x168;" horiz-adv-x="688" 
d="M310 -12c-148 0 -238 91 -211 244l54 306h-89l12 71h267l-12 -71h-90l-57 -322c-18 -99 36 -150 126 -150c88 0 161 49 178 149l58 323h-92l12 71h265l-12 -71h-90l-57 -325c-26 -145 -124 -225 -262 -225zM277 670l-32 18c18 35 58 107 119 107c52 0 87 -51 135 -51
c32 0 52 23 71 53l31 -19c-19 -37 -63 -107 -120 -107c-50 0 -91 52 -134 52c-27 0 -48 -20 -70 -53z" />
    <glyph glyph-name="Umacron" unicode="&#x16a;" horiz-adv-x="688" 
d="M310 -12c-148 0 -238 91 -211 244l54 306h-89l12 71h267l-12 -71h-90l-57 -322c-18 -99 36 -150 126 -150c88 0 161 49 178 149l58 323h-92l12 71h265l-12 -71h-90l-57 -325c-26 -145 -124 -225 -262 -225zM275 675l12 65h272l-12 -65h-272z" />
    <glyph glyph-name="Ubreve" unicode="&#x16c;" horiz-adv-x="688" 
d="M310 -12c-148 0 -238 91 -211 244l54 306h-89l12 71h267l-12 -71h-90l-57 -322c-18 -99 36 -150 126 -150c88 0 161 49 178 149l58 323h-92l12 71h265l-12 -71h-90l-57 -325c-26 -145 -124 -225 -262 -225zM412 663c-94 0 -136 65 -126 144h64c-4 -51 19 -76 69 -76
c48 0 82 22 97 76h64c-18 -88 -79 -144 -168 -144z" />
    <glyph glyph-name="Uring" unicode="&#x16e;" horiz-adv-x="688" 
d="M310 -12c-148 0 -238 91 -211 244l54 306h-89l12 71h267l-12 -71h-90l-57 -322c-18 -99 36 -150 126 -150c88 0 161 49 178 149l58 323h-92l12 71h265l-12 -71h-90l-57 -325c-26 -145 -124 -225 -262 -225zM417 659c-69 0 -107 39 -107 95c0 60 46 120 130 120
c68 0 106 -39 106 -94c0 -61 -44 -121 -129 -121zM420 709c38 0 61 34 61 68c0 26 -14 47 -44 47c-38 0 -61 -34 -61 -68c0 -26 13 -47 44 -47z" />
    <glyph glyph-name="Uhungarumlaut" unicode="&#x170;" horiz-adv-x="688" 
d="M310 -12c-148 0 -238 91 -211 244l54 306h-89l12 71h267l-12 -71h-90l-57 -322c-18 -99 36 -150 126 -150c88 0 161 49 178 149l58 323h-92l12 71h265l-12 -71h-90l-57 -325c-26 -145 -124 -225 -262 -225zM311 666l-26 28l146 170l54 -58zM473 666l-27 28l147 170
l53 -58z" />
    <glyph glyph-name="Uogonek" unicode="&#x172;" horiz-adv-x="689" 
d="M331 -203c-50 0 -88 22 -88 74c0 50 36 90 78 117c-147 -4 -251 80 -222 244l54 306h-89l12 71h267l-12 -71h-90l-57 -322c-18 -100 37 -150 126 -150c88 0 161 49 178 149l58 323h-92l12 71h265l-12 -71h-90l-57 -325c-23 -129 -91 -171 -135 -197
c-53 -31 -118 -71 -118 -127c0 -26 15 -37 40 -37c22 0 49 8 65 15l-4 -52c-22 -9 -56 -18 -89 -18z" />
    <glyph glyph-name="Wcircumflex" unicode="&#x174;" horiz-adv-x="930" 
d="M197 0l-78 538h-75l12 71h252l-13 -71h-94l60 -431l204 383l-8 48h-81l12 71h260l-12 -71h-95l69 -429l207 429h-94l13 71h255l-13 -71h-76l-263 -538h-86l-67 373l-202 -373h-87zM388 666l-19 26l162 134h55l107 -134l-22 -26l-126 77z" />
    <glyph glyph-name="Yacute" unicode="&#xdd;" horiz-adv-x="629" 
d="M131 0l13 71h92l26 148l-143 319h-78l13 71h262l-13 -70h-94l105 -241l190 241h-93l12 70h269l-12 -71h-76l-253 -316l-27 -151h92l-13 -71h-272zM345 666l-28 34l171 157l50 -64z" />
    <glyph glyph-name="Ydieresis" unicode="&#x178;" horiz-adv-x="629" 
d="M131 0l13 71h92l26 148l-143 319h-78l13 71h262l-13 -70h-94l105 -241l190 241h-93l12 70h269l-12 -71h-76l-253 -316l-27 -151h92l-13 -71h-272zM295 671c-30 0 -53 23 -53 53c0 29 23 53 53 53c29 0 53 -24 53 -53c0 -30 -24 -53 -53 -53zM479 671c-29 0 -53 23 -53 53
c0 29 24 53 53 53s53 -24 53 -53c0 -30 -24 -53 -53 -53z" />
    <glyph glyph-name="Ycircumflex" unicode="&#x176;" horiz-adv-x="629" 
d="M131 0l13 71h92l26 148l-143 319h-78l13 71h262l-13 -70h-94l105 -241l190 241h-93l12 70h269l-12 -71h-76l-253 -316l-27 -151h92l-13 -71h-272zM236 666l-18 26l161 134h56l107 -134l-23 -26l-126 77z" />
    <glyph glyph-name="Zcaron" unicode="&#x17d;" horiz-adv-x="575" 
d="M18 0l-21 43l445 492h-267l-18 -105h-82l31 179h455l25 -39l-449 -496h286l19 111h82l-32 -185h-474zM315 668l-109 134l23 26l127 -78l156 78l19 -27l-161 -133h-55z" />
    <glyph glyph-name="Zacute" unicode="&#x179;" horiz-adv-x="575" 
d="M18 0l-21 43l445 492h-267l-18 -105h-82l31 179h455l25 -39l-449 -496h286l19 111h82l-32 -185h-474zM310 666l-27 34l171 157l50 -64z" />
    <glyph glyph-name="Zdotaccent" unicode="&#x17b;" horiz-adv-x="575" 
d="M18 0l-21 43l445 492h-267l-18 -105h-82l31 179h455l25 -39l-449 -496h286l19 111h82l-32 -185h-474zM348 667c-31 0 -58 26 -58 58c0 31 26 57 58 57s58 -25 58 -57c0 -31 -25 -58 -58 -58z" />
    <glyph glyph-name="dieresis.cap" unicode="&#xf6cb;" horiz-adv-x="436" 
d="M116 671c-29 0 -53 23 -53 53c0 29 24 53 53 53s53 -24 53 -53c0 -30 -24 -53 -53 -53zM300 671c-29 0 -53 23 -53 53c0 29 24 53 53 53s53 -24 53 -53c0 -30 -24 -53 -53 -53z" />
    <glyph glyph-name="grave.cap" unicode="&#xf6ce;" horiz-adv-x="346" 
d="M229 666l-164 130l57 61l139 -157z" />
    <glyph glyph-name="tilde.cap" unicode="&#xeff5;" horiz-adv-x="466" 
d="M85 670l-31 18c17 35 58 107 119 107c51 0 87 -51 134 -51c33 0 53 23 72 53l31 -19c-19 -37 -63 -107 -121 -107c-49 0 -90 52 -133 52c-27 0 -48 -20 -71 -53z" />
    <glyph glyph-name="circumflex.cap" unicode="&#xeff7;" horiz-adv-x="434" 
d="M74 666l-19 26l162 134h55l107 -134l-22 -26l-126 77z" />
    <glyph glyph-name="acute.cap" unicode="&#xf6c9;" horiz-adv-x="346" 
d="M84 666l-28 34l171 157l50 -64z" />
    <glyph glyph-name="ring.cap" unicode="&#xeff3;" horiz-adv-x="352" 
d="M171 659c-69 0 -107 39 -107 95c0 60 46 120 130 120c68 0 106 -39 106 -94c0 -61 -44 -121 -129 -121zM174 709c38 0 60 34 60 68c0 26 -13 47 -43 47c-38 0 -61 -34 -61 -68c0 -26 13 -47 44 -47z" />
    <glyph glyph-name="cedilla.cap" unicode="&#xeff2;" horiz-adv-x="304" 
d="M119 -203c-34 0 -65 6 -87 15l15 49c20 -8 43 -14 68 -14c31 0 53 9 53 32c0 29 -37 38 -72 38l5 19l68 101l42 -12l-40 -74c40 -6 73 -27 73 -71c0 -57 -56 -83 -125 -83z" />
    <glyph glyph-name="caron.cap" unicode="&#xf6ca;" horiz-adv-x="436" 
d="M174 668l-109 134l23 26l128 -78l155 78l19 -27l-161 -133h-55z" />
    <glyph glyph-name="ogonek.cap" unicode="&#xeff1;" horiz-adv-x="297" 
d="M202 35l24 -21c-44 -24 -107 -74 -107 -126c0 -27 18 -36 41 -36c22 0 49 8 64 16l-4 -54c-22 -8 -56 -17 -88 -17c-50 0 -89 20 -89 74c0 84 96 139 159 164z" />
    <glyph glyph-name="breve.cap" unicode="&#xefee;" horiz-adv-x="386" 
d="M184 663c-95 0 -137 65 -127 144h64c-4 -51 19 -76 69 -76c48 0 82 22 97 76h64c-18 -88 -79 -144 -167 -144z" />
    <glyph glyph-name="hungarumlaut.cap" unicode="&#xf6cf;" horiz-adv-x="515" 
d="M92 666l-26 28l146 170l54 -58zM254 666l-27 28l146 170l54 -58z" />
    <glyph glyph-name="dotaccent.cap" unicode="&#xefed;" horiz-adv-x="239" 
d="M121 667c-32 0 -58 26 -58 58c0 31 26 57 58 57s58 -25 58 -57c0 -31 -26 -58 -58 -58z" />
    <glyph glyph-name="macron.cap" unicode="&#xf6d0;" horiz-adv-x="419" 
d="M64 675l12 65h273l-12 -65h-273z" />
    <glyph glyph-name="exclamdown.cap" unicode="&#xf6b4;" horiz-adv-x="251" 
d="M34 0l92 442h65l-63 -442h-94zM177 503c-32 0 -58 26 -58 57c0 32 26 58 58 58s58 -26 58 -58c0 -31 -26 -57 -58 -57z" />
    <glyph glyph-name="questiondown.cap" unicode="&#xf6b5;" horiz-adv-x="380" 
d="M179 -12c-93 0 -159 44 -159 130c0 153 210 191 200 324h77c13 -159 -190 -202 -190 -319c0 -45 29 -69 88 -69c41 0 86 11 122 23l-12 -68c-37 -11 -82 -21 -126 -21zM270 503c-32 0 -58 26 -58 57c0 32 26 58 58 58c31 0 57 -26 57 -58c0 -31 -26 -57 -57 -57z" />
    <glyph glyph-name="guilsinglleft.cap" unicode="&#xf6b8;" horiz-adv-x="337" 
d="M169 121l-119 181l1 4l183 182h100l-196 -192l120 -175h-89z" />
    <glyph glyph-name="guilsinglright.cap" unicode="&#xf6b9;" horiz-adv-x="337" 
d="M20 121l196 191l-120 176h90l119 -182l-1 -4l-183 -181h-101z" />
    <glyph glyph-name="guillemotleft.cap" unicode="&#xf6b6;" horiz-adv-x="562" 
d="M169 121l-119 181l1 4l183 182h100l-196 -192l120 -175h-89zM393 121l-119 181l1 4l183 182h101l-197 -192l120 -175h-89z" />
    <glyph glyph-name="guillemotright.cap" unicode="&#xf6b7;" horiz-adv-x="561" 
d="M244 121l197 191l-120 176h89l119 -182l-1 -4l-183 -181h-101zM20 121l196 191l-120 176h90l119 -182l-1 -4l-183 -181h-101z" />
    <glyph glyph-name="slash.cap" horiz-adv-x="545" 
d="M-47 -149l576 905h80l-575 -905h-81z" />
    <glyph glyph-name="backslash.cap" horiz-adv-x="529" 
d="M360 -149l-256 905h81l256 -905h-81z" />
    <glyph glyph-name="bar.cap" horiz-adv-x="235" 
d="M7 -149l160 905h79l-160 -905h-79z" />
    <glyph glyph-name="brokenbar.cap" horiz-adv-x="239" 
d="M104 392l65 364h79l-65 -364h-79zM9 -149l70 400h79l-70 -400h-79z" />
    <glyph glyph-name="bullet.cap" horiz-adv-x="355" 
d="M184 194c-61 0 -110 50 -110 111s49 110 110 110s111 -49 111 -110s-50 -111 -111 -111z" />
    <glyph glyph-name="periodcentered.cap" unicode="&#xf6bd;" horiz-adv-x="217" 
d="M115 247c-31 0 -56 25 -56 56s25 57 56 57s57 -26 57 -57s-26 -56 -57 -56z" />
    <glyph glyph-name="hyphen.cap" unicode="&#xf6ba;" horiz-adv-x="388" 
d="M59 268l13 73h273l-13 -73h-273z" />
    <glyph glyph-name="endash.cap" unicode="&#xf6bb;" horiz-adv-x="622" 
d="M59 268l13 73h507l-13 -73h-507z" />
    <glyph glyph-name="emdash.cap" unicode="&#xf6bc;" horiz-adv-x="832" 
d="M59 268l13 73h717l-13 -73h-717z" />
    <glyph glyph-name="parenleft.cap" unicode="&#xf6ae;" horiz-adv-x="272" 
d="M109 -149c-50 102 -75 236 -75 344c0 209 91 403 233 561h90c-141 -160 -240 -352 -240 -565c0 -105 24 -240 79 -340h-87z" />
    <glyph glyph-name="parenright.cap" unicode="&#xf6af;" horiz-adv-x="272" 
d="M-68 -149c141 161 240 353 240 565c0 106 -24 241 -79 340h87c50 -102 74 -235 74 -343c0 -210 -90 -404 -232 -562h-90z" />
    <glyph glyph-name="bracketleft.cap" unicode="&#xf6b0;" horiz-adv-x="296" 
d="M7 -149l160 905h200l-10 -59h-122l-139 -787h122l-11 -59h-200z" />
    <glyph glyph-name="bracketright.cap" unicode="&#xf6b1;" horiz-adv-x="296" 
d="M-54 -149l11 59h122l138 787h-122l11 59h200l-160 -905h-200z" />
    <glyph glyph-name="braceleft.cap" unicode="&#xf6b2;" horiz-adv-x="300" 
d="M142 -162c-72 0 -100 45 -100 92c0 74 71 169 71 250c0 50 -28 85 -103 91l12 66c153 9 144 124 144 224c0 105 14 208 134 208c27 0 47 -5 64 -11l-8 -52c-13 4 -30 8 -46 8c-69 0 -66 -68 -66 -131c0 -125 9 -256 -136 -283c62 -13 81 -69 81 -118
c0 -96 -70 -189 -70 -251c0 -21 9 -36 42 -36c17 0 38 4 52 7l-10 -54c-21 -6 -40 -10 -61 -10z" />
    <glyph glyph-name="braceright.cap" unicode="&#xf6b3;" horiz-adv-x="301" 
d="M18 -161c-27 0 -47 5 -65 11l9 52c13 -4 30 -8 45 -8c69 0 66 68 66 131c0 125 -8 256 136 283c-62 13 -81 69 -81 118c0 96 70 189 70 251c0 21 -8 36 -41 36c-18 0 -39 -4 -52 -7l9 54c21 6 40 10 61 10c72 0 101 -45 101 -92c0 -74 -71 -169 -71 -250
c0 -50 27 -85 102 -91l-11 -66c-154 -9 -144 -124 -144 -224c0 -105 -14 -208 -134 -208z" />
    <glyph glyph-name="at.cap" unicode="&#xf633;" horiz-adv-x="750" 
d="M326 118c-74 0 -122 54 -122 136c0 113 91 221 210 221c63 0 97 -31 107 -71h2c5 13 21 45 27 55h51c-33 -79 -74 -181 -74 -245c0 -33 10 -54 39 -54c58 0 122 77 122 197c0 146 -98 245 -243 245c-180 0 -356 -151 -356 -342c0 -147 105 -261 258 -261
c62 0 123 18 177 51l18 -35c-61 -36 -124 -58 -195 -58c-178 0 -301 134 -301 303c0 214 196 384 398 384c165 0 287 -112 287 -289c0 -144 -82 -237 -174 -237c-66 0 -84 49 -84 74h-4c-35 -43 -86 -74 -143 -74zM343 171c78 0 145 85 145 172c0 52 -24 80 -69 80
c-79 0 -148 -82 -148 -170c0 -54 26 -82 72 -82z" />
    <glyph glyph-name="A.smcp" unicode="&#xf761;" horiz-adv-x="584" 
d="M-36 0l11 65h65l209 357h-67l11 65h194l98 -422h66l-12 -65h-221l12 65h75l-20 88h-209l-50 -88h75l-11 -65h-226zM212 218h160l-45 200z" />
    <glyph glyph-name="B.smcp" unicode="&#xf762;" horiz-adv-x="525" 
d="M-6 0l11 64h73l62 359h-72l12 64h238c100 0 168 -42 168 -119c0 -59 -41 -105 -115 -119c55 -13 93 -50 93 -107c0 -79 -71 -142 -205 -142h-265zM160 64h99c76 0 123 35 123 84c0 41 -34 68 -101 68h-95zM198 278h82c79 0 124 34 124 81c0 41 -34 64 -92 64h-89z" />
    <glyph glyph-name="C.smcp" unicode="&#xf763;" horiz-adv-x="527" 
d="M272 -10c-135 0 -238 71 -238 221c0 166 128 286 309 286c73 0 140 -19 182 -36l-22 -132h-80l15 87c-25 8 -63 13 -95 13c-129 0 -223 -86 -223 -214c0 -101 61 -156 162 -156c68 0 134 25 182 47l-13 -73c-46 -23 -107 -43 -179 -43z" />
    <glyph glyph-name="D.smcp" unicode="&#xf764;" horiz-adv-x="583" 
d="M-6 0l12 65h72l63 357h-72l11 65h223c147 0 240 -74 240 -215c0 -149 -106 -272 -313 -272h-236zM162 66h72c144 0 223 89 223 206c0 96 -53 150 -160 150h-72z" />
    <glyph glyph-name="E.smcp" unicode="&#xf765;" horiz-adv-x="505" 
d="M-6 0l12 65h72l63 357h-72l11 65h417l-25 -141h-77l13 76h-183l-25 -144h197l-11 -65h-198l-26 -147h186l13 78h78l-25 -144h-420z" />
    <glyph glyph-name="F.smcp" unicode="&#xf766;" horiz-adv-x="476" 
d="M-6 0l12 65h72l63 357h-72l11 65h411l-27 -150h-77l15 84h-177l-28 -156h184l-12 -68h-184l-23 -132h84l-11 -65h-241z" />
    <glyph glyph-name="G.smcp" unicode="&#xf767;" horiz-adv-x="589" 
d="M279 -10c-148 0 -245 75 -245 221c0 163 121 286 320 286c74 0 146 -17 192 -36l-22 -123h-78l14 76c-26 7 -66 15 -106 15c-134 0 -233 -81 -233 -213c0 -89 46 -158 166 -158c47 0 89 11 126 23l20 117h-112l11 64h231l-12 -64h-41l-29 -164c-51 -20 -117 -44 -202 -44
z" />
    <glyph glyph-name="H.smcp" unicode="&#xf768;" horiz-adv-x="649" 
d="M-6 0l12 65h72l63 357h-72l11 65h229l-11 -65h-73l-25 -143h258l25 143h-73l12 65h229l-12 -65h-72l-63 -357h72l-11 -65h-229l11 65h73l26 147h-258l-26 -147h73l-12 -65h-229z" />
    <glyph glyph-name="I.smcp" unicode="&#xf769;" horiz-adv-x="308" 
d="M-6 0l12 65h72l63 357h-72l11 65h229l-11 -65h-73l-63 -357h73l-12 -65h-229z" />
    <glyph glyph-name="J.smcp" unicode="&#xf76a;" horiz-adv-x="289" 
d="M-21 -142l-21 57c46 18 94 51 102 96l73 411h-73l11 65h230l-12 -65h-72l-73 -414c-18 -102 -106 -131 -165 -150z" />
    <glyph glyph-name="K.smcp" unicode="&#xf76b;" horiz-adv-x="586" 
d="M389 0l-168 241v2l211 180h-69l11 64h227l-12 -65h-55l-215 -184l125 -173h86l-11 -65h-130zM-6 0l12 65h72l63 357h-72l11 65h229l-11 -65h-73l-63 -357h73l-12 -65h-229z" />
    <glyph glyph-name="L.smcp" unicode="&#xf76c;" horiz-adv-x="474" 
d="M-6 0l12 65h72l63 357h-72l11 65h238l-12 -65h-81l-63 -356h183l14 83h77l-26 -149h-416z" />
    <glyph glyph-name="M.smcp" unicode="&#xf76d;" horiz-adv-x="761" 
d="M-8 0l12 65h68l76 359h-69l12 63h187l82 -351l196 351h198l-12 -63h-68l-52 -359h68l-12 -65h-214l12 65h72l49 347l-221 -381h-63l-92 381l-73 -347h73l-11 -65h-218z" />
    <glyph glyph-name="N.smcp" unicode="&#xf76e;" horiz-adv-x="638" 
d="M-6 0l11 65h74l63 357h-74l12 65h147l208 -371l53 306h-78l11 65h229l-12 -65h-73l-74 -422h-71l-211 372l-53 -307h78l-11 -65h-229z" />
    <glyph glyph-name="O.smcp" unicode="&#xf76f;" horiz-adv-x="605" 
d="M267 -10c-146 0 -233 87 -233 220c0 158 123 287 300 287c146 0 233 -87 233 -221c0 -158 -123 -286 -300 -286zM270 58c115 0 211 91 211 215c0 96 -58 156 -150 156c-115 0 -211 -92 -211 -215c0 -96 58 -156 150 -156z" />
    <glyph glyph-name="P.smcp" unicode="&#xf770;" horiz-adv-x="503" 
d="M-6 0l12 65h72l63 357h-72l11 65h226c116 0 184 -55 184 -142c0 -94 -78 -170 -224 -170h-85l-19 -110h90l-11 -65h-247zM193 239h77c98 0 136 54 136 104c0 44 -29 79 -103 79h-78z" />
    <glyph glyph-name="Q.smcp" unicode="&#xf771;" horiz-adv-x="605" 
d="M379 -117l-140 108c-129 10 -205 94 -205 219c0 158 123 287 300 287c146 0 233 -87 233 -221c0 -133 -88 -245 -221 -276l89 -56zM270 58c115 0 211 91 211 215c0 96 -58 156 -150 156c-115 0 -211 -92 -211 -215c0 -96 58 -156 150 -156z" />
    <glyph glyph-name="R.smcp" unicode="&#xf772;" horiz-adv-x="548" 
d="M-6 0l12 65h72l63 357h-72l11 65h238c111 0 183 -50 183 -140c0 -81 -58 -132 -137 -152l53 -131h71l-11 -64h-122l-71 181h-102l-20 -116h73l-12 -65h-229zM194 246h87c98 0 135 50 135 99c0 44 -30 77 -104 77h-87z" />
    <glyph glyph-name="S.smcp" unicode="&#xf773;" horiz-adv-x="448" 
d="M186 -10c-63 0 -132 13 -180 28l22 123h76l-12 -74c24 -7 69 -12 99 -12c58 0 113 22 113 74c0 108 -237 68 -237 226c0 81 61 142 189 142c63 0 131 -15 169 -27l-21 -120h-77l13 72c-20 5 -54 11 -84 11c-70 0 -108 -31 -108 -71c0 -99 238 -62 238 -227
c0 -92 -73 -145 -200 -145z" />
    <glyph glyph-name="T.smcp" unicode="&#xf774;" horiz-adv-x="504" 
d="M85 0l11 65h81l63 357h-111l-14 -82h-76l26 147h457l-26 -147h-76l14 82h-110l-63 -357h80l-11 -65h-245z" />
    <glyph glyph-name="U.smcp" unicode="&#xf775;" horiz-adv-x="591" 
d="M261 -10c-123 0 -204 70 -182 193l42 239h-71l11 65h229l-11 -65h-74l-44 -248c-13 -74 24 -115 99 -115c71 0 128 37 141 107l45 256h-75l11 65h227l-12 -65h-72l-44 -252c-20 -112 -99 -180 -220 -180z" />
    <glyph glyph-name="V.smcp" unicode="&#xf776;" horiz-adv-x="567" 
d="M195 0l-101 422h-66l12 65h231l-11 -64h-83l72 -327l189 327h-83l12 64h236l-12 -65h-66l-251 -422h-79z" />
    <glyph glyph-name="W.smcp" unicode="&#xf777;" horiz-adv-x="799" 
d="M166 0l-69 422h-67l11 65h223l-11 -62h-78l48 -327l159 295l-5 32h-68l11 62h222l-11 -62h-77l55 -326l165 325h-76l10 63h226l-11 -65h-68l-220 -422h-79l-54 285l-156 -285h-80z" />
    <glyph glyph-name="X.smcp" unicode="&#xf778;" horiz-adv-x="560" 
d="M-26 0l12 65h60l187 183l-110 174h-61l11 65h216l-11 -62h-69l78 -126l126 126h-69l11 62h224l-12 -65h-61l-181 -179l114 -179h60l-12 -64h-217l11 63h69l-79 128l-129 -128h68l-11 -63h-225z" />
    <glyph glyph-name="Y.smcp" unicode="&#xf779;" horiz-adv-x="544" 
d="M104 0l11 65h79l20 110l-117 247h-66l11 65h225l-12 -63h-73l83 -176l145 176h-73l12 63h230l-12 -65h-65l-206 -248l-19 -109h79l-11 -65h-241z" />
    <glyph glyph-name="Z.smcp" unicode="&#xf77a;" horiz-adv-x="498" 
d="M6 0l-16 34l363 387h-198l-16 -88h-78l28 154h385l20 -31l-367 -390h219l16 90h78l-28 -156h-406z" />
    <glyph glyph-name="exclam.smcp" unicode="&#xf721;" horiz-adv-x="243" 
d="M69 136l48 351h89l-75 -351h-62zM83 -7c-27 0 -50 22 -50 50c0 27 23 50 50 50c28 0 51 -23 51 -50c0 -28 -23 -50 -51 -50z" />
    <glyph glyph-name="exclamdown.smcp" unicode="&#xf7a1;" horiz-adv-x="243" 
d="M32 0l76 351h62l-49 -351h-89zM156 394c-28 0 -51 23 -51 50c0 28 23 50 51 50c27 0 50 -22 50 -50c0 -27 -23 -50 -50 -50z" />
    <glyph glyph-name="question.smcp" unicode="&#xf73f;" horiz-adv-x="338" 
d="M82 136c1 120 148 156 148 247c0 34 -22 52 -70 52c-30 0 -67 -7 -98 -15l10 62c27 7 60 15 101 15c82 0 139 -34 139 -108c0 -122 -153 -149 -155 -253h-75zM107 -7c-27 0 -50 22 -50 50c0 27 23 50 50 50c28 0 51 -23 51 -50c0 -28 -23 -50 -51 -50z" />
    <glyph glyph-name="questiondown.smcp" unicode="&#xf7bf;" horiz-adv-x="339" 
d="M161 -10c-82 0 -139 34 -139 108c0 122 153 149 155 253h75c-1 -120 -147 -156 -147 -247c0 -34 21 -52 69 -52c31 0 68 7 99 15l-11 -62c-27 -7 -60 -15 -101 -15zM227 394c-28 0 -51 23 -51 50c0 28 23 50 51 50s50 -22 50 -50c0 -27 -22 -50 -50 -50z" />
    <glyph glyph-name="parenleft.smcp" horiz-adv-x="264" 
d="M99 -118c-43 83 -67 195 -67 284c0 164 79 318 194 440h82c-119 -131 -198 -274 -198 -443c0 -96 25 -203 70 -281h-81z" />
    <glyph glyph-name="parenright.smcp" horiz-adv-x="263" 
d="M-48 -118c119 130 197 273 197 442c0 97 -25 203 -69 282h80c43 -83 67 -196 67 -285c0 -164 -79 -317 -194 -439h-81z" />
    <glyph glyph-name="braceleft.smcp" horiz-adv-x="291" 
d="M134 -129c-66 0 -89 40 -89 81c0 62 56 128 56 190c0 38 -21 68 -84 73l10 57c124 11 116 93 116 173c0 84 14 170 118 170c23 0 40 -4 57 -9l-8 -49c-12 3 -26 6 -40 6c-53 0 -54 -47 -54 -106c0 -100 5 -188 -106 -219c49 -13 63 -58 63 -96c0 -73 -54 -146 -54 -191
c0 -17 7 -30 34 -30c12 0 33 3 45 6l-8 -48c-19 -5 -37 -8 -56 -8z" />
    <glyph glyph-name="braceright.smcp" horiz-adv-x="290" 
d="M25 -129c-23 0 -39 4 -57 9l8 49c12 -3 26 -6 40 -6c53 0 54 47 54 106c0 100 -5 188 107 219c-49 13 -64 58 -64 96c0 73 55 146 55 191c0 17 -8 30 -34 30c-13 0 -34 -3 -46 -6l9 48c19 5 36 8 55 8c66 0 89 -40 89 -81c0 -62 -55 -128 -55 -190c0 -38 20 -68 83 -73
l-10 -57c-124 -11 -116 -93 -116 -173c0 -84 -14 -170 -118 -170z" />
    <glyph glyph-name="bracketleft.smcp" horiz-adv-x="284" 
d="M19 -118l128 724h173l-10 -55h-98l-109 -616h98l-9 -53h-173z" />
    <glyph glyph-name="bracketright.smcp" horiz-adv-x="285" 
d="M-39 -118l9 53h98l109 616h-98l10 55h172l-128 -724h-172z" />
    <glyph glyph-name="bar.smcp" horiz-adv-x="245" 
d="M19 -118l128 724h74l-128 -724h-74z" />
    <glyph glyph-name="at.smcp" horiz-adv-x="637" 
d="M266 89c-64 0 -102 44 -102 108c0 92 77 180 173 180c50 0 79 -25 91 -58h2c6 14 16 33 22 45h46c-26 -58 -62 -142 -62 -196c0 -24 8 -42 32 -42c46 0 99 61 99 156c0 117 -81 190 -201 190c-149 0 -293 -115 -293 -268c0 -118 86 -204 212 -204c52 0 101 14 146 41
l17 -33c-56 -30 -104 -46 -162 -46c-150 0 -253 103 -253 242c0 178 166 307 333 307c141 0 240 -91 240 -230c0 -117 -71 -192 -149 -192c-57 0 -69 40 -68 61h-3c-30 -36 -74 -61 -120 -61zM281 137c64 0 117 68 117 132c0 39 -19 60 -56 60c-62 0 -117 -62 -117 -129
c0 -40 19 -63 56 -63z" />
    <glyph glyph-name="ampersand.smcp" unicode="&#xf726;" horiz-adv-x="552" 
d="M169 -10c-93 0 -147 51 -147 129c0 83 61 126 122 159c-17 24 -36 55 -36 96c0 74 59 123 138 123c81 0 114 -49 114 -101c0 -63 -50 -98 -111 -130l92 -117c27 35 49 80 63 132h111l-10 -61h-51c-18 -45 -41 -86 -73 -124c24 -30 38 -42 65 -42c12 0 29 2 40 6l-11 -60
c-13 -5 -32 -8 -51 -8c-40 0 -71 18 -100 53c-42 -32 -94 -55 -155 -55zM181 56c38 0 73 16 104 41l-104 133c-46 -27 -83 -55 -83 -103c0 -43 30 -71 83 -71zM243 440c-35 0 -59 -28 -59 -62c0 -28 17 -50 29 -65c46 24 77 46 77 81c0 22 -13 46 -47 46z" />
    <glyph glyph-name="ampersand.alt.smcp" horiz-adv-x="478" 
d="M186 -10c-96 0 -167 43 -167 128c0 72 52 118 122 139c-37 18 -62 47 -62 96c0 83 76 144 199 144c50 0 104 -10 150 -24l-19 -107h-72l10 61c-16 4 -44 7 -69 7c-73 0 -118 -27 -118 -82c0 -47 35 -71 96 -71h200l-10 -59h-48l-14 -79c-15 -86 -79 -153 -198 -153z
M188 54c71 0 110 38 119 89l14 79h-78c-82 0 -141 -34 -141 -99c0 -47 32 -69 86 -69z" />
    <glyph glyph-name="Agrave.smcp" unicode="&#xf7e0;" horiz-adv-x="584" 
d="M-36 0l11 65h65l209 357h-67l11 65h194l98 -422h66l-12 -65h-221l12 65h75l-20 88h-209l-50 -88h75l-11 -65h-226zM212 218h160l-45 200zM359 540l-157 124l53 58l135 -149z" />
    <glyph glyph-name="Aacute.smcp" unicode="&#xf7e1;" horiz-adv-x="584" 
d="M-36 0l11 65h65l209 357h-67l11 65h194l98 -422h66l-12 -65h-221l12 65h75l-20 88h-209l-50 -88h75l-11 -65h-226zM212 218h160l-45 200zM278 540l-26 33l165 148l48 -60z" />
    <glyph glyph-name="Acircumflex.smcp" unicode="&#xf7e2;" horiz-adv-x="584" 
d="M-36 0l11 65h65l209 357h-67l11 65h194l98 -422h66l-12 -65h-221l12 65h75l-20 88h-209l-50 -88h75l-11 -65h-226zM212 218h160l-45 200zM194 540l-18 26l155 127h53l102 -128l-22 -25l-119 75z" />
    <glyph glyph-name="Atilde.smcp" unicode="&#xf7e3;" horiz-adv-x="584" 
d="M-36 0l11 65h65l209 357h-67l11 65h194l98 -422h66l-12 -65h-221l12 65h75l-20 88h-209l-50 -88h75l-11 -65h-226zM212 218h160l-45 200zM195 545l-30 17c18 33 57 102 115 102c50 0 81 -49 126 -49c32 0 52 23 70 51l30 -18c-19 -35 -61 -102 -116 -102
c-49 0 -84 50 -127 50c-25 0 -45 -18 -68 -51z" />
    <glyph glyph-name="Adieresis.smcp" unicode="&#xf7e4;" horiz-adv-x="584" 
d="M-36 0l11 65h65l209 357h-67l11 65h194l98 -422h66l-12 -65h-221l12 65h75l-20 88h-209l-50 -88h75l-11 -65h-226zM212 218h160l-45 200zM250 546c-28 0 -50 22 -50 50s22 51 50 51s51 -23 51 -51s-23 -50 -51 -50zM423 546c-28 0 -50 22 -50 50s22 51 50 51
s50 -23 50 -51s-22 -50 -50 -50z" />
    <glyph glyph-name="Aring.smcp" unicode="&#xf7e5;" horiz-adv-x="584" 
d="M-36 0l11 65h65l209 357h-67l11 65h194l98 -422h66l-12 -65h-221l12 65h75l-20 88h-209l-50 -88h75l-11 -65h-226zM212 218h160l-45 200zM335 539c-65 0 -102 37 -102 90c0 57 44 113 125 113c65 0 101 -37 101 -89c0 -58 -42 -114 -124 -114zM338 585c37 0 59 33 59 66
c0 24 -13 44 -43 44c-36 0 -58 -33 -58 -65c0 -25 12 -45 42 -45z" />
    <glyph glyph-name="Amacron.smcp" unicode="&#xf66e;" horiz-adv-x="584" 
d="M-36 0l11 65h65l209 357h-67l11 65h194l98 -422h66l-12 -65h-221l12 65h75l-20 88h-209l-50 -88h75l-11 -65h-226zM212 218h160l-45 200zM197 557l11 62h261l-11 -62h-261z" />
    <glyph glyph-name="Abreve.smcp" unicode="&#xf66d;" horiz-adv-x="584" 
d="M-36 0l11 65h65l209 357h-67l11 65h194l98 -422h66l-12 -65h-221l12 65h75l-20 88h-209l-50 -88h75l-11 -65h-226zM212 218h160l-45 200zM332 544c-91 0 -130 62 -120 137h60c-3 -48 18 -74 66 -74c46 0 78 23 93 74h61c-18 -84 -75 -137 -160 -137z" />
    <glyph glyph-name="Aogonek.smcp" unicode="&#xf66f;" horiz-adv-x="584" 
d="M422 -198c-47 0 -85 21 -85 71c0 56 47 99 97 127h-116l12 65h75l-20 88h-209l-50 -88h75l-11 -65h-226l11 65h65l209 357h-67l11 65h194l98 -422h66l-12 -65h-39c-40 -25 -90 -66 -90 -111c0 -25 17 -34 39 -34c20 0 47 8 62 14l-4 -50c-21 -8 -54 -17 -85 -17zM212 218
h160l-45 200z" />
    <glyph glyph-name="AE.smcp" unicode="&#xf7e6;" horiz-adv-x="810" 
d="M-37 0l11 65h64l314 358h-64l11 64h502l-25 -141h-76l14 76h-180l-25 -144h193l-11 -65h-193l-27 -147h182l16 78h76l-27 -144h-410l12 65h73l15 88h-200l-75 -88h73l-12 -65h-231zM260 215h159l37 207h-19z" />
    <glyph glyph-name="AEacute.smcp" unicode="&#xf670;" horiz-adv-x="810" 
d="M-37 0l11 65h64l314 358h-64l11 64h502l-25 -141h-76l14 76h-180l-25 -144h193l-11 -65h-193l-27 -147h182l16 78h76l-27 -144h-410l12 65h73l15 88h-200l-75 -88h73l-12 -65h-231zM260 215h159l37 207h-19zM505 540l-26 33l165 148l48 -60z" />
    <glyph glyph-name="Ccedilla.smcp" unicode="&#xf7e7;" horiz-adv-x="527" 
d="M211 -198c-31 0 -61 6 -83 15l15 45c18 -7 41 -13 65 -13c30 0 51 9 51 31c0 29 -37 37 -70 36l5 19l39 57c-116 12 -199 84 -199 219c0 166 128 286 309 286c73 0 140 -19 182 -36l-22 -132h-80l15 87c-25 8 -63 13 -95 13c-129 0 -223 -86 -223 -214
c0 -101 61 -156 162 -156c68 0 134 25 182 47l-13 -73c-44 -22 -101 -41 -167 -43l-22 -41c38 -6 69 -25 69 -67c0 -55 -55 -80 -120 -80z" />
    <glyph glyph-name="Cacute.smcp" unicode="&#xf671;" horiz-adv-x="527" 
d="M272 -10c-135 0 -238 71 -238 221c0 166 128 286 309 286c73 0 140 -19 182 -36l-22 -132h-80l15 87c-25 8 -63 13 -95 13c-129 0 -223 -86 -223 -214c0 -101 61 -156 162 -156c68 0 134 25 182 47l-13 -73c-46 -23 -107 -43 -179 -43zM303 545l-26 33l165 148l48 -61z
" />
    <glyph glyph-name="Ccircumflex.smcp" unicode="&#xf673;" horiz-adv-x="527" 
d="M272 -10c-135 0 -238 71 -238 221c0 166 128 286 309 286c73 0 140 -19 182 -36l-22 -132h-80l15 87c-25 8 -63 13 -95 13c-129 0 -223 -86 -223 -214c0 -101 61 -156 162 -156c68 0 134 25 182 47l-13 -73c-46 -23 -107 -43 -179 -43zM213 545l-17 26l155 127h53
l101 -128l-21 -25l-120 75z" />
    <glyph glyph-name="Cdotaccent.smcp" unicode="&#xf674;" horiz-adv-x="527" 
d="M272 -10c-135 0 -238 71 -238 221c0 166 128 286 309 286c73 0 140 -19 182 -36l-22 -132h-80l15 87c-25 8 -63 13 -95 13c-129 0 -223 -86 -223 -214c0 -101 61 -156 162 -156c68 0 134 25 182 47l-13 -73c-46 -23 -107 -43 -179 -43zM363 553c-30 0 -54 24 -54 54
c0 29 24 54 54 54s54 -25 54 -54c0 -30 -24 -54 -54 -54z" />
    <glyph glyph-name="Ccaron.smcp" unicode="&#xf672;" horiz-adv-x="527" 
d="M272 -10c-135 0 -238 71 -238 221c0 166 128 286 309 286c73 0 140 -19 182 -36l-22 -132h-80l15 87c-25 8 -63 13 -95 13c-129 0 -223 -86 -223 -214c0 -101 61 -156 162 -156c68 0 134 25 182 47l-13 -73c-46 -23 -107 -43 -179 -43zM322 550l-103 128l22 24l120 -75
l150 76l18 -25l-154 -128h-53z" />
    <glyph glyph-name="Dcaron.smcp" unicode="&#xf675;" horiz-adv-x="583" 
d="M-6 0l12 65h72l63 357h-72l11 65h223c147 0 240 -74 240 -215c0 -149 -106 -272 -313 -272h-236zM162 66h72c144 0 223 89 223 206c0 96 -53 150 -160 150h-72zM291 545l-103 128l22 24l121 -75l149 76l18 -25l-154 -128h-53z" />
    <glyph glyph-name="Dcroat.smcp" unicode="&#xf676;" horiz-adv-x="584" 
d="M42 215l11 61h63l26 146h-73l12 65h222c148 0 241 -74 241 -215c0 -149 -106 -272 -313 -272h-236l11 65h73l26 150h-63zM163 66h72c144 0 222 89 222 206c0 96 -53 150 -159 150h-72l-26 -146h132l-11 -61h-132z" />
    <glyph glyph-name="Egrave.smcp" unicode="&#xf7e8;" horiz-adv-x="505" 
d="M-6 0l12 65h72l63 357h-72l11 65h417l-25 -141h-77l13 76h-183l-25 -144h197l-11 -65h-198l-26 -147h186l13 78h78l-25 -144h-420zM339 540l-157 124l53 58l135 -149z" />
    <glyph glyph-name="Eacute.smcp" unicode="&#xf7e9;" horiz-adv-x="505" 
d="M-6 0l12 65h72l63 357h-72l11 65h417l-25 -141h-77l13 76h-183l-25 -144h197l-11 -65h-198l-26 -147h186l13 78h78l-25 -144h-420zM261 540l-26 33l165 148l48 -60z" />
    <glyph glyph-name="Ecircumflex.smcp" unicode="&#xf7ea;" horiz-adv-x="505" 
d="M-6 0l12 65h72l63 357h-72l11 65h417l-25 -141h-77l13 76h-183l-25 -144h197l-11 -65h-198l-26 -147h186l13 78h78l-25 -144h-420zM169 540l-17 26l155 127h53l101 -128l-21 -25l-120 75z" />
    <glyph glyph-name="Edieresis.smcp" unicode="&#xf7eb;" horiz-adv-x="505" 
d="M-6 0l12 65h72l63 357h-72l11 65h417l-25 -141h-77l13 76h-183l-25 -144h197l-11 -65h-198l-26 -147h186l13 78h78l-25 -144h-420zM222 546c-28 0 -50 22 -50 50s22 51 50 51s50 -23 50 -51s-22 -50 -50 -50zM395 546c-28 0 -50 22 -50 50s22 51 50 51s50 -23 50 -51
s-22 -50 -50 -50z" />
    <glyph glyph-name="Emacron.smcp" unicode="&#xf67a;" horiz-adv-x="505" 
d="M-6 0l12 65h72l63 357h-72l11 65h417l-25 -141h-77l13 76h-183l-25 -144h197l-11 -65h-198l-26 -147h186l13 78h78l-25 -144h-420zM175 557l10 62h262l-11 -62h-261z" />
    <glyph glyph-name="Ebreve.smcp" unicode="&#xf677;" horiz-adv-x="505" 
d="M-6 0l12 65h72l63 357h-72l11 65h417l-25 -141h-77l13 76h-183l-25 -144h197l-11 -65h-198l-26 -147h186l13 78h78l-25 -144h-420zM303 544c-91 0 -130 62 -120 137h60c-4 -48 18 -74 66 -74c46 0 77 23 93 74h61c-18 -84 -75 -137 -160 -137z" />
    <glyph glyph-name="Edotaccent.smcp" unicode="&#xf679;" horiz-adv-x="505" 
d="M-6 0l12 65h72l63 357h-72l11 65h417l-25 -141h-77l13 76h-183l-25 -144h197l-11 -65h-198l-26 -147h186l13 78h78l-25 -144h-420zM315 548c-30 0 -54 24 -54 54s24 54 54 54c29 0 54 -24 54 -54s-25 -54 -54 -54z" />
    <glyph glyph-name="Eogonek.smcp" unicode="&#xf67c;" horiz-adv-x="505" 
d="M-6 0l12 65h72l63 357h-72l11 65h417l-25 -141h-77l13 76h-183l-25 -144h197l-11 -65h-198l-26 -147h186l13 78h78l-25 -144h-37c-40 -25 -90 -66 -90 -111c0 -25 18 -34 40 -34c20 0 47 8 62 14l-4 -50c-21 -8 -54 -17 -85 -17c-48 0 -86 21 -86 71c0 56 47 99 97 127
h-317z" />
    <glyph glyph-name="Ecaron.smcp" unicode="&#xf678;" horiz-adv-x="505" 
d="M-6 0l12 65h72l63 357h-72l11 65h417l-25 -141h-77l13 76h-183l-25 -144h197l-11 -65h-198l-26 -147h186l13 78h78l-25 -144h-420zM276 545l-103 128l22 24l121 -75l150 76l17 -25l-154 -128h-53z" />
    <glyph glyph-name="Eth.smcp" unicode="&#xf7f0;" horiz-adv-x="584" 
d="M42 215l11 61h63l26 146h-73l12 65h222c148 0 241 -74 241 -215c0 -149 -106 -272 -313 -272h-236l11 65h73l26 150h-63zM163 66h72c144 0 222 89 222 206c0 96 -53 150 -159 150h-72l-26 -146h132l-11 -61h-132z" />
    <glyph glyph-name="Gcircumflex.smcp" unicode="&#xf67e;" horiz-adv-x="589" 
d="M279 -10c-148 0 -245 75 -245 221c0 163 121 286 320 286c74 0 146 -17 192 -36l-22 -123h-78l14 76c-26 7 -66 15 -106 15c-134 0 -233 -81 -233 -213c0 -89 46 -158 166 -158c47 0 89 11 126 23l20 117h-112l11 64h231l-12 -64h-41l-29 -164c-51 -20 -117 -44 -202 -44
zM223 545l-17 26l155 127h52l102 -128l-21 -25l-120 75z" />
    <glyph glyph-name="Gbreve.smcp" unicode="&#xf67d;" horiz-adv-x="589" 
d="M279 -10c-148 0 -245 75 -245 221c0 163 121 286 320 286c74 0 146 -17 192 -36l-22 -123h-78l14 76c-26 7 -66 15 -106 15c-134 0 -233 -81 -233 -213c0 -89 46 -158 166 -158c47 0 89 11 126 23l20 117h-112l11 64h231l-12 -64h-41l-29 -164c-51 -20 -117 -44 -202 -44
zM366 549c-91 0 -130 61 -120 137h60c-3 -48 18 -74 66 -74c46 0 78 23 93 74h61c-18 -84 -75 -137 -160 -137z" />
    <glyph glyph-name="Gdotaccent.smcp" unicode="&#xf680;" horiz-adv-x="589" 
d="M279 -10c-148 0 -245 75 -245 221c0 163 121 286 320 286c74 0 146 -17 192 -36l-22 -123h-78l14 76c-26 7 -66 15 -106 15c-134 0 -233 -81 -233 -213c0 -89 46 -158 166 -158c47 0 89 11 126 23l20 117h-112l11 64h231l-12 -64h-41l-29 -164c-51 -20 -117 -44 -202 -44
zM373 553c-30 0 -54 24 -54 54c0 29 24 54 54 54c29 0 54 -25 54 -54c0 -30 -25 -54 -54 -54z" />
    <glyph glyph-name="Gcommaaccent.smcp" unicode="&#xf67f;" horiz-adv-x="589" 
d="M261 -63c33 0 48 -22 48 -51c0 -50 -44 -102 -105 -145l-30 27c33 31 61 65 61 103c0 23 -11 35 -26 43l1 6c17 11 34 17 51 17zM279 -10c-148 0 -245 75 -245 221c0 163 121 286 320 286c74 0 146 -17 192 -36l-22 -123h-78l14 76c-26 7 -66 15 -106 15
c-134 0 -233 -81 -233 -213c0 -89 46 -158 166 -158c47 0 89 11 126 23l20 117h-112l11 64h231l-12 -64h-41l-29 -164c-51 -20 -117 -44 -202 -44z" />
    <glyph glyph-name="Hcircumflex.smcp" unicode="&#xf682;" horiz-adv-x="649" 
d="M238 540l-17 26l155 127h53l101 -128l-21 -25l-120 75zM-6 0l12 65h72l63 357h-72l11 65h229l-11 -65h-73l-25 -143h258l25 143h-73l12 65h229l-12 -65h-72l-63 -357h72l-11 -65h-229l11 65h73l26 147h-258l-26 -147h73l-12 -65h-229z" />
    <glyph glyph-name="Hbar.smcp" unicode="&#xf681;" horiz-adv-x="649" 
d="M65 335l6 36h62l9 51h-73l12 65h229l-12 -65h-73l-9 -51h258l9 51h-72l11 65h229l-12 -65h-72l-9 -51h68l-6 -36h-69l-47 -270h72l-11 -65h-229l12 65h72l26 147h-257l-27 -147h73l-11 -65h-229l11 65h73l47 270h-61zM200 279h258l10 57h-258z" />
    <glyph glyph-name="Igrave.smcp" unicode="&#xf7ec;" horiz-adv-x="308" 
d="M-6 0l12 65h72l63 357h-72l11 65h229l-11 -65h-73l-63 -357h73l-12 -65h-229zM250 540l-157 124l53 58l135 -149z" />
    <glyph glyph-name="Iacute.smcp" unicode="&#xf7ed;" horiz-adv-x="308" 
d="M-6 0l12 65h72l63 357h-72l11 65h229l-11 -65h-73l-63 -357h73l-12 -65h-229zM163 540l-26 33l165 148l47 -60z" />
    <glyph glyph-name="Icircumflex.smcp" unicode="&#xf7ee;" horiz-adv-x="308" 
d="M-6 0l12 65h72l63 357h-72l11 65h229l-11 -65h-73l-63 -357h73l-12 -65h-229zM67 540l-18 26l155 127h53l102 -128l-22 -25l-119 75z" />
    <glyph glyph-name="Idieresis.smcp" unicode="&#xf7ef;" horiz-adv-x="308" 
d="M-6 0l12 65h72l63 357h-72l11 65h229l-11 -65h-73l-63 -357h73l-12 -65h-229zM124 546c-28 0 -50 22 -50 50s22 51 50 51s50 -23 50 -51s-22 -50 -50 -50zM297 546c-28 0 -50 22 -50 50s22 51 50 51s50 -23 50 -51s-22 -50 -50 -50z" />
    <glyph glyph-name="Itilde.smcp" unicode="&#xf687;" horiz-adv-x="308" 
d="M-6 0l12 65h72l63 357h-72l11 65h229l-11 -65h-73l-63 -357h73l-12 -65h-229zM73 545l-30 17c17 33 56 102 115 102c50 0 81 -49 126 -49c32 0 52 23 70 51l30 -18c-19 -35 -61 -102 -117 -102c-48 0 -84 50 -126 50c-25 0 -45 -18 -68 -51z" />
    <glyph glyph-name="Imacron.smcp" unicode="&#xf685;" horiz-adv-x="308" 
d="M-6 0l12 65h72l63 357h-72l11 65h229l-11 -65h-73l-63 -357h73l-12 -65h-229zM75 557l11 62h261l-11 -62h-261z" />
    <glyph glyph-name="Ibreve.smcp" unicode="&#xf683;" horiz-adv-x="308" 
d="M-6 0l12 65h72l63 357h-72l11 65h229l-11 -65h-73l-63 -357h73l-12 -65h-229zM207 544c-91 0 -130 62 -120 137h60c-4 -48 18 -74 66 -74c46 0 78 23 93 74h61c-18 -84 -75 -137 -160 -137z" />
    <glyph glyph-name="Iogonek.smcp" unicode="&#xf686;" horiz-adv-x="308" 
d="M-6 0l12 65h72l63 357h-72l11 65h229l-11 -65h-73l-63 -357h73l-12 -65h-53c-40 -25 -90 -66 -90 -111c0 -25 17 -34 39 -34c20 0 47 8 62 14l-4 -50c-21 -8 -54 -17 -85 -17c-48 0 -85 21 -85 71c0 56 47 99 97 127h-110z" />
    <glyph glyph-name="Idotaccent.smcp" unicode="&#xf6ad;" horiz-adv-x="308" 
d="M-6 0l12 65h72l63 357h-72l11 65h229l-11 -65h-73l-63 -357h73l-12 -65h-229zM213 548c-30 0 -54 24 -54 54s24 54 54 54c29 0 54 -24 54 -54s-25 -54 -54 -54z" />
    <glyph glyph-name="Jcircumflex.smcp" unicode="&#xf688;" horiz-adv-x="289" 
d="M-21 -142l-21 57c46 18 94 51 102 96l73 411h-73l11 65h230l-12 -65h-72l-73 -414c-18 -102 -106 -131 -165 -150zM59 540l-17 26l155 127h53l101 -128l-21 -25l-120 75z" />
    <glyph glyph-name="Kcommaaccent.smcp" unicode="&#xf689;" horiz-adv-x="586" 
d="M280 -58c33 0 48 -22 48 -51c0 -50 -43 -102 -104 -145l-30 27c33 31 60 65 60 103c0 23 -11 35 -26 43l1 6c18 11 35 17 51 17zM389 0l-168 241v2l211 180h-69l11 64h227l-12 -65h-55l-215 -184l125 -173h86l-11 -65h-130zM-6 0l12 65h72l63 357h-72l11 65h229l-11 -65
h-73l-63 -357h73l-12 -65h-229z" />
    <glyph glyph-name="Lacute.smcp" unicode="&#xf68a;" horiz-adv-x="474" 
d="M-6 0l12 65h72l63 357h-72l11 65h238l-12 -65h-81l-63 -356h183l14 83h77l-26 -149h-416zM173 540l-26 33l165 148l47 -60z" />
    <glyph glyph-name="Lcommaaccent.smcp" unicode="&#xf68c;" horiz-adv-x="474" 
d="M223 -58c33 0 49 -22 49 -51c0 -50 -44 -102 -105 -145l-30 27c33 31 61 65 61 103c0 23 -12 35 -27 43l2 6c17 11 34 17 50 17zM-6 0l12 65h72l63 357h-72l11 65h238l-12 -65h-81l-63 -356h183l14 83h77l-26 -149h-416z" />
    <glyph glyph-name="Lcaron.smcp" unicode="&#xf68b;" horiz-adv-x="482" 
d="M425 494c33 0 48 -22 48 -52c0 -49 -43 -101 -104 -144l-30 27c33 31 60 64 60 102c0 24 -11 36 -26 44l1 5c18 12 35 18 51 18zM-6 0l12 65h72l63 357h-72l11 65h238l-12 -65h-81l-63 -356h183l14 83h77l-26 -149h-416z" />
    <glyph glyph-name="Ldot.smcp" unicode="&#xf68d;" horiz-adv-x="475" 
d="M-6 0l12 65h72l63 357h-72l11 65h238l-12 -65h-81l-63 -356h183l14 83h77l-26 -149h-416zM367 221c-30 0 -54 24 -54 54c0 29 24 54 54 54s54 -25 54 -54c0 -30 -24 -54 -54 -54z" />
    <glyph glyph-name="Lslash.smcp" unicode="&#xf6f9;" horiz-adv-x="475" 
d="M49 173l-14 43l76 34l31 172h-73l12 65h238l-12 -65h-81l-25 -136l156 68l14 -43l-179 -78l-29 -167h182l15 83h77l-26 -149h-416l11 65h73l23 131z" />
    <glyph glyph-name="Ntilde.smcp" unicode="&#xf7f1;" horiz-adv-x="638" 
d="M-6 0l11 65h74l63 357h-74l12 65h147l208 -371l53 306h-78l11 65h229l-12 -65h-73l-74 -422h-71l-211 372l-53 -307h78l-11 -65h-229zM237 545l-30 17c18 33 57 102 115 102c50 0 81 -49 126 -49c32 0 52 23 70 51l30 -18c-19 -35 -61 -102 -116 -102
c-49 0 -84 50 -127 50c-25 0 -45 -18 -68 -51z" />
    <glyph glyph-name="Nacute.smcp" unicode="&#xf68e;" horiz-adv-x="638" 
d="M-6 0l11 65h74l63 357h-74l12 65h147l208 -371l53 306h-78l11 65h229l-12 -65h-73l-74 -422h-71l-211 372l-53 -307h78l-11 -65h-229zM326 540l-26 33l165 148l47 -60z" />
    <glyph glyph-name="Ncommaaccent.smcp" unicode="&#xf690;" horiz-adv-x="638" 
d="M288 -58c33 0 48 -22 48 -51c0 -50 -44 -102 -105 -145l-30 27c33 31 61 65 61 103c0 23 -11 35 -26 43l1 6c17 11 34 17 51 17zM-6 0l11 65h74l63 357h-74l12 65h147l208 -371l53 306h-78l11 65h229l-12 -65h-73l-74 -422h-71l-211 372l-53 -307h78l-11 -65h-229z" />
    <glyph glyph-name="Ncaron.smcp" unicode="&#xf68f;" horiz-adv-x="638" 
d="M-6 0l11 65h74l63 357h-74l12 65h147l208 -371l53 306h-78l11 65h229l-12 -65h-73l-74 -422h-71l-211 372l-53 -307h78l-11 -65h-229zM335 545l-103 128l22 24l120 -75l150 76l18 -25l-154 -128h-53z" />
    <glyph glyph-name="Eng.smcp" unicode="&#xf67b;" horiz-adv-x="638" 
d="M-6 0l11 65h74l63 357h-74l12 65h147l211 -354l50 289h-78l11 65h229l-12 -65h-73l-73 -414c-18 -102 -105 -131 -165 -150l-21 57c46 18 95 51 103 96l3 22l-203 339l-53 -307h78l-11 -65h-229z" />
    <glyph glyph-name="Ograve.smcp" unicode="&#xf7f2;" horiz-adv-x="605" 
d="M267 -10c-146 0 -233 87 -233 220c0 158 123 287 300 287c146 0 233 -87 233 -221c0 -158 -123 -286 -300 -286zM270 58c115 0 211 91 211 215c0 96 -58 156 -150 156c-115 0 -211 -92 -211 -215c0 -96 58 -156 150 -156zM388 545l-157 124l53 57l135 -149z" />
    <glyph glyph-name="Oacute.smcp" unicode="&#xf7f3;" horiz-adv-x="605" 
d="M267 -10c-146 0 -233 87 -233 220c0 158 123 287 300 287c146 0 233 -87 233 -221c0 -158 -123 -286 -300 -286zM270 58c115 0 211 91 211 215c0 96 -58 156 -150 156c-115 0 -211 -92 -211 -215c0 -96 58 -156 150 -156zM322 545l-26 33l165 148l47 -61z" />
    <glyph glyph-name="Ocircumflex.smcp" unicode="&#xf7f4;" horiz-adv-x="605" 
d="M267 -10c-146 0 -233 87 -233 220c0 158 123 287 300 287c146 0 233 -87 233 -221c0 -158 -123 -286 -300 -286zM270 58c115 0 211 91 211 215c0 96 -58 156 -150 156c-115 0 -211 -92 -211 -215c0 -96 58 -156 150 -156zM222 545l-17 26l155 127h52l102 -128l-21 -25
l-120 75z" />
    <glyph glyph-name="Otilde.smcp" unicode="&#xf7f5;" horiz-adv-x="605" 
d="M267 -10c-146 0 -233 87 -233 220c0 158 123 287 300 287c146 0 233 -87 233 -221c0 -158 -123 -286 -300 -286zM270 58c115 0 211 91 211 215c0 96 -58 156 -150 156c-115 0 -211 -92 -211 -215c0 -96 58 -156 150 -156zM224 549l-30 18c17 33 56 102 114 102
c51 0 81 -50 127 -50c32 0 52 24 70 52l29 -18c-18 -35 -61 -102 -116 -102c-48 0 -84 50 -126 50c-25 0 -46 -18 -68 -52z" />
    <glyph glyph-name="Odieresis.smcp" unicode="&#xf7f6;" horiz-adv-x="605" 
d="M267 -10c-146 0 -233 87 -233 220c0 158 123 287 300 287c146 0 233 -87 233 -221c0 -158 -123 -286 -300 -286zM270 58c115 0 211 91 211 215c0 96 -58 156 -150 156c-115 0 -211 -92 -211 -215c0 -96 58 -156 150 -156zM277 551c-28 0 -50 22 -50 50s22 50 50 50
s50 -22 50 -50s-22 -50 -50 -50zM450 551c-28 0 -50 22 -50 50s22 50 50 50s50 -22 50 -50s-22 -50 -50 -50z" />
    <glyph glyph-name="Omacron.smcp" unicode="&#xf693;" horiz-adv-x="605" 
d="M267 -10c-146 0 -233 87 -233 220c0 158 123 287 300 287c146 0 233 -87 233 -221c0 -158 -123 -286 -300 -286zM270 58c115 0 211 91 211 215c0 96 -58 156 -150 156c-115 0 -211 -92 -211 -215c0 -96 58 -156 150 -156zM227 561l11 62h261l-10 -62h-262z" />
    <glyph glyph-name="Obreve.smcp" unicode="&#xf691;" horiz-adv-x="605" 
d="M267 -10c-146 0 -233 87 -233 220c0 158 123 287 300 287c146 0 233 -87 233 -221c0 -158 -123 -286 -300 -286zM270 58c115 0 211 91 211 215c0 96 -58 156 -150 156c-115 0 -211 -92 -211 -215c0 -96 58 -156 150 -156zM361 549c-91 0 -130 61 -120 137h60
c-4 -48 18 -74 66 -74c46 0 77 23 93 74h61c-18 -84 -75 -137 -160 -137z" />
    <glyph glyph-name="Ohungarumlaut.smcp" unicode="&#xf692;" horiz-adv-x="605" 
d="M267 -10c-146 0 -233 87 -233 220c0 158 123 287 300 287c146 0 233 -87 233 -221c0 -158 -123 -286 -300 -286zM270 58c115 0 211 91 211 215c0 96 -58 156 -150 156c-115 0 -211 -92 -211 -215c0 -96 58 -156 150 -156zM257 548l-25 26l141 162l50 -55zM413 548l-25 26
l141 162l50 -55z" />
    <glyph glyph-name="Oslash.smcp" unicode="&#xf7f8;" horiz-adv-x="604" 
d="M266 -10c-66 0 -119 17 -159 49l-56 -54l-26 26l57 52c-33 38 -49 88 -49 147c0 158 123 287 300 287c66 0 119 -18 159 -49l57 53l25 -25l-57 -54c32 -37 49 -87 49 -146c0 -158 -123 -286 -300 -286zM269 58c115 0 211 91 211 215c0 35 -9 67 -24 92l-290 -271
c25 -23 60 -36 103 -36zM330 429c-115 0 -211 -92 -211 -215c0 -37 8 -68 24 -93l290 272c-25 23 -61 36 -103 36z" />
    <glyph glyph-name="Oslashacute.smcp" unicode="&#xf694;" horiz-adv-x="604" 
d="M323 545l-26 33l164 148l48 -61zM266 -10c-66 0 -119 17 -159 49l-56 -54l-26 26l57 52c-33 38 -49 88 -49 147c0 158 123 287 300 287c66 0 119 -18 159 -49l57 53l25 -25l-57 -54c32 -37 49 -87 49 -146c0 -158 -123 -286 -300 -286zM269 58c115 0 211 91 211 215
c0 35 -9 67 -24 92l-290 -271c25 -23 60 -36 103 -36zM330 429c-115 0 -211 -92 -211 -215c0 -37 8 -68 24 -93l290 272c-25 23 -61 36 -103 36z" />
    <glyph glyph-name="OE.smcp" unicode="&#xe04a;" horiz-adv-x="741" 
d="M267 0c-141 0 -232 74 -232 211c0 156 119 276 302 276h396l-25 -141h-77l13 76h-176l-25 -144h190l-12 -65h-190l-26 -147h179l13 78h78l-25 -144h-383zM271 68h54l63 352h-55c-115 0 -211 -80 -211 -206c0 -99 59 -146 149 -146z" />
    <glyph glyph-name="Racute.smcp" unicode="&#xf695;" horiz-adv-x="548" 
d="M-6 0l12 65h72l63 357h-72l11 65h238c111 0 183 -50 183 -140c0 -81 -58 -132 -137 -152l53 -131h71l-11 -64h-122l-71 181h-102l-20 -116h73l-12 -65h-229zM194 246h87c98 0 135 50 135 99c0 44 -30 77 -104 77h-87zM266 540l-26 33l165 148l48 -60z" />
    <glyph glyph-name="Rcommaaccent.smcp" unicode="&#xf697;" horiz-adv-x="548" 
d="M257 -58c33 0 48 -22 48 -51c0 -50 -44 -102 -105 -145l-30 27c34 31 61 65 61 103c0 23 -11 35 -26 43l1 6c17 11 34 17 51 17zM-6 0l12 65h72l63 357h-72l11 65h238c111 0 183 -50 183 -140c0 -81 -58 -132 -137 -152l53 -131h71l-11 -64h-122l-71 181h-102l-20 -116
h73l-12 -65h-229zM194 246h87c98 0 135 50 135 99c0 44 -30 77 -104 77h-87z" />
    <glyph glyph-name="Rcaron.smcp" unicode="&#xf696;" horiz-adv-x="548" 
d="M-6 0l12 65h72l63 357h-72l11 65h238c111 0 183 -50 183 -140c0 -81 -58 -132 -137 -152l53 -131h71l-11 -64h-122l-71 181h-102l-20 -116h73l-12 -65h-229zM194 246h87c98 0 135 50 135 99c0 44 -30 77 -104 77h-87zM278 545l-103 128l22 24l120 -75l150 76l18 -25
l-155 -128h-52z" />
    <glyph glyph-name="Sacute.smcp" unicode="&#xf698;" horiz-adv-x="448" 
d="M186 -10c-63 0 -132 13 -180 28l22 123h76l-12 -74c24 -7 69 -12 99 -12c58 0 113 22 113 74c0 108 -237 68 -237 226c0 81 61 142 189 142c63 0 131 -15 169 -27l-21 -120h-77l13 72c-20 5 -54 11 -84 11c-70 0 -108 -31 -108 -71c0 -99 238 -62 238 -227
c0 -92 -73 -145 -200 -145zM241 545l-26 33l164 148l48 -60z" />
    <glyph glyph-name="Scircumflex.smcp" unicode="&#xf69a;" horiz-adv-x="448" 
d="M186 -10c-63 0 -132 13 -180 28l22 123h76l-12 -74c24 -7 69 -12 99 -12c58 0 113 22 113 74c0 108 -237 68 -237 226c0 81 61 142 189 142c63 0 131 -15 169 -27l-21 -120h-77l13 72c-20 5 -54 11 -84 11c-70 0 -108 -31 -108 -71c0 -99 238 -62 238 -227
c0 -92 -73 -145 -200 -145zM149 545l-18 26l155 127h53l101 -128l-21 -25l-119 75z" />
    <glyph glyph-name="Scedilla.smcp" unicode="&#xf699;" horiz-adv-x="448" 
d="M137 -198c-32 0 -62 6 -83 15l15 45c18 -7 40 -13 65 -13c30 0 50 9 50 31c0 29 -36 37 -69 36l5 19l38 56c-55 3 -111 15 -152 27l22 123h76l-12 -74c24 -7 69 -12 99 -12c58 0 113 22 113 74c0 108 -237 68 -237 226c0 81 61 142 189 142c63 0 131 -15 169 -27
l-21 -120h-77l13 72c-20 5 -54 11 -84 11c-70 0 -108 -31 -108 -71c0 -99 238 -62 238 -227c0 -86 -64 -138 -177 -144l-22 -42c38 -6 69 -25 69 -67c0 -55 -54 -80 -119 -80z" />
    <glyph glyph-name="Scaron.smcp" unicode="&#xf6fd;" horiz-adv-x="448" 
d="M186 -10c-63 0 -132 13 -180 28l22 123h76l-12 -74c24 -7 69 -12 99 -12c58 0 113 22 113 74c0 108 -237 68 -237 226c0 81 61 142 189 142c63 0 131 -15 169 -27l-21 -120h-77l13 72c-20 5 -54 11 -84 11c-70 0 -108 -31 -108 -71c0 -99 238 -62 238 -227
c0 -92 -73 -145 -200 -145zM254 550l-104 127l23 25l120 -75l150 75l18 -25l-155 -127h-52z" />
    <glyph glyph-name="Scommaaccent.smcp" unicode="&#xf69b;" horiz-adv-x="448" 
d="M178 -63c33 0 48 -22 48 -51c0 -50 -44 -102 -105 -145l-30 27c34 31 61 65 61 103c0 23 -11 35 -26 43l1 6c17 11 34 17 51 17zM186 -10c-63 0 -132 13 -180 28l22 123h76l-12 -74c24 -7 69 -12 99 -12c58 0 113 22 113 74c0 108 -237 68 -237 226c0 81 61 142 189 142
c63 0 131 -15 169 -27l-21 -120h-77l13 72c-20 5 -54 11 -84 11c-70 0 -108 -31 -108 -71c0 -99 238 -62 238 -227c0 -92 -73 -145 -200 -145z" />
    <glyph glyph-name="Tcommaaccent.smcp" unicode="&#xf69e;" horiz-adv-x="504" 
d="M194 -58c33 0 49 -22 49 -51c0 -50 -44 -102 -105 -145l-30 27c33 31 61 65 61 103c0 23 -12 35 -27 43l2 6c17 11 34 17 50 17zM85 0l11 65h81l63 357h-111l-14 -82h-76l26 147h457l-26 -147h-76l14 82h-110l-63 -357h80l-11 -65h-245z" />
    <glyph glyph-name="uni021A.smcp" horiz-adv-x="504" 
d="M194 -58c33 0 49 -22 49 -51c0 -50 -44 -102 -105 -145l-30 27c33 31 61 65 61 103c0 23 -12 35 -27 43l2 6c17 11 34 17 50 17zM85 0l11 65h81l63 357h-111l-14 -82h-76l26 147h457l-26 -147h-76l14 82h-110l-63 -357h80l-11 -65h-245z" />
    <glyph glyph-name="Tcaron.smcp" unicode="&#xf69d;" horiz-adv-x="504" 
d="M85 0l11 65h81l63 357h-111l-14 -82h-76l26 147h457l-26 -147h-76l14 82h-110l-63 -357h80l-11 -65h-245zM268 545l-103 128l22 24l121 -75l150 76l17 -25l-154 -128h-53z" />
    <glyph glyph-name="Tbar.smcp" unicode="&#xf69c;" horiz-adv-x="507" 
d="M93 206l9 50h110l29 166h-111l-14 -82h-75l25 147h457l-26 -147h-76l14 82h-110l-29 -166h111l-9 -50h-111l-25 -141h81l-12 -65h-245l12 65h80l25 141h-110z" />
    <glyph glyph-name="Thorn.smcp" unicode="&#xf7fe;" horiz-adv-x="494" 
d="M-4 0l12 65h68l63 357h-68l11 65h237l-11 -65h-85l-7 -36h76c109 0 174 -43 174 -132c0 -78 -56 -149 -210 -149h-89l-7 -40h85l-12 -65h-237zM178 169h84c83 0 119 35 119 84c0 42 -27 68 -92 68h-84z" />
    <glyph glyph-name="Ugrave.smcp" unicode="&#xf7f9;" horiz-adv-x="591" 
d="M261 -10c-123 0 -204 70 -182 193l42 239h-71l11 65h229l-11 -65h-74l-44 -248c-13 -74 24 -115 99 -115c71 0 128 37 141 107l45 256h-75l11 65h227l-12 -65h-72l-44 -252c-20 -112 -99 -180 -220 -180zM376 540l-157 124l53 58l135 -149z" />
    <glyph glyph-name="Uacute.smcp" unicode="&#xf7fa;" horiz-adv-x="591" 
d="M261 -10c-123 0 -204 70 -182 193l42 239h-71l11 65h229l-11 -65h-74l-44 -248c-13 -74 24 -115 99 -115c71 0 128 37 141 107l45 256h-75l11 65h227l-12 -65h-72l-44 -252c-20 -112 -99 -180 -220 -180zM310 540l-26 33l165 148l47 -60z" />
    <glyph glyph-name="Ucircumflex.smcp" unicode="&#xf7fb;" horiz-adv-x="591" 
d="M261 -10c-123 0 -204 70 -182 193l42 239h-71l11 65h229l-11 -65h-74l-44 -248c-13 -74 24 -115 99 -115c71 0 128 37 141 107l45 256h-75l11 65h227l-12 -65h-72l-44 -252c-20 -112 -99 -180 -220 -180zM210 540l-17 26l155 127h53l101 -128l-21 -25l-120 75z" />
    <glyph glyph-name="Udieresis.smcp" unicode="&#xf7fc;" horiz-adv-x="591" 
d="M261 -10c-123 0 -204 70 -182 193l42 239h-71l11 65h229l-11 -65h-74l-44 -248c-13 -74 24 -115 99 -115c71 0 128 37 141 107l45 256h-75l11 65h227l-12 -65h-72l-44 -252c-20 -112 -99 -180 -220 -180zM266 546c-28 0 -50 22 -50 50s22 51 50 51s50 -23 50 -51
s-22 -50 -50 -50zM439 546c-28 0 -51 22 -51 50s23 51 51 51s50 -23 50 -51s-22 -50 -50 -50z" />
    <glyph glyph-name="Utilde.smcp" unicode="&#xf6a4;" horiz-adv-x="591" 
d="M261 -10c-123 0 -204 70 -182 193l42 239h-71l11 65h229l-11 -65h-74l-44 -248c-13 -74 24 -115 99 -115c71 0 128 37 141 107l45 256h-75l11 65h227l-12 -65h-72l-44 -252c-20 -112 -99 -180 -220 -180zM215 545l-30 17c17 33 56 102 114 102c50 0 81 -49 127 -49
c32 0 51 23 70 51l29 -18c-19 -35 -61 -102 -116 -102c-48 0 -84 50 -126 50c-25 0 -46 -18 -68 -51z" />
    <glyph glyph-name="Umacron.smcp" unicode="&#xf6a1;" horiz-adv-x="591" 
d="M261 -10c-123 0 -204 70 -182 193l42 239h-71l11 65h229l-11 -65h-74l-44 -248c-13 -74 24 -115 99 -115c71 0 128 37 141 107l45 256h-75l11 65h227l-12 -65h-72l-44 -252c-20 -112 -99 -180 -220 -180zM214 557l11 62h261l-11 -62h-261z" />
    <glyph glyph-name="Ubreve.smcp" unicode="&#xf69f;" horiz-adv-x="591" 
d="M261 -10c-123 0 -204 70 -182 193l42 239h-71l11 65h229l-11 -65h-74l-44 -248c-13 -74 24 -115 99 -115c71 0 128 37 141 107l45 256h-75l11 65h227l-12 -65h-72l-44 -252c-20 -112 -99 -180 -220 -180zM346 544c-91 0 -131 62 -121 137h61c-4 -48 17 -74 66 -74
c46 0 77 23 93 74h60c-18 -84 -75 -137 -159 -137z" />
    <glyph glyph-name="Uring.smcp" unicode="&#xf6a3;" horiz-adv-x="591" 
d="M261 -10c-123 0 -204 70 -182 193l42 239h-71l11 65h229l-11 -65h-74l-44 -248c-13 -74 24 -115 99 -115c71 0 128 37 141 107l45 256h-75l11 65h227l-12 -65h-72l-44 -252c-20 -112 -99 -180 -220 -180zM350 539c-65 0 -102 37 -102 90c0 57 44 113 125 113
c65 0 101 -37 101 -89c0 -58 -43 -114 -124 -114zM353 585c37 0 59 33 59 66c0 24 -14 44 -43 44c-36 0 -58 -33 -58 -65c0 -25 12 -45 42 -45z" />
    <glyph glyph-name="Uhungarumlaut.smcp" unicode="&#xf6a0;" horiz-adv-x="591" 
d="M261 -10c-123 0 -204 70 -182 193l42 239h-71l11 65h229l-11 -65h-74l-44 -248c-13 -74 24 -115 99 -115c71 0 128 37 141 107l45 256h-75l11 65h227l-12 -65h-72l-44 -252c-20 -112 -99 -180 -220 -180zM242 544l-24 26l141 161l50 -55zM399 544l-25 26l141 161l50 -55z
" />
    <glyph glyph-name="Uogonek.smcp" unicode="&#xf6a2;" horiz-adv-x="592" 
d="M268 -198c-48 0 -85 21 -85 71c0 51 38 90 80 117c-124 -1 -207 69 -184 193l42 239h-71l11 65h229l-11 -65h-74l-44 -248c-13 -74 24 -115 99 -115c71 0 128 37 141 107l45 256h-75l11 65h227l-12 -65h-72l-44 -252c-19 -104 -81 -142 -124 -163
c-51 -26 -101 -70 -101 -117c0 -26 16 -35 38 -35c21 0 48 8 63 14l-4 -50c-21 -8 -54 -17 -85 -17z" />
    <glyph glyph-name="Wcircumflex.smcp" unicode="&#xf6a6;" horiz-adv-x="799" 
d="M166 0l-69 422h-67l11 65h223l-11 -62h-78l48 -327l159 295l-5 32h-68l11 62h222l-11 -62h-77l55 -326l165 325h-76l10 63h226l-11 -65h-68l-220 -422h-79l-54 285l-156 -285h-80zM302 540l-18 26l155 127h53l102 -128l-22 -25l-119 75z" />
    <glyph glyph-name="Yacute.smcp" unicode="&#xf7fd;" horiz-adv-x="544" 
d="M104 0l11 65h79l20 110l-117 247h-66l11 65h225l-12 -63h-73l83 -176l145 176h-73l12 63h230l-12 -65h-65l-206 -248l-19 -109h79l-11 -65h-241zM281 540l-26 33l165 148l47 -60z" />
    <glyph glyph-name="Ycircumflex.smcp" unicode="&#xf6a9;" horiz-adv-x="544" 
d="M104 0l11 65h79l20 110l-117 247h-66l11 65h225l-12 -63h-73l83 -176l145 176h-73l12 63h230l-12 -65h-65l-206 -248l-19 -109h79l-11 -65h-241zM180 540l-17 26l155 127h53l101 -128l-21 -25l-120 75z" />
    <glyph glyph-name="Ydieresis.smcp" unicode="&#xf7ff;" horiz-adv-x="544" 
d="M104 0l11 65h79l20 110l-117 247h-66l11 65h225l-12 -63h-73l83 -176l145 176h-73l12 63h230l-12 -65h-65l-206 -248l-19 -109h79l-11 -65h-241zM237 546c-28 0 -50 22 -50 50s22 51 50 51s50 -23 50 -51s-22 -50 -50 -50zM410 546c-28 0 -50 22 -50 50s22 51 50 51
s50 -23 50 -51s-22 -50 -50 -50z" />
    <glyph glyph-name="Zcaron.smcp" unicode="&#xf6ff;" horiz-adv-x="498" 
d="M6 0l-16 34l363 387h-198l-16 -88h-78l28 154h385l20 -31l-367 -390h219l16 90h78l-28 -156h-406zM268 545l-103 128l22 24l120 -75l150 76l18 -25l-154 -128h-53z" />
    <glyph glyph-name="Zacute.smcp" unicode="&#xf6ab;" horiz-adv-x="498" 
d="M6 0l-16 34l363 387h-198l-16 -88h-78l28 154h385l20 -31l-367 -390h219l16 90h78l-28 -156h-406zM257 540l-26 33l165 148l47 -60z" />
    <glyph glyph-name="Zdotaccent.smcp" unicode="&#xf6ac;" horiz-adv-x="498" 
d="M6 0l-16 34l363 387h-198l-16 -88h-78l28 154h385l20 -31l-367 -390h219l16 90h78l-28 -156h-406zM303 548c-30 0 -54 24 -54 54s24 54 54 54s54 -24 54 -54s-24 -54 -54 -54z" />
    <glyph glyph-name="dieresis.smcp" unicode="&#xf7a8;" horiz-adv-x="395" 
d="M112 546c-28 0 -50 22 -50 50s22 51 50 51s50 -23 50 -51s-22 -50 -50 -50zM285 546c-28 0 -50 22 -50 50s22 51 50 51s50 -23 50 -51s-22 -50 -50 -50z" />
    <glyph glyph-name="grave.smcp" unicode="&#xf760;" horiz-adv-x="315" 
d="M221 540l-158 124l54 58l135 -149z" />
    <glyph glyph-name="tilde.smcp" unicode="&#xf6fe;" horiz-adv-x="442" 
d="M84 545l-30 17c18 33 57 102 115 102c50 0 81 -49 126 -49c32 0 52 23 70 51l30 -18c-19 -35 -61 -102 -116 -102c-49 0 -84 50 -127 50c-25 0 -45 -18 -68 -51z" />
    <glyph glyph-name="circumflex.smcp" unicode="&#xf6f6;" horiz-adv-x="414" 
d="M73 540l-17 26l155 127h52l102 -128l-21 -25l-120 75z" />
    <glyph glyph-name="acute.smcp" unicode="&#xf7b4;" horiz-adv-x="320" 
d="M81 540l-26 33l165 148l47 -60z" />
    <glyph glyph-name="ring.smcp" unicode="&#xf6fc;" horiz-adv-x="340" 
d="M165 539c-65 0 -102 37 -102 90c0 57 44 113 124 113c66 0 102 -37 102 -89c0 -58 -43 -114 -124 -114zM168 585c37 0 59 33 59 66c0 24 -14 44 -43 44c-36 0 -58 -33 -58 -65c0 -25 12 -45 42 -45z" />
    <glyph glyph-name="cedilla.smcp" unicode="&#xf7b8;" horiz-adv-x="285" 
d="M110 -198c-31 0 -61 6 -82 15l14 45c18 -7 41 -13 65 -13c30 0 51 9 51 31c0 29 -37 37 -70 36l5 19l66 95l40 -11l-38 -70c38 -6 69 -25 69 -67c0 -55 -55 -80 -120 -80z" />
    <glyph glyph-name="caron.smcp" unicode="&#xf6f5;" horiz-adv-x="419" 
d="M169 545l-103 128l22 24l120 -75l150 76l18 -25l-154 -128h-53z" />
    <glyph glyph-name="ogonek.smcp" unicode="&#xf6fb;" horiz-adv-x="272" 
d="M127 -198c-48 0 -85 21 -85 71c0 78 93 130 153 154l23 -19c-44 -24 -103 -70 -103 -119c0 -25 17 -34 39 -34c20 0 47 8 62 14l-4 -50c-21 -8 -54 -17 -85 -17z" />
    <glyph glyph-name="breve.smcp" unicode="&#xf6f4;" horiz-adv-x="359" 
d="M177 544c-91 0 -130 62 -120 137h61c-4 -48 17 -74 66 -74c46 0 77 23 93 74h60c-18 -84 -75 -137 -160 -137z" />
    <glyph glyph-name="hungarumlaut.smcp" unicode="&#xf6f8;" horiz-adv-x="465" 
d="M89 544l-25 26l142 161l50 -55zM245 544l-24 26l140 161l51 -55z" />
    <glyph glyph-name="dotaccent.smcp" unicode="&#xf6f7;" horiz-adv-x="229" 
d="M117 548c-30 0 -54 24 -54 54s24 54 54 54s54 -24 54 -54s-24 -54 -54 -54z" />
    <glyph glyph-name="macron.smcp" unicode="&#xf7af;" horiz-adv-x="392" 
d="M63 557l11 62h261l-10 -62h-262z" />
    <glyph glyph-name="onehalf" unicode="&#xbd;" horiz-adv-x="812" 
d="M474 0l-13 40c78 51 241 136 241 229c0 29 -17 49 -62 49c-22 0 -42 -5 -59 -13c2 -4 3 -9 3 -15c0 -24 -16 -40 -41 -40c-24 0 -38 16 -38 36c0 41 63 82 143 82c70 0 122 -30 122 -97c0 -92 -101 -166 -197 -218h173l-10 -53h-262zM48 248l9 53h80l44 250
c-18 -14 -44 -29 -66 -29c-26 0 -37 20 -28 46l112 41h58l-54 -308h67l-10 -53h-212zM199 -15l-41 27l454 611l40 -26z" />
    <glyph glyph-name="onequarter" unicode="&#xbc;" horiz-adv-x="776" 
d="M50 248l9 53h81l44 250c-19 -14 -44 -29 -67 -29c-25 0 -37 20 -28 46l113 41h58l-55 -308h67l-10 -53h-212zM527 0l8 46h65l9 47h-167l-11 39c66 66 135 165 155 234c35 7 50 -4 50 -25c0 -48 -75 -150 -129 -199h114l7 38c17 22 34 45 46 70h25l-19 -108h48l-8 -49h-47
l-9 -47h46l-8 -46h-175zM204 -15l-40 27l453 611l40 -26z" />
    <glyph glyph-name="threequarters" unicode="&#xbe;" horiz-adv-x="799" 
d="M178 241c-60 0 -131 23 -131 69c0 22 16 42 43 42c22 0 36 -14 36 -32c0 -6 -2 -11 -5 -18c12 -5 32 -10 55 -10c54 0 85 28 85 65c0 39 -32 51 -82 51h-29l8 51h27c57 0 93 25 93 62c0 29 -20 46 -60 46c-18 0 -38 -4 -50 -9c2 -4 3 -9 3 -13c0 -21 -17 -38 -42 -38
s-39 16 -39 37c0 43 67 73 137 73c72 0 123 -34 123 -91c0 -45 -32 -78 -83 -90c40 -11 64 -37 64 -78c0 -68 -64 -117 -153 -117zM550 0l8 46h65l9 47h-167l-11 39c66 66 135 165 154 234c36 7 51 -4 51 -25c0 -48 -75 -150 -129 -199h114l7 38c17 22 34 45 46 70h25
l-20 -108h49l-8 -49h-47l-9 -47h46l-8 -46h-175zM227 -15l-41 27l454 611l40 -26z" />
    <glyph glyph-name="numero" unicode="&#x2116;" horiz-adv-x="1048" 
d="M837 161c-82 0 -147 48 -147 142c0 100 73 188 183 188c83 0 148 -51 148 -144c0 -99 -72 -186 -184 -186zM839 224c63 0 106 56 106 121c0 51 -26 82 -73 82c-61 0 -105 -54 -105 -122c0 -49 25 -81 72 -81zM645 30l12 64h317l-12 -64h-317zM-5 0l13 68h88l83 473h-88
l11 68h167l211 -468l70 400h-88l11 68h252l-12 -68h-88l-96 -541h-68l-217 480l-73 -412h88l-12 -68h-252z" />
    <glyph glyph-name="T_h" horiz-adv-x="1056" 
d="M104 0l13 71h96l82 467h-146l-17 -101h-80l30 172h580l33 98h66l-60 -343c43 36 103 75 166 75c76 0 123 -54 107 -145l-34 -192c-6 -32 5 -46 34 -46c17 0 37 6 51 11l-11 -66c-19 -6 -44 -11 -70 -11c-81 0 -99 55 -88 117l32 182c9 47 -2 81 -48 81
c-52 0 -111 -44 -153 -82l-51 -288h-86l94 538h-260l-83 -467h97l-13 -71h-281z" />
    <glyph glyph-name="c_t" horiz-adv-x="769" 
d="M221 -11c-121 0 -196 69 -196 194c0 135 86 254 241 255c7 119 96 156 194 156h215l-31 -166h124l-12 -68h-123l-44 -246c-7 -42 13 -58 52 -58c37 0 66 14 86 21l-11 -65c-26 -12 -62 -23 -103 -23c-75 0 -124 43 -109 130l42 241h-73l12 68h73l18 106h-122
c-57 0 -115 -12 -120 -101c26 -5 49 -12 67 -19l-13 -65c-27 12 -67 24 -108 24c-111 0 -167 -89 -167 -185c0 -82 42 -133 127 -133c39 0 86 11 114 22l-12 -69c-29 -9 -77 -19 -121 -19z" />
    <glyph glyph-name="s_t" unicode="&#xfb06;" horiz-adv-x="717" 
d="M146 -11c-53 0 -105 11 -145 29l11 64c39 -16 89 -28 133 -28c65 0 93 26 93 58c0 82 -194 62 -194 197c0 77 64 130 170 129c7 119 96 156 193 156h215l-30 -166h124l-12 -68h-123l-43 -246c-8 -42 12 -58 51 -58c37 0 67 14 87 21l-12 -65c-25 -12 -62 -23 -103 -23
c-75 0 -124 43 -109 130l42 241h-73l13 68h72l19 106h-123c-57 0 -116 -12 -121 -103c22 -5 41 -11 58 -16l-11 -62c-32 11 -73 22 -115 22c-67 0 -85 -29 -85 -54c0 -81 195 -60 195 -198c0 -60 -39 -134 -177 -134z" />
    <glyph glyph-name="space" unicode=" " horiz-adv-x="220" 
 />
    </font>
</defs>
</svg>
